SplineFontDB: 3.2
FontName: AtkinsonSlashfree-BoldItalic
FullName: Atkinson Slashfree Bold Italic
FamilyName: Atkinson Slashfree
Weight: Bold
Copyright: (c) 2020 Braille Institute of America, Inc., a 501(c)(3) Charitable Organization.
Version: 1
ItalicAngle: -12
UnderlinePosition: -100
UnderlineWidth: 50
Ascent: 800
Descent: 200
InvalidEm: 0
sfntRevision: 0x00010000
LayerCount: 2
Layer: 0 1 "Back" 1
Layer: 1 1 "Fore" 0
XUID: [1021 801 -1858554247 21542]
StyleMap: 0x0021
FSType: 0
OS2Version: 3
OS2_WeightWidthSlopeOnly: 0
OS2_UseTypoMetrics: 0
CreationTime: 1546336848
ModificationTime: 1702586766
PfmFamily: 81
TTFWeight: 700
TTFWidth: 5
LineGap: 0
VLineGap: 0
Panose: 0 0 0 0 0 0 0 0 0 0
OS2TypoAscent: 796
OS2TypoAOffset: 0
OS2TypoDescent: -251
OS2TypoDOffset: 0
OS2TypoLinegap: 150
OS2WinAscent: 996
OS2WinAOffset: 0
OS2WinDescent: 411
OS2WinDOffset: 0
HheadAscent: 796
HheadAOffset: 0
HheadDescent: -251
HheadDOffset: 0
OS2SubXSize: 650
OS2SubYSize: 600
OS2SubXOff: -16
OS2SubYOff: 75
OS2SupXSize: 650
OS2SupYSize: 600
OS2SupXOff: 74
OS2SupYOff: 350
OS2StrikeYSize: 49
OS2StrikeYPos: 258
OS2CapHeight: 668
OS2XHeight: 496
OS2Vendor: '    '
OS2CodePages: 20000083.00000000
OS2UnicodeRanges: 00000027.00000000.00000000.00000000
Lookup: 1 0 0 "Single Substitution lookup 0" { "Single Substitution lookup 0 subtable"  } []
Lookup: 1 0 0 "'case' Case-Sensitive Forms lookup 1" { "'case' Case-Sensitive Forms lookup 1 subtable"  } ['case' ('DFLT' <'dflt' > 'grek' <'dflt' > 'latn' <'dflt' > ) ]
Lookup: 4 0 0 "'frac' Diagonal Fractions lookup 2" { "'frac' Diagonal Fractions lookup 2 subtable"  } ['frac' ('DFLT' <'dflt' > 'grek' <'dflt' > 'latn' <'dflt' > ) ]
Lookup: 6 0 0 "'ordn' Ordinals lookup 3" { "'ordn' Ordinals lookup 3 contextual 0"  "'ordn' Ordinals lookup 3 contextual 1"  } ['ordn' ('DFLT' <'dflt' > 'grek' <'dflt' > 'latn' <'dflt' > ) ]

StartChar: .notdef
Encoding: 65536 -1 0
Width: 676
GlyphClass: 1
Flags: W
LayerCount: 2
Fore
SplineSet
129 700 m 1,0,-1
 556 700 l 1,1,-1
 556 0 l 1,2,-1
 129 0 l 1,3,-1
 129 700 l 1,0,-1
528 680 m 1,4,-1
 157 680 l 1,5,-1
 342 371 l 1,6,-1
 528 680 l 1,4,-1
536 652 m 1,7,-1
 355 350 l 1,8,-1
 536 47 l 1,9,-1
 536 652 l 1,7,-1
330 350 m 1,10,-1
 150 650 l 1,11,-1
 150 49 l 1,12,-1
 330 350 l 1,10,-1
528 21 m 1,13,-1
 343 329 l 1,14,-1
 158 21 l 1,15,-1
 528 21 l 1,13,-1
EndSplineSet
EndChar

StartChar: zero
Encoding: 48 48 4
Width: 659
GlyphClass: 1
Flags: W
LayerCount: 2
Back
SplineSet
312 101 m 5,21,22
 352 101 352 101 385 128 c 5,23,-1
 230 450 l 5,24,25
 222 426 222 426 215.5 397.5 c 132,-1,26
 209 369 209 369 206 335 c 4,27,28
 201 287 201 287 203.5 244.5 c 132,-1,29
 206 202 206 202 218 170 c 132,-1,30
 230 138 230 138 253 119.5 c 132,-1,31
 276 101 276 101 312 101 c 5,32,-1
 312 101 l 5,21,22
291 544 m 5,33,-1
 444 227 l 5,34,35
 452 250 452 250 457.5 277 c 132,-1,36
 463 304 463 304 466 335 c 4,37,38
 468 355 468 355 469 380 c 132,-1,39
 470 405 470 405 468 431 c 132,-1,40
 466 457 466 457 459.5 481.5 c 132,-1,41
 453 506 453 506 440.5 525 c 132,-1,42
 428 544 428 544 408.5 555.5 c 132,-1,43
 389 567 389 567 360 567 c 4,44,45
 323 567 323 567 291 544 c 5,46,-1
 291 544 l 5,33,-1
EndSplineSet
Fore
SplineSet
466 335 m 24,0,1
 489.399141631 567 489.399141631 567 360 567 c 24,2,3
 229.399141631 567 229.399141631 567 206 335 c 28,4,5
 182 101 182 101 313 101 c 24,6,7
 442 101 442 101 466 335 c 24,0,1
50 335 m 1,8,9
 58 415 58 415 83 479 c 128,-1,10
 108 543 108 543 149 587.5 c 128,-1,11
 190 632 190 632 246 656 c 128,-1,12
 302 680 302 680 372 680 c 256,13,14
 442 680 442 680 493 656 c 128,-1,15
 544 632 544 632 575.5 587.5 c 128,-1,16
 607 543 607 543 618.5 479 c 128,-1,17
 630 415 630 415 622 335 c 256,18,19
 614 255 614 255 589 191 c 128,-1,20
 564 127 564 127 523 82 c 128,-1,21
 482 37 482 37 426 12.5 c 128,-1,22
 370 -12 370 -12 300 -12 c 256,23,24
 230 -12 230 -12 179 12.5 c 128,-1,25
 128 37 128 37 96.5 82 c 128,-1,26
 65 127 65 127 53.5 191 c 128,-1,27
 42 255 42 255 50 335 c 1,28,-1
 50 335 l 1,8,9
EndSplineSet
Substitution2: "'tnum' Tabular Numbers lookup 6 subtable" zero.tf
EndChar

StartChar: one
Encoding: 49 49 5
AltUni2: 00e920.ffffffff.0 00e920.ffffffff.0
Width: 455
GlyphClass: 1
Flags: W
LayerCount: 2
Fore
SplineSet
72 449 m 1,0,-1
 98 571 l 1,1,2
 139 571 139 571 170 575 c 128,-1,3
 201 579 201 579 226 589.5 c 128,-1,4
 251 600 251 600 271 619 c 128,-1,5
 291 638 291 638 310 668 c 1,6,-1
 428 668 l 1,7,-1
 287 0 l 1,8,-1
 132 0 l 1,9,-1
 228 449 l 1,10,-1
 72 449 l 1,11,-1
 72 449 l 1,0,-1
EndSplineSet
Substitution2: "'tnum' Tabular Numbers lookup 6 subtable" one.tf
Substitution2: "'sups' Superscript lookup 5 subtable" uni00B9
EndChar

StartChar: two
Encoding: 50 50 6
Width: 587
GlyphClass: 1
Flags: W
LayerCount: 2
Fore
SplineSet
-35 0 m 1,0,-1
 -9 125 l 1,1,2
 91 176 91 176 173 226.5 c 128,-1,3
 255 277 255 277 312 325 c 128,-1,4
 369 373 369 373 398 419 c 128,-1,5
 427 465 427 465 419 507 c 0,6,7
 414 536 414 536 390 552 c 128,-1,8
 366 568 366 568 334 568 c 0,9,10
 301 568 301 568 266.5 549.5 c 128,-1,11
 232 531 232 531 208 489 c 1,12,-1
 81 539 l 1,13,14
 101 575 101 575 131 601.5 c 128,-1,15
 161 628 161 628 197 645.5 c 128,-1,16
 233 663 233 663 272 671.5 c 128,-1,17
 311 680 311 680 350 680 c 0,18,19
 396 680 396 680 438.5 668 c 128,-1,20
 481 656 481 656 513 632 c 128,-1,21
 545 608 545 608 563 573 c 128,-1,22
 581 538 581 538 578 491 c 0,23,24
 575 437 575 437 544.5 387 c 128,-1,25
 514 337 514 337 463 291 c 128,-1,26
 412 245 412 245 345.5 203.5 c 128,-1,27
 279 162 279 162 204 125 c 1,28,-1
 504 125 l 1,29,-1
 478 0 l 1,30,-1
 -35 0 l 1,31,-1
 -35 0 l 1,0,-1
EndSplineSet
Substitution2: "'tnum' Tabular Numbers lookup 6 subtable" two.tf
Substitution2: "'sups' Superscript lookup 5 subtable" uni00B2
EndChar

StartChar: three
Encoding: 51 51 7
Width: 619
GlyphClass: 1
Flags: W
LayerCount: 2
Fore
SplineSet
155 190 m 1,0,1
 159 166 159 166 170 149 c 128,-1,2
 181 132 181 132 196 121.5 c 128,-1,3
 211 111 211 111 230 106 c 128,-1,4
 249 101 249 101 268 101 c 0,5,6
 291 101 291 101 311.5 107 c 128,-1,7
 332 113 332 113 347.5 124.5 c 128,-1,8
 363 136 363 136 372 152.5 c 128,-1,9
 381 169 381 169 381 190 c 0,10,11
 381 223 381 223 364.5 243 c 128,-1,12
 348 263 348 263 322.5 273.5 c 128,-1,13
 297 284 297 284 265.5 287.5 c 128,-1,14
 234 291 234 291 205 291 c 1,15,-1
 227 397 l 1,16,17
 270 397 270 397 305.5 402 c 128,-1,18
 341 407 341 407 366.5 418.5 c 128,-1,19
 392 430 392 430 406 448 c 128,-1,20
 420 466 420 466 419 492 c 0,21,22
 417 530 417 530 390.5 548.5 c 128,-1,23
 364 567 364 567 326 567 c 0,24,25
 306 567 306 567 286.5 563 c 128,-1,26
 267 559 267 559 251 549.5 c 128,-1,27
 235 540 235 540 222.5 524.5 c 128,-1,28
 210 509 210 509 204 485 c 1,29,-1
 77 535 l 1,30,31
 99 576 99 576 127.5 604 c 128,-1,32
 156 632 156 632 190 649 c 128,-1,33
 224 666 224 666 263 673 c 128,-1,34
 302 680 302 680 344 680 c 0,35,36
 392 680 392 680 434.5 669 c 128,-1,37
 477 658 477 658 509.5 636.5 c 128,-1,38
 542 615 542 615 560.5 584 c 128,-1,39
 579 553 579 553 579 513 c 0,40,41
 579 477 579 477 570 450.5 c 128,-1,42
 561 424 561 424 545 404.5 c 128,-1,43
 529 385 529 385 508.5 371.5 c 128,-1,44
 488 358 488 358 465 349 c 1,45,46
 507 326 507 326 525 287 c 128,-1,47
 543 248 543 248 539 200 c 0,48,49
 535 147 535 147 511 107.5 c 128,-1,50
 487 68 487 68 450 41.5 c 128,-1,51
 413 15 413 15 366 1.5 c 128,-1,52
 319 -12 319 -12 267 -12 c 0,53,54
 225 -12 225 -12 185.5 -5 c 128,-1,55
 146 2 146 2 112 19.5 c 128,-1,56
 78 37 78 37 50.5 66.5 c 128,-1,57
 23 96 23 96 6 140 c 1,58,-1
 155 190 l 1,59,-1
 155 190 l 1,0,1
EndSplineSet
Substitution2: "'tnum' Tabular Numbers lookup 6 subtable" three.tf
Substitution2: "'sups' Superscript lookup 5 subtable" uni00B3
EndChar

StartChar: four
Encoding: 52 52 8
Width: 646
GlyphClass: 1
Flags: W
LayerCount: 2
Fore
SplineSet
7 252 m 1,0,-1
 421 668 l 1,1,-1
 592 668 l 1,2,-1
 508 275 l 1,3,-1
 600 275 l 1,4,-1
 572 141 l 1,5,-1
 480 141 l 1,6,-1
 450 0 l 1,7,-1
 294 0 l 1,8,-1
 324 141 l 1,9,-1
 -16 141 l 1,10,-1
 7 252 l 1,0,-1
193 275 m 1,11,-1
 352 275 l 1,12,-1
 394 469 l 1,13,-1
 193 275 l 1,11,-1
EndSplineSet
Substitution2: "'tnum' Tabular Numbers lookup 6 subtable" four.tf
EndChar

StartChar: five
Encoding: 53 53 9
Width: 616
GlyphClass: 1
Flags: W
LayerCount: 2
Fore
SplineSet
156 189 m 1,0,1
 164 145 164 145 197.5 122.5 c 128,-1,2
 231 100 231 100 269 100 c 0,3,4
 310 100 310 100 344.5 124.5 c 128,-1,5
 379 149 379 149 386 199 c 0,6,7
 391 235 391 235 383 261 c 128,-1,8
 375 287 375 287 359.5 304 c 128,-1,9
 344 321 344 321 322 329 c 128,-1,10
 300 337 300 337 277 337 c 0,11,12
 245 337 245 337 214.5 321.5 c 128,-1,13
 184 306 184 306 168 276 c 1,14,-1
 41 327 l 1,15,-1
 156 668 l 1,16,-1
 586 668 l 1,17,-1
 560 544 l 1,18,-1
 259 544 l 1,19,-1
 217 419 l 1,20,21
 242 433 242 433 272 440.5 c 128,-1,22
 302 448 302 448 333 448 c 0,23,24
 376 448 376 448 417 433.5 c 128,-1,25
 458 419 458 419 488.5 388.5 c 128,-1,26
 519 358 519 358 534.5 311 c 128,-1,27
 550 264 550 264 541 198 c 0,28,29
 534 144 534 144 507.5 104.5 c 128,-1,30
 481 65 481 65 443.5 39 c 128,-1,31
 406 13 406 13 360.5 0.5 c 128,-1,32
 315 -12 315 -12 268 -12 c 0,33,34
 226 -12 226 -12 185 -2 c 128,-1,35
 144 8 144 8 110.5 27.5 c 128,-1,36
 77 47 77 47 52.5 75.5 c 128,-1,37
 28 104 28 104 17 142 c 1,38,-1
 156 189 l 1,39,-1
 156 189 l 1,0,1
EndSplineSet
Substitution2: "'tnum' Tabular Numbers lookup 6 subtable" five.tf
EndChar

StartChar: six
Encoding: 54 54 10
Width: 629
GlyphClass: 1
Flags: W
LayerCount: 2
Fore
SplineSet
46 318 m 1,0,1
 54 390 54 390 77 455.5 c 128,-1,2
 100 521 100 521 140.5 571 c 128,-1,3
 181 621 181 621 238 650.5 c 128,-1,4
 295 680 295 680 370 680 c 256,5,6
 445 680 445 680 493 653 c 128,-1,7
 541 626 541 626 567 583 c 1,8,-1
 429 535 l 1,9,10
 405 570 405 570 352 570 c 256,11,12
 299 570 299 570 264.5 526 c 128,-1,13
 230 482 230 482 220 409 c 1,14,15
 246 429 246 429 275 440.5 c 128,-1,16
 304 452 304 452 349 452 c 256,17,18
 394 452 394 452 434 436.5 c 128,-1,19
 474 421 474 421 503 392 c 128,-1,20
 532 363 532 363 548.5 322 c 128,-1,21
 565 281 565 281 562 229 c 256,22,23
 559 177 559 177 537.5 133 c 128,-1,24
 516 89 516 89 479.5 57 c 128,-1,25
 443 25 443 25 394.5 6.5 c 128,-1,26
 346 -12 346 -12 289 -12 c 0,27,28
 216 -12 216 -12 166.5 13 c 128,-1,29
 117 38 117 38 87.5 82.5 c 128,-1,30
 58 127 58 127 48.5 187.5 c 128,-1,31
 39 248 39 248 46 318 c 1,32,-1
 46 318 l 1,0,1
293 101 m 1,33,34
 317 101 317 101 337.5 110.5 c 128,-1,35
 358 120 358 120 373.5 137 c 128,-1,36
 389 154 389 154 398 177 c 128,-1,37
 407 200 407 200 407 227 c 0,38,39
 407 284 407 284 380 311.5 c 128,-1,40
 353 339 353 339 308 339 c 0,41,42
 259 339 259 339 229 310.5 c 128,-1,43
 199 282 199 282 193 227 c 0,44,45
 190 200 190 200 196 177 c 128,-1,46
 202 154 202 154 215 137 c 128,-1,47
 228 120 228 120 248 110.5 c 128,-1,48
 268 101 268 101 293 101 c 1,49,-1
 293 101 l 1,33,34
EndSplineSet
Substitution2: "'tnum' Tabular Numbers lookup 6 subtable" six.tf
EndChar

StartChar: seven
Encoding: 55 55 11
Width: 561
GlyphClass: 1
Flags: W
LayerCount: 2
Fore
SplineSet
13 0 m 1,0,-1
 400 543 l 1,1,-1
 53 543 l 1,2,-1
 80 668 l 1,3,-1
 593 668 l 1,4,-1
 567 543 l 1,5,-1
 194 0 l 1,6,-1
 13 0 l 1,0,-1
EndSplineSet
Substitution2: "'tnum' Tabular Numbers lookup 6 subtable" seven.tf
EndChar

StartChar: eight
Encoding: 56 56 12
Width: 623
GlyphClass: 1
Flags: W
LayerCount: 2
Fore
SplineSet
13 201 m 1,0,1
 18 263 18 263 52.5 304.5 c 128,-1,2
 87 346 87 346 147 378 c 1,3,4
 134 401 134 401 126.5 428.5 c 128,-1,5
 119 456 119 456 121 486 c 0,6,7
 123 523 123 523 139 558 c 128,-1,8
 155 593 155 593 182.5 620 c 128,-1,9
 210 647 210 647 248.5 663.5 c 128,-1,10
 287 680 287 680 334 680 c 0,11,12
 376 680 376 680 410 663.5 c 128,-1,13
 444 647 444 647 467 621 c 128,-1,14
 490 595 490 595 500.5 561.5 c 128,-1,15
 511 528 511 528 507 494 c 0,16,17
 502 456 502 456 488.5 424.5 c 128,-1,18
 475 393 475 393 455 373 c 1,19,20
 477 361 477 361 496.5 345 c 128,-1,21
 516 329 516 329 530.5 308 c 128,-1,22
 545 287 545 287 552 260.5 c 128,-1,23
 559 234 559 234 556 201 c 0,24,25
 552 153 552 153 530.5 113.5 c 128,-1,26
 509 74 509 74 473 46.5 c 128,-1,27
 437 19 437 19 387 3.5 c 128,-1,28
 337 -12 337 -12 274 -12 c 256,29,30
 211 -12 211 -12 161 3.5 c 128,-1,31
 111 19 111 19 77 47.5 c 128,-1,32
 43 76 43 76 26.5 115 c 128,-1,33
 10 154 10 154 13 201 c 1,34,-1
 13 201 l 1,0,1
280 114 m 1,35,36
 331 114 331 114 364 139.5 c 128,-1,37
 397 165 397 165 402 206 c 0,38,39
 404 227 404 227 396.5 243.5 c 128,-1,40
 389 260 389 260 374 271 c 128,-1,41
 359 282 359 282 338 288 c 128,-1,42
 317 294 317 294 291 294 c 0,43,44
 238 294 238 294 204.5 271 c 128,-1,45
 171 248 171 248 167 206 c 256,46,47
 163 164 163 164 195 139 c 128,-1,48
 227 114 227 114 280 114 c 1,49,-1
 280 114 l 1,35,36
307 417 m 1,50,51
 335 417 335 417 357 437 c 128,-1,52
 379 457 379 457 382 486 c 256,53,54
 385 515 385 515 367.5 535 c 128,-1,55
 350 555 350 555 321 555 c 0,56,57
 293 555 293 555 271 535 c 128,-1,58
 249 515 249 515 246 486 c 256,59,60
 243 457 243 457 261 437 c 128,-1,61
 279 417 279 417 307 417 c 1,62,-1
 307 417 l 1,50,51
EndSplineSet
Substitution2: "'tnum' Tabular Numbers lookup 6 subtable" eight.tf
EndChar

StartChar: nine
Encoding: 57 57 13
Width: 576
GlyphClass: 1
Flags: W
LayerCount: 2
Fore
SplineSet
111 567 m 1,0,1
 154 627 154 627 213 654 c 128,-1,2
 272 681 272 681 332 681 c 0,3,4
 379 681 379 681 418 666 c 0,5,6
 460 651 460 651 494.5 618 c 128,-1,7
 529 585 529 585 545 539 c 128,-1,8
 561 493 561 493 553 436.5 c 128,-1,9
 545 380 545 380 502 319 c 0,10,11
 491 303 491 303 475.5 280.5 c 128,-1,12
 460 258 460 258 442 232.5 c 128,-1,13
 424 207 424 207 405 180 c 128,-1,14
 386 153 386 153 368 127 c 0,15,16
 326 66 326 66 280 0 c 1,17,-1
 106 0 l 1,18,-1
 271 222 l 1,19,20
 200 220 200 220 151 252.5 c 128,-1,21
 102 285 102 285 79.5 336 c 128,-1,22
 57 387 57 387 64 448.5 c 128,-1,23
 71 510 71 510 111 567 c 1,24,-1
 111 567 l 1,0,1
301 336 m 1,25,26
 353 340 353 340 383.5 371 c 128,-1,27
 414 402 414 402 417 441 c 0,28,29
 421 491 421 491 393.5 520.5 c 128,-1,30
 366 550 366 550 315 545 c 0,31,32
 272 541 272 541 241 513 c 128,-1,33
 210 485 210 485 203 437 c 0,34,35
 200 414 200 414 206 395 c 128,-1,36
 212 376 212 376 225.5 362.5 c 128,-1,37
 239 349 239 349 258.5 342 c 128,-1,38
 278 335 278 335 301 336 c 1,39,-1
 301 336 l 1,25,26
EndSplineSet
Substitution2: "'tnum' Tabular Numbers lookup 6 subtable" nine.tf
EndChar

StartChar: A
Encoding: 65 65 14
Width: 698
GlyphClass: 1
Flags: W
LayerCount: 2
Fore
SplineSet
-65 0 m 1,0,-1
 329 668 l 1,1,-1
 512 668 l 1,2,-1
 623 0 l 1,3,-1
 458 0 l 1,4,-1
 442 119 l 1,5,-1
 187 119 l 1,6,-1
 121 0 l 1,7,-1
 -65 0 l 1,0,-1
255 247 m 1,8,-1
 427 247 l 1,9,-1
 395 501 l 1,10,-1
 255 247 l 1,8,-1
EndSplineSet
Substitution2: "Single Substitution lookup 0 subtable" ordfeminine
EndChar

StartChar: B
Encoding: 66 66 15
Width: 656
GlyphClass: 1
Flags: W
LayerCount: 2
Fore
SplineSet
119 668 m 1,0,-1
 413 668 l 2,1,2
 461 668 461 668 503.5 660.5 c 128,-1,3
 546 653 546 653 576.5 633.5 c 128,-1,4
 607 614 607 614 622.5 580.5 c 128,-1,5
 638 547 638 547 631 495 c 0,6,7
 625 448 625 448 597 412 c 128,-1,8
 569 376 569 376 523 355 c 1,9,10
 566 335 566 335 587 294.5 c 128,-1,11
 608 254 608 254 596 185 c 0,12,13
 581 100 581 100 500 50 c 128,-1,14
 419 0 419 0 283 0 c 2,15,-1
 -23 0 l 1,16,-1
 119 668 l 1,17,-1
 119 668 l 1,0,-1
166 131 m 1,18,-1
 313 131 l 2,19,20
 361 131 361 131 392.5 152.5 c 128,-1,21
 424 174 424 174 431 207 c 0,22,23
 439 242 439 242 414.5 262 c 128,-1,24
 390 282 390 282 339 282 c 2,25,-1
 198 282 l 1,26,-1
 166 131 l 1,27,-1
 166 131 l 1,18,-1
363 404 m 1,28,29
 404 404 404 404 431 422 c 128,-1,30
 458 440 458 440 463 472 c 0,31,32
 468 502 468 502 450.5 520.5 c 128,-1,33
 433 539 433 539 391 539 c 2,34,-1
 253 539 l 1,35,-1
 224 404 l 1,36,-1
 363 404 l 1,37,-1
 363 404 l 1,28,29
EndSplineSet
EndChar

StartChar: C
Encoding: 67 67 16
Width: 686
GlyphClass: 1
Flags: W
LayerCount: 2
Fore
SplineSet
37 334 m 1,0,1
 50 420 50 420 84 484.5 c 128,-1,2
 118 549 118 549 167.5 592.5 c 128,-1,3
 217 636 217 636 280.5 658 c 128,-1,4
 344 680 344 680 417 680 c 0,5,6
 456 680 456 680 495 672 c 128,-1,7
 534 664 534 664 568.5 646 c 128,-1,8
 603 628 603 628 630 598.5 c 128,-1,9
 657 569 657 569 671 525 c 1,10,-1
 525 476 l 1,11,12
 507 518 507 518 474.5 534 c 128,-1,13
 442 550 442 550 401 550 c 0,14,15
 366 550 366 550 334 536 c 128,-1,16
 302 522 302 522 275.5 494.5 c 128,-1,17
 249 467 249 467 230.5 427 c 128,-1,18
 212 387 212 387 204 334 c 0,19,20
 197 281 197 281 203.5 241 c 128,-1,21
 210 201 210 201 228.5 174 c 128,-1,22
 247 147 247 147 275 133.5 c 128,-1,23
 303 120 303 120 338 120 c 0,24,25
 376 120 376 120 412 136 c 128,-1,26
 448 152 448 152 480 194 c 1,27,-1
 616 141 l 1,28,29
 568 66 568 66 490 24.5 c 128,-1,30
 412 -17 412 -17 302 -12 c 0,31,32
 237 -9 237 -9 182.5 14 c 128,-1,33
 128 37 128 37 91.5 80 c 128,-1,34
 55 123 55 123 40 186.5 c 128,-1,35
 25 250 25 250 37 334 c 1,36,-1
 37 334 l 1,0,1
EndSplineSet
EndChar

StartChar: D
Encoding: 68 68 17
Width: 690
GlyphClass: 1
Flags: W
LayerCount: 2
Fore
SplineSet
119 668 m 1,0,-1
 313 668 l 2,1,2
 414 668 414 668 485 642.5 c 128,-1,3
 556 617 556 617 598 570.5 c 128,-1,4
 640 524 640 524 653 458.5 c 128,-1,5
 666 393 666 393 651 312 c 0,6,7
 635 223 635 223 590 163 c 128,-1,8
 545 103 545 103 483 67 c 128,-1,9
 421 31 421 31 347.5 15.5 c 128,-1,10
 274 0 274 0 200 0 c 2,11,-1
 -23 0 l 1,12,-1
 119 668 l 1,13,-1
 119 668 l 1,0,-1
167 133 m 1,14,-1
 230 133 l 2,15,16
 291 133 291 133 336.5 149.5 c 128,-1,17
 382 166 382 166 414 195.5 c 128,-1,18
 446 225 446 225 464 266 c 128,-1,19
 482 307 482 307 488 355 c 0,20,21
 493 400 493 400 488.5 434.5 c 128,-1,22
 484 469 484 469 464.5 491.5 c 128,-1,23
 445 514 445 514 408 525.5 c 128,-1,24
 371 537 371 537 311 537 c 2,25,-1
 253 537 l 1,26,-1
 167 133 l 1,27,-1
 167 133 l 1,14,-1
EndSplineSet
EndChar

StartChar: E
Encoding: 69 69 18
Width: 595
GlyphClass: 1
Flags: W
LayerCount: 2
Fore
SplineSet
251 529 m 1,0,-1
 226 413 l 1,1,-1
 443 413 l 1,2,-1
 414 274 l 1,3,-1
 197 274 l 1,4,-1
 168 139 l 1,5,-1
 524 139 l 1,6,-1
 495 0 l 1,7,-1
 -23 0 l 1,8,-1
 119 668 l 1,9,-1
 637 668 l 1,10,-1
 607 529 l 1,11,-1
 251 529 l 1,0,-1
EndSplineSet
EndChar

StartChar: F
Encoding: 70 70 19
Width: 559
GlyphClass: 1
Flags: W
LayerCount: 2
Fore
SplineSet
251 529 m 1,0,-1
 226 413 l 1,1,-1
 546 413 l 1,2,-1
 517 274 l 1,3,-1
 197 274 l 1,4,-1
 138 0 l 1,5,-1
 -23 0 l 1,6,-1
 119 668 l 1,7,-1
 600 668 l 1,8,-1
 571 529 l 1,9,-1
 251 529 l 1,0,-1
EndSplineSet
EndChar

StartChar: G
Encoding: 71 71 20
Width: 734
GlyphClass: 1
Flags: W
LayerCount: 2
Fore
SplineSet
37 336 m 1,0,1
 51 418 51 418 84 482 c 128,-1,2
 117 546 117 546 167 590 c 128,-1,3
 217 634 217 634 281.5 657 c 128,-1,4
 346 680 346 680 422 680 c 0,5,6
 466 680 466 680 505 671.5 c 128,-1,7
 544 663 544 663 577 645.5 c 128,-1,8
 610 628 610 628 635.5 600.5 c 128,-1,9
 661 573 661 573 677 535 c 1,10,-1
 529 478 l 1,11,12
 518 504 518 504 485 527 c 128,-1,13
 452 550 452 550 400 550 c 0,14,15
 364 550 364 550 332 536 c 128,-1,16
 300 522 300 522 274.5 495 c 128,-1,17
 249 468 249 468 230.5 428 c 128,-1,18
 212 388 212 388 204 336 c 0,19,20
 188 234 188 234 222.5 179.5 c 128,-1,21
 257 125 257 125 326 118 c 0,22,23
 353 115 353 115 382 120.5 c 128,-1,24
 411 126 411 126 436 140 c 128,-1,25
 461 154 461 154 479.5 176.5 c 128,-1,26
 498 199 498 199 505 231 c 2,27,-1
 509 250 l 1,28,-1
 359 250 l 1,29,-1
 386 378 l 1,30,-1
 698 378 l 1,31,-1
 617 0 l 1,32,-1
 510 0 l 1,33,-1
 504 74 l 1,34,35
 462 30 462 30 408 9 c 128,-1,36
 354 -12 354 -12 282 -12 c 0,37,38
 225 -12 225 -12 174.5 10.5 c 128,-1,39
 124 33 124 33 88.5 77 c 128,-1,40
 53 121 53 121 38 186 c 128,-1,41
 23 251 23 251 37 336 c 1,42,-1
 37 336 l 1,0,1
EndSplineSet
EndChar

StartChar: H
Encoding: 72 72 21
Width: 695
GlyphClass: 1
Flags: W
LayerCount: 2
Fore
SplineSet
-23 0 m 1,0,-1
 119 668 l 1,1,-1
 279 668 l 1,2,-1
 226 413 l 1,3,-1
 502 413 l 1,4,-1
 556 668 l 1,5,-1
 717 668 l 1,6,-1
 575 0 l 1,7,-1
 414 0 l 1,8,-1
 472 274 l 1,9,-1
 197 274 l 1,10,-1
 138 0 l 1,11,-1
 -23 0 l 1,0,-1
EndSplineSet
EndChar

StartChar: I
Encoding: 73 73 22
Width: 459
GlyphClass: 1
Flags: W
LayerCount: 2
Fore
SplineSet
13 124 m 1,0,-1
 105 124 l 1,1,-1
 195 544 l 1,2,-1
 103 544 l 1,3,-1
 129 668 l 1,4,-1
 474 668 l 1,5,-1
 447 544 l 1,6,-1
 355 544 l 1,7,-1
 267 124 l 1,8,-1
 358 124 l 1,9,-1
 331 0 l 1,10,-1
 -13 0 l 1,11,-1
 13 124 l 1,0,-1
EndSplineSet
EndChar

StartChar: J
Encoding: 74 74 23
Width: 566
GlyphClass: 1
Flags: W
LayerCount: 2
Fore
SplineSet
129 228 m 1,0,1
 124 177 124 177 139.5 146 c 128,-1,2
 155 115 155 115 206 113 c 0,3,4
 235 112 235 112 256 119 c 128,-1,5
 277 126 277 126 292.5 143 c 128,-1,6
 308 160 308 160 319 187.5 c 128,-1,7
 330 215 330 215 339 256 c 2,8,-1
 426 668 l 1,9,-1
 588 668 l 1,10,-1
 500 256 l 2,11,12
 484 178 484 178 457 126.5 c 128,-1,13
 430 75 430 75 392 44.5 c 128,-1,14
 354 14 354 14 305 1 c 128,-1,15
 256 -12 256 -12 195 -12 c 0,16,17
 144 -12 144 -12 103.5 2.5 c 128,-1,18
 63 17 63 17 34.5 42.5 c 128,-1,19
 6 68 6 68 -10 102 c 128,-1,20
 -26 136 -26 136 -28 176 c 1,21,-1
 129 228 l 1,22,-1
 129 228 l 1,0,1
EndSplineSet
EndChar

StartChar: K
Encoding: 75 75 24
Width: 657
GlyphClass: 1
Flags: W
LayerCount: 2
Fore
SplineSet
119 668 m 1,0,-1
 279 668 l 1,1,-1
 229 426 l 1,2,-1
 501 668 l 1,3,-1
 715 668 l 1,4,-1
 384 377 l 1,5,-1
 577 0 l 1,6,-1
 411 0 l 1,7,-1
 270 277 l 1,8,-1
 180 197 l 1,9,-1
 138 0 l 1,10,-1
 -23 0 l 1,11,-1
 119 668 l 1,0,-1
EndSplineSet
EndChar

StartChar: L
Encoding: 76 76 25
Width: 543
GlyphClass: 1
Flags: W
LayerCount: 2
Fore
SplineSet
488 139 m 1,0,-1
 458 0 l 1,1,-1
 -23 0 l 1,2,-1
 119 668 l 1,3,-1
 279 668 l 1,4,-1
 168 139 l 1,5,-1
 488 139 l 1,0,-1
EndSplineSet
EndChar

StartChar: M
Encoding: 77 77 26
Width: 858
GlyphClass: 1
Flags: W
LayerCount: 2
Fore
SplineSet
119 668 m 1,0,-1
 356 668 l 1,1,-1
 394 193 l 1,2,-1
 635 668 l 1,3,-1
 880 668 l 1,4,-1
 737 0 l 1,5,-1
 581 0 l 1,6,-1
 690 510 l 1,7,-1
 426 0 l 1,8,-1
 294 0 l 1,9,-1
 247 533 l 1,10,-1
 134 0 l 1,11,-1
 -23 0 l 1,12,-1
 119 668 l 1,0,-1
EndSplineSet
EndChar

StartChar: N
Encoding: 78 78 27
Width: 715
GlyphClass: 1
Flags: W
LayerCount: 2
Fore
SplineSet
-23 0 m 1,0,-1
 119 668 l 1,1,-1
 318 668 l 1,2,-1
 478 183 l 1,3,-1
 582 668 l 1,4,-1
 737 668 l 1,5,-1
 595 0 l 1,6,-1
 396 0 l 1,7,-1
 236 485 l 1,8,-1
 133 0 l 1,9,-1
 -23 0 l 1,0,-1
EndSplineSet
EndChar

StartChar: O
Encoding: 79 79 28
Width: 763
GlyphClass: 1
Flags: W
LayerCount: 2
Fore
SplineSet
35 321 m 1,0,1
 46 403 46 403 79.5 469 c 128,-1,2
 113 535 113 535 164.5 582 c 128,-1,3
 216 629 216 629 282.5 654.5 c 128,-1,4
 349 680 349 680 426 680 c 0,5,6
 500 680 500 680 559.5 658 c 128,-1,7
 619 636 619 636 659.5 593 c 128,-1,8
 700 550 700 550 719 488 c 128,-1,9
 738 426 738 426 729 345 c 0,10,11
 720 266 720 266 687.5 200.5 c 128,-1,12
 655 135 655 135 603 87.5 c 128,-1,13
 551 40 551 40 483 14 c 128,-1,14
 415 -12 415 -12 335 -12 c 0,15,16
 256 -12 256 -12 195.5 13 c 128,-1,17
 135 38 135 38 96.5 82 c 128,-1,18
 58 126 58 126 42 187 c 128,-1,19
 26 248 26 248 35 321 c 1,20,-1
 35 321 l 1,0,1
349 118 m 1,21,22
 391 118 391 118 427.5 135 c 128,-1,23
 464 152 464 152 492 182 c 128,-1,24
 520 212 520 212 538.5 254 c 128,-1,25
 557 296 557 296 562 345 c 0,26,27
 568 398 568 398 557 436.5 c 128,-1,28
 546 475 546 475 525 500.5 c 128,-1,29
 504 526 504 526 475 538 c 128,-1,30
 446 550 446 550 414 550 c 0,31,32
 378 550 378 550 343 535.5 c 128,-1,33
 308 521 308 521 279.5 492.5 c 128,-1,34
 251 464 251 464 231 421 c 128,-1,35
 211 378 211 378 203 321 c 0,36,37
 198 281 198 281 204.5 244.5 c 128,-1,38
 211 208 211 208 229 180 c 128,-1,39
 247 152 247 152 277 135 c 128,-1,40
 307 118 307 118 349 118 c 1,41,-1
 349 118 l 1,21,22
EndSplineSet
Substitution2: "Single Substitution lookup 0 subtable" ordmasculine
EndChar

StartChar: P
Encoding: 80 80 29
Width: 641
GlyphClass: 1
Flags: W
LayerCount: 2
Fore
SplineSet
119 668 m 1,0,-1
 379 668 l 2,1,2
 461 668 461 668 514 652 c 128,-1,3
 567 636 567 636 596.5 607 c 128,-1,4
 626 578 626 578 634 536 c 128,-1,5
 642 494 642 494 635 443 c 0,6,7
 628 395 628 395 605.5 356.5 c 128,-1,8
 583 318 583 318 542.5 290 c 128,-1,9
 502 262 502 262 443 247 c 128,-1,10
 384 232 384 232 304 232 c 2,11,-1
 187 232 l 1,12,-1
 138 0 l 1,13,-1
 -23 0 l 1,14,-1
 119 668 l 1,15,-1
 119 668 l 1,0,-1
319 363 m 1,16,17
 453 363 453 363 468 450 c 0,18,19
 476 493 476 493 448.5 514 c 128,-1,20
 421 535 421 535 355 535 c 2,21,-1
 252 535 l 1,22,-1
 216 363 l 1,23,-1
 319 363 l 1,24,-1
 319 363 l 1,16,17
EndSplineSet
EndChar

StartChar: Q
Encoding: 81 81 30
Width: 774
GlyphClass: 1
Flags: W
LayerCount: 2
Fore
SplineSet
40 346 m 1,0,1
 51 429 51 429 84.5 495.5 c 128,-1,2
 118 562 118 562 169.5 608.5 c 128,-1,3
 221 655 221 655 287.5 680.5 c 128,-1,4
 354 706 354 706 431 706 c 0,5,6
 505 706 505 706 564.5 684 c 128,-1,7
 624 662 624 662 665 619 c 128,-1,8
 706 576 706 576 724.5 514 c 128,-1,9
 743 452 743 452 734 371 c 0,10,11
 726 297 726 297 697 235.5 c 128,-1,12
 668 174 668 174 622 127 c 1,13,-1
 709 25 l 1,14,-1
 617 -55 l 1,15,-1
 523 56 l 1,16,17
 482 36 482 36 436.5 25 c 128,-1,18
 391 14 391 14 340 14 c 0,19,20
 261 14 261 14 200.5 39 c 128,-1,21
 140 64 140 64 101.5 108 c 128,-1,22
 63 152 63 152 47 213 c 128,-1,23
 31 274 31 274 40 346 c 1,24,-1
 40 346 l 1,0,1
354 145 m 1,25,26
 396 145 396 145 433 162 c 1,27,-1
 330 285 l 1,28,-1
 421 363 l 1,29,-1
 524 243 l 1,30,31
 541 270 541 270 552 302.5 c 128,-1,32
 563 335 563 335 567 371 c 0,33,34
 573 424 573 424 562 463 c 128,-1,35
 551 502 551 502 530 527 c 128,-1,36
 509 552 509 552 480 564 c 128,-1,37
 451 576 451 576 419 576 c 0,38,39
 383 576 383 576 348 561.5 c 128,-1,40
 313 547 313 547 284.5 518.5 c 128,-1,41
 256 490 256 490 235.5 446.5 c 128,-1,42
 215 403 215 403 208 346 c 0,43,44
 203 307 203 307 209.5 270.5 c 128,-1,45
 216 234 216 234 234 206.5 c 128,-1,46
 252 179 252 179 282 162 c 128,-1,47
 312 145 312 145 354 145 c 1,48,-1
 354 145 l 1,25,26
EndSplineSet
EndChar

StartChar: R
Encoding: 82 82 31
Width: 644
GlyphClass: 1
Flags: W
LayerCount: 2
Fore
SplineSet
119 668 m 1,0,-1
 369 668 l 2,1,2
 434 668 434 668 485 657 c 128,-1,3
 536 646 536 646 570 621 c 128,-1,4
 604 596 604 596 619.5 557 c 128,-1,5
 635 518 635 518 629 461 c 0,6,7
 625 424 625 424 613 392.5 c 128,-1,8
 601 361 601 361 577 336.5 c 128,-1,9
 553 312 553 312 514.5 294.5 c 128,-1,10
 476 277 476 277 420 269 c 1,11,-1
 557 0 l 1,12,-1
 391 0 l 1,13,-1
 263 252 l 1,14,-1
 192 252 l 1,15,-1
 138 0 l 1,16,-1
 -23 0 l 1,17,-1
 119 668 l 1,18,-1
 119 668 l 1,0,-1
220 384 m 1,19,-1
 323 384 l 2,20,21
 351 384 351 384 375 387 c 128,-1,22
 399 390 399 390 417 398 c 128,-1,23
 435 406 435 406 447 420.5 c 128,-1,24
 459 435 459 435 462 459 c 0,25,26
 465 482 465 482 458 497 c 128,-1,27
 451 512 451 512 435.5 520.5 c 128,-1,28
 420 529 420 529 397 532 c 128,-1,29
 374 535 374 535 346 535 c 2,30,-1
 252 535 l 1,31,-1
 220 384 l 1,32,-1
 220 384 l 1,19,-1
EndSplineSet
EndChar

StartChar: S
Encoding: 83 83 32
Width: 642
GlyphClass: 1
Flags: W
LayerCount: 2
Fore
SplineSet
10 157 m 1,0,-1
 165 209 l 1,1,2
 171 184 171 184 186 166 c 128,-1,3
 201 148 201 148 221 136.5 c 128,-1,4
 241 125 241 125 265 119.5 c 128,-1,5
 289 114 289 114 313 114 c 0,6,7
 335 114 335 114 355 118.5 c 128,-1,8
 375 123 375 123 390.5 131 c 128,-1,9
 406 139 406 139 415 151.5 c 128,-1,10
 424 164 424 164 424 179 c 0,11,12
 424 210 424 210 395 228 c 128,-1,13
 366 246 366 246 323.5 260.5 c 128,-1,14
 281 275 281 275 231.5 291 c 128,-1,15
 182 307 182 307 142 332.5 c 128,-1,16
 102 358 102 358 78.5 399 c 128,-1,17
 55 440 55 440 63 504 c 0,18,19
 69 549 69 549 94.5 582.5 c 128,-1,20
 120 616 120 616 158.5 637.5 c 128,-1,21
 197 659 197 659 244.5 669.5 c 128,-1,22
 292 680 292 680 341 680 c 0,23,24
 378 680 378 680 416 672.5 c 128,-1,25
 454 665 454 665 489.5 648 c 128,-1,26
 525 631 525 631 555 603.5 c 128,-1,27
 585 576 585 576 606 535 c 1,28,-1
 451 483 l 1,29,30
 438 518 438 518 402 534.5 c 128,-1,31
 366 551 366 551 329 551 c 0,32,33
 278 551 278 551 251 534.5 c 128,-1,34
 224 518 224 518 224 492 c 0,35,36
 224 468 224 468 240.5 452.5 c 128,-1,37
 257 437 257 437 283.5 425.5 c 128,-1,38
 310 414 310 414 344 404.5 c 128,-1,39
 378 395 378 395 413 384 c 128,-1,40
 448 373 448 373 481 358 c 128,-1,41
 514 343 514 343 539 320.5 c 128,-1,42
 564 298 564 298 577.5 265.5 c 128,-1,43
 591 233 591 233 587 187 c 0,44,45
 583 138 583 138 558 100.5 c 128,-1,46
 533 63 533 63 494.5 38 c 128,-1,47
 456 13 456 13 407 0.5 c 128,-1,48
 358 -12 358 -12 306 -12 c 0,49,50
 197 -12 197 -12 119 32.5 c 128,-1,51
 41 77 41 77 10 157 c 1,52,-1
 10 157 l 1,0,-1
EndSplineSet
EndChar

StartChar: T
Encoding: 84 84 33
Width: 617
GlyphClass: 1
Flags: W
LayerCount: 2
Fore
SplineSet
57 529 m 1,0,-1
 87 668 l 1,1,-1
 673 668 l 1,2,-1
 644 529 l 1,3,-1
 430 529 l 1,4,-1
 319 0 l 1,5,-1
 158 0 l 1,6,-1
 270 529 l 1,7,-1
 57 529 l 1,0,-1
EndSplineSet
EndChar

StartChar: U
Encoding: 85 85 34
Width: 676
GlyphClass: 1
Flags: W
LayerCount: 2
Fore
SplineSet
39 292 m 1,0,-1
 120 668 l 1,1,-1
 281 668 l 1,2,-1
 198 279 l 2,3,4
 191 244 191 244 188.5 214.5 c 128,-1,5
 186 185 186 185 195 163 c 128,-1,6
 204 141 204 141 227 129 c 128,-1,7
 250 117 250 117 294 117 c 0,8,9
 335 117 335 117 362.5 128.5 c 128,-1,10
 390 140 390 140 408.5 161 c 128,-1,11
 427 182 427 182 438 212 c 128,-1,12
 449 242 449 242 457 279 c 2,13,-1
 540 668 l 1,14,-1
 701 668 l 1,15,-1
 621 292 l 2,16,17
 601 198 601 198 571 139 c 128,-1,18
 541 80 541 80 497.5 46.5 c 128,-1,19
 454 13 454 13 397 0.5 c 128,-1,20
 340 -12 340 -12 266 -12 c 0,21,22
 179 -12 179 -12 127.5 12 c 128,-1,23
 76 36 76 36 52 77.5 c 128,-1,24
 28 119 28 119 27 174.5 c 128,-1,25
 26 230 26 230 39 292 c 1,26,-1
 39 292 l 1,0,-1
EndSplineSet
EndChar

StartChar: V
Encoding: 86 86 35
Width: 662
GlyphClass: 1
Flags: W
LayerCount: 2
Fore
SplineSet
82 668 m 1,0,-1
 240 668 l 1,1,-1
 289 177 l 1,2,-1
 546 668 l 1,3,-1
 724 668 l 1,4,-1
 356 0 l 1,5,-1
 166 0 l 1,6,-1
 82 668 l 1,0,-1
EndSplineSet
EndChar

StartChar: W
Encoding: 87 87 36
Width: 889
GlyphClass: 1
Flags: W
LayerCount: 2
Fore
SplineSet
82 668 m 1,0,-1
 235 668 l 1,1,-1
 230 222 l 1,2,-1
 419 668 l 1,3,-1
 588 668 l 1,4,-1
 588 205 l 1,5,-1
 783 668 l 1,6,-1
 951 668 l 1,7,-1
 648 0 l 1,8,-1
 468 0 l 1,9,-1
 468 470 l 1,10,-1
 266 0 l 1,11,-1
 101 0 l 1,12,-1
 82 668 l 1,0,-1
EndSplineSet
EndChar

StartChar: X
Encoding: 88 88 37
Width: 706
GlyphClass: 1
Flags: W
LayerCount: 2
Fore
SplineSet
-60 0 m 1,0,-1
 270 356 l 1,1,-1
 115 668 l 1,2,-1
 286 668 l 1,3,-1
 382 477 l 1,4,-1
 558 668 l 1,5,-1
 768 668 l 1,6,-1
 456 331 l 1,7,-1
 621 0 l 1,8,-1
 448 0 l 1,9,-1
 343 210 l 1,10,-1
 151 0 l 1,11,-1
 -60 0 l 1,0,-1
EndSplineSet
EndChar

StartChar: Y
Encoding: 89 89 38
Width: 700
GlyphClass: 1
Flags: W
LayerCount: 2
Fore
SplineSet
82 668 m 1,0,-1
 253 668 l 1,1,-1
 339 391 l 1,2,-1
 558 668 l 1,3,-1
 762 668 l 1,4,-1
 404 241 l 1,5,-1
 354 0 l 1,6,-1
 191 0 l 1,7,-1
 242 241 l 1,8,-1
 82 668 l 1,0,-1
EndSplineSet
EndChar

StartChar: Z
Encoding: 90 90 39
Width: 632
GlyphClass: 1
Flags: W
LayerCount: 2
Fore
SplineSet
221 139 m 1,0,-1
 560 139 l 1,1,-1
 530 0 l 1,2,-1
 -38 0 l 1,3,-1
 -12 121 l 1,4,-1
 411 529 l 1,5,-1
 100 529 l 1,6,-1
 130 668 l 1,7,-1
 668 668 l 1,8,-1
 642 547 l 1,9,-1
 221 139 l 1,0,-1
EndSplineSet
EndChar

StartChar: a
Encoding: 97 97 40
Width: 541
GlyphClass: 1
Flags: W
LayerCount: 2
Fore
SplineSet
-22 123 m 1,0,1
 -20 177 -20 177 13 211.5 c 128,-1,2
 46 246 46 246 97.5 267 c 128,-1,3
 149 288 149 288 211.5 298.5 c 128,-1,4
 274 309 274 309 334 315 c 1,5,-1
 337 328 l 2,6,7
 347 372 347 372 328 389.5 c 128,-1,8
 309 407 309 407 268 407 c 0,9,10
 236 407 236 407 208 392.5 c 128,-1,11
 180 378 180 378 166 348 c 1,12,-1
 49 394 l 1,13,14
 87 453 87 453 145.5 481.5 c 128,-1,15
 204 510 204 510 289 510 c 0,16,17
 339 510 339 510 380 497 c 128,-1,18
 421 484 421 484 448 458 c 128,-1,19
 475 432 475 432 485.5 393 c 128,-1,20
 496 354 496 354 484 302 c 0,21,22
 482 292 482 292 479 277.5 c 128,-1,23
 476 263 476 263 472.5 247.5 c 128,-1,24
 469 232 469 232 466 217.5 c 128,-1,25
 463 203 463 203 461 193 c 0,26,27
 456 169 456 169 451.5 141.5 c 128,-1,28
 447 114 447 114 444 88 c 128,-1,29
 441 62 441 62 439 39 c 128,-1,30
 437 16 437 16 437 0 c 1,31,-1
 293 0 l 1,32,-1
 288 59 l 1,33,34
 254 18 254 18 216.5 3 c 128,-1,35
 179 -12 179 -12 126 -12 c 0,36,37
 97 -12 97 -12 69.5 -2.5 c 128,-1,38
 42 7 42 7 21.5 24 c 128,-1,39
 1 41 1 41 -11 66.5 c 128,-1,40
 -23 92 -23 92 -22 123 c 1,41,-1
 -22 123 l 1,0,1
204 91 m 1,42,43
 245 91 245 91 274 117.5 c 128,-1,44
 303 144 303 144 321 213 c 2,45,-1
 324 225 l 1,46,47
 243 218 243 218 193.5 200 c 128,-1,48
 144 182 144 182 139 144 c 0,49,50
 136 119 136 119 155.5 105 c 128,-1,51
 175 91 175 91 204 91 c 1,52,-1
 204 91 l 1,42,43
EndSplineSet
Substitution2: "Single Substitution lookup 0 subtable" ordfeminine
EndChar

StartChar: b
Encoding: 98 98 41
Width: 593
GlyphClass: 1
Flags: W
LayerCount: 2
Fore
SplineSet
122 667 m 1,0,-1
 277 667 l 1,1,-1
 228 436 l 1,2,3
 256 474 256 474 295 492 c 128,-1,4
 334 510 334 510 374 510 c 0,5,6
 416 510 416 510 452 493.5 c 128,-1,7
 488 477 488 477 513 444 c 128,-1,8
 538 411 538 411 549 362.5 c 128,-1,9
 560 314 560 314 551 251 c 0,10,11
 543 190 543 190 519.5 141 c 128,-1,12
 496 92 496 92 462 58 c 128,-1,13
 428 24 428 24 385 6 c 128,-1,14
 342 -12 342 -12 294 -12 c 0,15,16
 252 -12 252 -12 214.5 6 c 128,-1,17
 177 24 177 24 150 66 c 1,18,-1
 116 0 l 1,19,-1
 -20 0 l 1,20,-1
 122 667 l 1,21,-1
 122 667 l 1,0,-1
267 105 m 1,22,23
 313 105 313 105 350.5 142.5 c 128,-1,24
 388 180 388 180 395 251 c 0,25,26
 400 314 400 314 379.5 353 c 128,-1,27
 359 392 359 392 311 392 c 0,28,29
 295 392 295 392 276 387 c 128,-1,30
 257 382 257 382 239 367.5 c 128,-1,31
 221 353 221 353 205.5 326 c 128,-1,32
 190 299 190 299 181 255 c 0,33,34
 173 217 173 217 177 188.5 c 128,-1,35
 181 160 181 160 193.5 141.5 c 128,-1,36
 206 123 206 123 225.5 114 c 128,-1,37
 245 105 245 105 267 105 c 1,38,-1
 267 105 l 1,22,23
EndSplineSet
EndChar

StartChar: c
Encoding: 99 99 42
Width: 531
GlyphClass: 1
Flags: W
LayerCount: 2
Fore
SplineSet
7 250 m 1,0,1
 18 310 18 310 45 358.5 c 128,-1,2
 72 407 72 407 112 440.5 c 128,-1,3
 152 474 152 474 204 492 c 128,-1,4
 256 510 256 510 316 510 c 0,5,6
 348 510 348 510 377.5 503.5 c 128,-1,7
 407 497 407 497 432 482 c 128,-1,8
 457 467 457 467 477.5 442.5 c 128,-1,9
 498 418 498 418 511 382 c 1,10,-1
 378 336 l 1,11,12
 370 368 370 368 349.5 380 c 128,-1,13
 329 392 329 392 299 392 c 0,14,15
 279 392 279 392 258 384.5 c 128,-1,16
 237 377 237 377 218 360 c 128,-1,17
 199 343 199 343 184.5 316 c 128,-1,18
 170 289 170 289 162 249 c 256,19,20
 154 209 154 209 157 181.5 c 128,-1,21
 160 154 160 154 171 137 c 128,-1,22
 182 120 182 120 199 112.5 c 128,-1,23
 216 105 216 105 236 105 c 0,24,25
 268 105 268 105 293 115 c 128,-1,26
 318 125 318 125 341 154 c 1,27,-1
 464 107 l 1,28,29
 440 73 440 73 411.5 50.5 c 128,-1,30
 383 28 383 28 351.5 14 c 128,-1,31
 320 0 320 0 287.5 -6 c 128,-1,32
 255 -12 255 -12 223 -12 c 0,33,34
 163 -12 163 -12 117.5 7.5 c 128,-1,35
 72 27 72 27 44 62 c 128,-1,36
 16 97 16 97 6 145 c 128,-1,37
 -4 193 -4 193 7 250 c 1,38,-1
 7 250 l 1,0,1
EndSplineSet
EndChar

StartChar: d
Encoding: 100 100 43
Width: 592
GlyphClass: 1
Flags: W
LayerCount: 2
Fore
SplineSet
9 255 m 1,0,1
 19 314 19 314 42 361.5 c 128,-1,2
 65 409 65 409 98.5 442 c 128,-1,3
 132 475 132 475 174.5 492.5 c 128,-1,4
 217 510 217 510 266 510 c 0,5,6
 314 510 314 510 351.5 486.5 c 128,-1,7
 389 463 389 463 405 421 c 1,8,-1
 458 667 l 1,9,-1
 613 667 l 1,10,11
 591 566 591 566 571 474 c 0,12,13
 563 435 563 435 554.5 395 c 128,-1,14
 546 355 546 355 538 317.5 c 128,-1,15
 530 280 530 280 523.5 247.5 c 128,-1,16
 517 215 517 215 512 193 c 0,17,18
 504 155 504 155 496.5 104.5 c 128,-1,19
 489 54 489 54 488 0 c 1,20,-1
 339 0 l 1,21,-1
 334 63 l 1,22,23
 302 22 302 22 264.5 5 c 128,-1,24
 227 -12 227 -12 187 -12 c 0,25,26
 139 -12 139 -12 101.5 7 c 128,-1,27
 64 26 64 26 40 60.5 c 128,-1,28
 16 95 16 95 7 144.5 c 128,-1,29
 -2 194 -2 194 9 255 c 1,30,-1
 9 255 l 1,0,1
251 105 m 1,31,32
 296 105 296 105 332.5 144 c 128,-1,33
 369 183 369 183 380 261 c 0,34,35
 385 297 385 297 378.5 322 c 128,-1,36
 372 347 372 347 358.5 362.5 c 128,-1,37
 345 378 345 378 327.5 385 c 128,-1,38
 310 392 310 392 293 392 c 0,39,40
 247 392 247 392 213.5 361.5 c 128,-1,41
 180 331 180 331 167 265 c 0,42,43
 161 234 161 234 162.5 205 c 128,-1,44
 164 176 164 176 174 154 c 128,-1,45
 184 132 184 132 203 118.5 c 128,-1,46
 222 105 222 105 251 105 c 1,47,-1
 251 105 l 1,31,32
EndSplineSet
EndChar

StartChar: e
Encoding: 101 101 44
Width: 567
GlyphClass: 1
Flags: W
LayerCount: 2
Fore
SplineSet
7 248 m 1,0,1
 15 298 15 298 38 345.5 c 128,-1,2
 61 393 61 393 99 429.5 c 128,-1,3
 137 466 137 466 189 488 c 128,-1,4
 241 510 241 510 307 510 c 0,5,6
 372 510 372 510 419 488 c 128,-1,7
 466 466 466 466 494 426.5 c 128,-1,8
 522 387 522 387 528.5 331.5 c 128,-1,9
 535 276 535 276 519 209 c 1,10,-1
 154 209 l 1,11,12
 149 181 149 181 156 161.5 c 128,-1,13
 163 142 163 142 177 129.5 c 128,-1,14
 191 117 191 117 211 111.5 c 128,-1,15
 231 106 231 106 253 106 c 0,16,17
 284 106 284 106 312.5 115.5 c 128,-1,18
 341 125 341 125 358 142 c 1,19,-1
 472 98 l 1,20,21
 429 44 429 44 367 16 c 128,-1,22
 305 -12 305 -12 229 -12 c 0,23,24
 170 -12 170 -12 124.5 5.5 c 128,-1,25
 79 23 79 23 50 56.5 c 128,-1,26
 21 90 21 90 9.5 138.5 c 128,-1,27
 -2 187 -2 187 7 248 c 1,28,-1
 7 248 l 1,0,1
168 299 m 1,29,-1
 395 299 l 1,30,31
 400 349 400 349 371.5 374 c 128,-1,32
 343 399 343 399 302 399 c 0,33,34
 282 399 282 399 261 392.5 c 128,-1,35
 240 386 240 386 222 373.5 c 128,-1,36
 204 361 204 361 189.5 342.5 c 128,-1,37
 175 324 175 324 168 299 c 1,38,-1
 168 299 l 1,29,-1
EndSplineSet
EndChar

StartChar: f
Encoding: 102 102 45
Width: 379
GlyphClass: 1
Flags: W
LayerCount: 2
Fore
SplineSet
99 380 m 1,0,-1
 19 380 l 1,1,-1
 43 496 l 1,2,-1
 124 496 l 1,3,-1
 137 558 l 2,4,5
 150 610 150 610 164.5 643 c 128,-1,6
 179 676 179 676 203 694.5 c 128,-1,7
 227 713 227 713 266 720 c 128,-1,8
 305 727 305 727 366 727 c 2,9,-1
 434 727 l 1,10,-1
 409 608 l 1,11,-1
 368 608 l 2,12,13
 345 608 345 608 331.5 605.5 c 128,-1,14
 318 603 318 603 309.5 594.5 c 128,-1,15
 301 586 301 586 296 570 c 128,-1,16
 291 554 291 554 285 527 c 0,17,18
 283 520 283 520 281.5 512.5 c 128,-1,19
 280 505 280 505 278 496 c 1,20,-1
 385 496 l 1,21,-1
 360 380 l 1,22,-1
 253 380 l 1,23,24
 240 318 240 318 226 251.5 c 128,-1,25
 212 185 212 185 200 128 c 0,26,27
 186 63 186 63 173 0 c 1,28,-1
 18 0 l 1,29,-1
 99 380 l 1,30,-1
 99 380 l 1,0,-1
EndSplineSet
EndChar

StartChar: g
Encoding: 103 103 46
Width: 595
GlyphClass: 1
Flags: W
LayerCount: 2
Fore
SplineSet
113 -41 m 1,0,1
 120 -64 120 -64 144 -76 c 128,-1,2
 168 -88 168 -88 197 -88 c 0,3,4
 217 -88 217 -88 236.5 -82.5 c 128,-1,5
 256 -77 256 -77 273 -65.5 c 128,-1,6
 290 -54 290 -54 302.5 -36 c 128,-1,7
 315 -18 315 -18 320 6 c 0,8,9
 322 14 322 14 325 28 c 128,-1,10
 328 42 328 42 331 56 c 0,11,12
 334 73 334 73 338 91 c 1,13,14
 306 53 306 53 267.5 35 c 128,-1,15
 229 17 229 17 188 17 c 0,16,17
 149 17 149 17 113 33.5 c 128,-1,18
 77 50 77 50 51.5 81 c 128,-1,19
 26 112 26 112 13.5 156.5 c 128,-1,20
 1 201 1 201 10 258 c 0,21,22
 20 324 20 324 46 371.5 c 128,-1,23
 72 419 72 419 107 450 c 128,-1,24
 142 481 142 481 183 496 c 128,-1,25
 224 511 224 511 263 511 c 0,26,27
 311 511 311 511 350.5 490 c 128,-1,28
 390 469 390 469 410 429 c 1,29,-1
 444 496 l 1,30,-1
 578 496 l 1,31,32
 557 394 557 394 537 302 c 0,33,34
 529 263 529 263 520.5 222 c 128,-1,35
 512 181 512 181 504 143 c 128,-1,36
 496 105 496 105 489 73 c 128,-1,37
 482 41 482 41 477 18 c 0,38,39
 463 -42 463 -42 434 -84.5 c 128,-1,40
 405 -127 405 -127 366.5 -154.5 c 128,-1,41
 328 -182 328 -182 283.5 -194.5 c 128,-1,42
 239 -207 239 -207 195 -207 c 0,43,44
 158 -207 158 -207 122.5 -198.5 c 128,-1,45
 87 -190 87 -190 58 -174 c 128,-1,46
 29 -158 29 -158 8.5 -135.5 c 128,-1,47
 -12 -113 -12 -113 -21 -85 c 1,48,-1
 113 -41 l 1,49,-1
 113 -41 l 1,0,1
248 131 m 1,50,51
 293 131 293 131 330 160.5 c 128,-1,52
 367 190 367 190 381 263 c 0,53,54
 387 296 387 296 383.5 321 c 128,-1,55
 380 346 380 346 368 362.5 c 128,-1,56
 356 379 356 379 338 387 c 128,-1,57
 320 395 320 395 297 395 c 0,58,59
 251 395 251 395 214.5 364 c 128,-1,60
 178 333 178 333 168 266 c 0,61,62
 158 203 158 203 182 167 c 128,-1,63
 206 131 206 131 248 131 c 1,64,-1
 248 131 l 1,50,51
EndSplineSet
EndChar

StartChar: h
Encoding: 104 104 47
Width: 581
GlyphClass: 1
Flags: W
LayerCount: 2
Fore
SplineSet
-20 0 m 1,0,-1
 122 668 l 1,1,-1
 273 668 l 1,2,-1
 223 432 l 1,3,4
 234 446 234 446 250 460 c 128,-1,5
 266 474 266 474 287.5 485 c 128,-1,6
 309 496 309 496 336.5 503 c 128,-1,7
 364 510 364 510 397 510 c 0,8,9
 433 510 433 510 461.5 497.5 c 128,-1,10
 490 485 490 485 507.5 457 c 128,-1,11
 525 429 525 429 528.5 386 c 128,-1,12
 532 343 532 343 519 281 c 2,13,-1
 459 0 l 1,14,-1
 303 0 l 1,15,-1
 359 263 l 2,16,17
 374 332 374 332 362.5 362 c 128,-1,18
 351 392 351 392 312 392 c 0,19,20
 217 392 217 392 190 254 c 2,21,-1
 136 0 l 1,22,-1
 -20 0 l 1,23,-1
 -20 0 l 1,0,-1
EndSplineSet
EndChar

StartChar: i
Encoding: 105 105 48
Width: 326
GlyphClass: 1
Flags: W
LayerCount: 2
Fore
SplineSet
177 668 m 1,0,1
 177 705 177 705 202.5 731 c 128,-1,2
 228 757 228 757 266 757 c 256,3,4
 304 757 304 757 330 731 c 128,-1,5
 356 705 356 705 356 668 c 256,6,7
 356 631 356 631 330 604.5 c 128,-1,8
 304 578 304 578 266 578 c 256,9,10
 228 578 228 578 202.5 604.5 c 128,-1,11
 177 631 177 631 177 668 c 1,12,-1
 177 668 l 1,0,1
51 496 m 1,13,-1
 309 496 l 1,14,-1
 204 0 l 1,15,-1
 48 0 l 1,16,-1
 129 380 l 1,17,-1
 26 380 l 1,18,-1
 51 496 l 1,13,-1
EndSplineSet
EndChar

StartChar: j
Encoding: 106 106 49
Width: 263
GlyphClass: 1
Flags: W
LayerCount: 2
Fore
SplineSet
-174 -162 m 1,0,-1
 -148 -42 l 1,1,-1
 -87 -42 l 2,2,3
 -64 -42 -64 -42 -50 -39 c 128,-1,4
 -36 -36 -36 -36 -27.5 -27 c 128,-1,5
 -19 -18 -19 -18 -14 -2 c 128,-1,6
 -9 14 -9 14 -4 39 c 0,7,8
 1 63 1 63 8 95 c 128,-1,9
 15 127 15 127 23 163.5 c 128,-1,10
 31 200 31 200 39 238.5 c 128,-1,11
 47 277 47 277 55 314 c 0,12,13
 73 401 73 401 93 496 c 1,14,-1
 249 496 l 1,15,-1
 145 8 l 2,16,17
 130 -50 130 -50 113.5 -84 c 128,-1,18
 97 -118 97 -118 72 -135 c 128,-1,19
 47 -152 47 -152 9.5 -157 c 128,-1,20
 -28 -162 -28 -162 -85 -162 c 2,21,-1
 -174 -162 l 1,22,-1
 -174 -162 l 1,0,-1
116 668 m 1,23,24
 116 706 116 706 142 732 c 128,-1,25
 168 758 168 758 206 758 c 0,26,27
 243 758 243 758 269.5 732 c 128,-1,28
 296 706 296 706 296 668 c 0,29,30
 296 631 296 631 269.5 604.5 c 128,-1,31
 243 578 243 578 206 578 c 0,32,33
 168 578 168 578 142 604.5 c 128,-1,34
 116 631 116 631 116 668 c 1,35,-1
 116 668 l 1,23,24
EndSplineSet
EndChar

StartChar: k
Encoding: 107 107 50
Width: 563
GlyphClass: 1
Flags: W
LayerCount: 2
Fore
SplineSet
-20 0 m 1,0,-1
 122 668 l 1,1,-1
 277 668 l 1,2,-1
 204 327 l 1,3,-1
 389 496 l 1,4,-1
 587 496 l 1,5,-1
 343 283 l 1,6,-1
 488 0 l 1,7,-1
 325 0 l 1,8,-1
 230 184 l 1,9,-1
 162 124 l 1,10,-1
 136 0 l 1,11,-1
 -20 0 l 1,0,-1
EndSplineSet
EndChar

StartChar: l
Encoding: 108 108 51
Width: 318
GlyphClass: 1
Flags: W
LayerCount: 2
Fore
SplineSet
10 140 m 1,0,-1
 122 668 l 1,1,-1
 278 668 l 1,2,-1
 180 204 l 2,3,4
 176 185 176 185 173.5 170 c 128,-1,5
 171 155 171 155 175 144.5 c 128,-1,6
 179 134 179 134 191 129 c 128,-1,7
 203 124 203 124 228 124 c 2,8,-1
 271 124 l 1,9,-1
 245 0 l 1,10,-1
 148 0 l 2,11,12
 110 0 110 0 80.5 7 c 128,-1,13
 51 14 51 14 32.5 30.5 c 128,-1,14
 14 47 14 47 8 73.5 c 128,-1,15
 2 100 2 100 10 140 c 1,16,-1
 10 140 l 1,0,-1
EndSplineSet
EndChar

StartChar: m
Encoding: 109 109 52
Width: 895
GlyphClass: 1
Flags: W
LayerCount: 2
Fore
SplineSet
85 496 m 1,0,-1
 221 496 l 1,1,-1
 226 432 l 1,2,3
 237 446 237 446 252.5 460 c 128,-1,4
 268 474 268 474 288 485 c 128,-1,5
 308 496 308 496 332 503 c 128,-1,6
 356 510 356 510 384 510 c 0,7,8
 444 510 444 510 476.5 489.5 c 128,-1,9
 509 469 509 469 523 427 c 1,10,11
 559 471 559 471 603.5 490.5 c 128,-1,12
 648 510 648 510 701 510 c 0,13,14
 749 510 749 510 780 494.5 c 128,-1,15
 811 479 811 479 827 450.5 c 128,-1,16
 843 422 843 422 844.5 381.5 c 128,-1,17
 846 341 846 341 835 290 c 2,18,-1
 773 0 l 1,19,-1
 617 0 l 1,20,-1
 673 263 l 2,21,22
 681 299 681 299 683 324 c 128,-1,23
 685 349 685 349 680 364 c 128,-1,24
 675 379 675 379 662.5 385.5 c 128,-1,25
 650 392 650 392 628 392 c 0,26,27
 537 392 537 392 509 261 c 2,28,-1
 454 0 l 1,29,-1
 298 0 l 1,30,-1
 354 263 l 2,31,32
 362 301 362 301 363 326 c 128,-1,33
 364 351 364 351 358 365.5 c 128,-1,34
 352 380 352 380 339.5 386 c 128,-1,35
 327 392 327 392 309 392 c 0,36,37
 262 392 262 392 233.5 358 c 128,-1,38
 205 324 205 324 191 258 c 2,39,-1
 136 0 l 1,40,-1
 -20 0 l 1,41,-1
 85 496 l 1,42,-1
 85 496 l 1,0,-1
EndSplineSet
EndChar

StartChar: n
Encoding: 110 110 53
Width: 581
GlyphClass: 1
Flags: W
LayerCount: 2
Fore
SplineSet
-20 0 m 1,0,-1
 85 496 l 1,1,-1
 221 496 l 1,2,-1
 226 432 l 1,3,4
 237 446 237 446 252.5 460 c 128,-1,5
 268 474 268 474 289 485 c 128,-1,6
 310 496 310 496 337 503 c 128,-1,7
 364 510 364 510 397 510 c 0,8,9
 433 510 433 510 461.5 497.5 c 128,-1,10
 490 485 490 485 507.5 457 c 128,-1,11
 525 429 525 429 528.5 386 c 128,-1,12
 532 343 532 343 519 281 c 2,13,-1
 459 0 l 1,14,-1
 303 0 l 1,15,-1
 359 263 l 2,16,17
 374 332 374 332 362.5 362 c 128,-1,18
 351 392 351 392 312 392 c 0,19,20
 219 392 219 392 190 254 c 2,21,-1
 136 0 l 1,22,-1
 -20 0 l 1,23,-1
 -20 0 l 1,0,-1
EndSplineSet
EndChar

StartChar: o
Encoding: 111 111 54
Width: 576
GlyphClass: 1
Flags: W
LayerCount: 2
Fore
SplineSet
7 242 m 1,0,1
 16 314 16 314 44 364.5 c 128,-1,2
 72 415 72 415 112.5 447.5 c 128,-1,3
 153 480 153 480 202 495 c 128,-1,4
 251 510 251 510 302 510 c 0,5,6
 356 510 356 510 402 493.5 c 128,-1,7
 448 477 448 477 480.5 444.5 c 128,-1,8
 513 412 513 412 527.5 363 c 128,-1,9
 542 314 542 314 533 249 c 0,10,11
 522 168 522 168 488.5 117 c 128,-1,12
 455 66 455 66 412 37 c 128,-1,13
 369 8 369 8 323 -2.5 c 128,-1,14
 277 -13 277 -13 239 -13 c 0,15,16
 181 -13 181 -13 135 5 c 128,-1,17
 89 23 89 23 58 56.5 c 128,-1,18
 27 90 27 90 13.5 137 c 128,-1,19
 0 184 0 184 7 242 c 1,20,-1
 7 242 l 1,0,1
245 105 m 1,21,22
 277 105 277 105 300.5 118 c 128,-1,23
 324 131 324 131 340 151.5 c 128,-1,24
 356 172 356 172 365 198 c 128,-1,25
 374 224 374 224 378 249 c 0,26,27
 389 329 389 329 364 361 c 128,-1,28
 339 393 339 393 289 392 c 0,29,30
 244 391 244 391 210 359 c 128,-1,31
 176 327 176 327 163 249 c 0,32,33
 159 226 159 226 159 200.5 c 128,-1,34
 159 175 159 175 167.5 154 c 128,-1,35
 176 133 176 133 194 119 c 128,-1,36
 212 105 212 105 245 105 c 1,37,-1
 245 105 l 1,21,22
EndSplineSet
Substitution2: "Single Substitution lookup 0 subtable" ordmasculine
EndChar

StartChar: p
Encoding: 112 112 55
Width: 590
GlyphClass: 1
Flags: W
LayerCount: 2
Fore
SplineSet
85 496 m 1,0,-1
 219 496 l 1,1,-1
 225 428 l 1,2,3
 251 472 251 472 293 491 c 128,-1,4
 335 510 335 510 376 510 c 0,5,6
 421 510 421 510 456.5 491 c 128,-1,7
 492 472 492 472 515 438 c 128,-1,8
 538 404 538 404 547 357 c 128,-1,9
 556 310 556 310 548 254 c 0,10,11
 538 188 538 188 514 138.5 c 128,-1,12
 490 89 490 89 455.5 55 c 128,-1,13
 421 21 421 21 378 4 c 128,-1,14
 335 -13 335 -13 287 -13 c 0,15,16
 246 -13 246 -13 210 7 c 128,-1,17
 174 27 174 27 150 70 c 1,18,-1
 101 -161 l 1,19,-1
 -55 -161 l 1,20,-1
 85 496 l 1,21,-1
 85 496 l 1,0,-1
261 105 m 1,22,23
 290 105 290 105 312.5 116 c 128,-1,24
 335 127 335 127 351.5 146.5 c 128,-1,25
 368 166 368 166 378 191.5 c 128,-1,26
 388 217 388 217 392 247 c 0,27,28
 401 318 401 318 377.5 355 c 128,-1,29
 354 392 354 392 308 392 c 0,30,31
 260 392 260 392 226.5 358.5 c 128,-1,32
 193 325 193 325 179 256 c 0,33,34
 171 219 171 219 174.5 191 c 128,-1,35
 178 163 178 163 190 144 c 128,-1,36
 202 125 202 125 220.5 115 c 128,-1,37
 239 105 239 105 261 105 c 1,38,-1
 261 105 l 1,22,23
EndSplineSet
EndChar

StartChar: q
Encoding: 113 113 56
Width: 601
GlyphClass: 1
Flags: W
LayerCount: 2
Fore
SplineSet
5 228 m 1,0,1
 11 289 11 289 32 341 c 128,-1,2
 53 393 53 393 87 430.5 c 128,-1,3
 121 468 121 468 166 489 c 128,-1,4
 211 510 211 510 263 510 c 0,5,6
 304 510 304 510 342.5 491 c 128,-1,7
 381 472 381 472 404 427 c 1,8,-1
 440 496 l 1,9,-1
 575 496 l 1,10,-1
 482 58 l 2,11,12
 478 37 478 37 474.5 20 c 128,-1,13
 471 3 471 3 474 -9 c 128,-1,14
 477 -21 477 -21 487.5 -27.5 c 128,-1,15
 498 -34 498 -34 520 -34 c 0,16,17
 552 -34 552 -34 608 -21 c 1,18,-1
 580 -151 l 1,19,20
 556 -161 556 -161 525 -167 c 128,-1,21
 494 -173 494 -173 462 -173 c 0,22,23
 429 -173 429 -173 398.5 -165 c 128,-1,24
 368 -157 368 -157 346 -138 c 128,-1,25
 324 -119 324 -119 314 -88 c 128,-1,26
 304 -57 304 -57 312 -11 c 0,27,28
 314 -5 314 -5 316 6.5 c 128,-1,29
 318 18 318 18 320 29 c 0,30,31
 323 42 323 42 326 56 c 1,32,33
 297 21 297 21 261 4.5 c 128,-1,34
 225 -12 225 -12 183 -12 c 0,35,36
 139 -12 139 -12 103.5 5.5 c 128,-1,37
 68 23 68 23 44.5 54.5 c 128,-1,38
 21 86 21 86 10.5 130.5 c 128,-1,39
 0 175 0 175 5 228 c 1,40,-1
 5 228 l 1,0,1
250 106 m 1,41,42
 273 106 273 106 295 116.5 c 128,-1,43
 317 127 317 127 335 148.5 c 128,-1,44
 353 170 353 170 365 202.5 c 128,-1,45
 377 235 377 235 380 279 c 0,46,47
 384 336 384 336 357.5 364.5 c 128,-1,48
 331 393 331 393 291 393 c 0,49,50
 237 393 237 393 200 351.5 c 128,-1,51
 163 310 163 310 162 224 c 0,52,53
 160 160 160 160 185 133 c 128,-1,54
 210 106 210 106 250 106 c 1,55,-1
 250 106 l 1,41,42
EndSplineSet
EndChar

StartChar: r
Encoding: 114 114 57
Width: 391
GlyphClass: 1
Flags: W
LayerCount: 2
Fore
SplineSet
-20 0 m 1,0,-1
 85 496 l 1,1,-1
 208 496 l 1,2,-1
 215 409 l 1,3,4
 241 455 241 455 276 482 c 128,-1,5
 311 509 311 509 372 510 c 0,6,7
 378 511 378 511 388 510.5 c 128,-1,8
 398 510 398 510 403 510 c 1,9,-1
 371 358 l 1,10,11
 346 361 346 361 325 361 c 0,12,13
 260 361 260 361 229 327 c 128,-1,14
 198 293 198 293 185 231 c 2,15,-1
 136 0 l 1,16,-1
 -20 0 l 1,17,-1
 -20 0 l 1,0,-1
EndSplineSet
EndChar

StartChar: s
Encoding: 115 115 58
Width: 515
GlyphClass: 1
Flags: W
LayerCount: 2
Fore
SplineSet
-10 116 m 1,0,-1
 120 160 l 1,1,2
 128 126 128 126 159 111 c 128,-1,3
 190 96 190 96 224 96 c 256,4,5
 258 96 258 96 283.5 109 c 128,-1,6
 309 122 309 122 306 143 c 0,7,8
 304 160 304 160 282.5 170 c 128,-1,9
 261 180 261 180 230 189 c 128,-1,10
 199 198 199 198 164 209 c 128,-1,11
 129 220 129 220 99.5 238 c 128,-1,12
 70 256 70 256 50 284.5 c 128,-1,13
 30 313 30 313 30 357 c 0,14,15
 30 390 30 390 46.5 418 c 128,-1,16
 63 446 63 446 91.5 466.5 c 128,-1,17
 120 487 120 487 159 498.5 c 128,-1,18
 198 510 198 510 243 510 c 0,19,20
 279 510 279 510 312.5 504.5 c 128,-1,21
 346 499 346 499 375.5 486.5 c 128,-1,22
 405 474 405 474 429 453 c 128,-1,23
 453 432 453 432 471 400 c 1,24,-1
 339 355 l 1,25,26
 328 381 328 381 302 390 c 128,-1,27
 276 399 276 399 241 399 c 256,28,29
 206 399 206 399 190 387 c 128,-1,30
 174 375 174 375 174 362 c 0,31,32
 174 343 174 343 194.5 331.5 c 128,-1,33
 215 320 215 320 246.5 310.5 c 128,-1,34
 278 301 278 301 314 291.5 c 128,-1,35
 350 282 350 282 381.5 265.5 c 128,-1,36
 413 249 413 249 433.5 223 c 128,-1,37
 454 197 454 197 454 156 c 0,38,39
 454 78 454 78 393.5 32.5 c 128,-1,40
 333 -13 333 -13 229 -13 c 0,41,42
 201 -13 201 -13 166.5 -8.5 c 128,-1,43
 132 -4 132 -4 99 10 c 128,-1,44
 66 24 66 24 37 49 c 128,-1,45
 8 74 8 74 -10 116 c 1,46,-1
 -10 116 l 1,0,-1
EndSplineSet
EndChar

StartChar: t
Encoding: 116 116 59
Width: 391
GlyphClass: 1
Flags: W
LayerCount: 2
Fore
SplineSet
28 380 m 1,0,-1
 53 496 l 1,1,-1
 131 496 l 1,2,-1
 157 620 l 1,3,-1
 312 620 l 1,4,-1
 286 496 l 1,5,-1
 394 496 l 1,6,-1
 370 380 l 1,7,-1
 261 380 l 1,8,-1
 224 205 l 2,9,10
 220 186 220 186 218 170.5 c 128,-1,11
 216 155 216 155 219.5 145 c 128,-1,12
 223 135 223 135 235.5 129.5 c 128,-1,13
 248 124 248 124 272 124 c 2,14,-1
 315 124 l 1,15,-1
 289 0 l 1,16,-1
 193 0 l 2,17,18
 155 0 155 0 125.5 7 c 128,-1,19
 96 14 96 14 77.5 30.5 c 128,-1,20
 59 47 59 47 52.5 73.5 c 128,-1,21
 46 100 46 100 55 140 c 2,22,-1
 106 380 l 1,23,-1
 28 380 l 1,24,-1
 28 380 l 1,0,-1
EndSplineSet
EndChar

StartChar: v
Encoding: 118 118 60
Width: 533
GlyphClass: 1
Flags: W
LayerCount: 2
Fore
SplineSet
35 496 m 1,0,-1
 186 496 l 1,1,-1
 219 157 l 1,2,-1
 398 496 l 1,3,-1
 568 496 l 1,4,-1
 285 0 l 1,5,-1
 107 0 l 1,6,-1
 35 496 l 1,0,-1
EndSplineSet
EndChar

StartChar: w
Encoding: 119 119 61
Width: 727
GlyphClass: 1
Flags: W
LayerCount: 2
Fore
SplineSet
35 496 m 1,0,-1
 181 496 l 1,1,-1
 185 175 l 1,2,-1
 313 496 l 1,3,-1
 463 496 l 1,4,-1
 455 159 l 1,5,-1
 604 496 l 1,6,-1
 762 496 l 1,7,-1
 533 0 l 1,8,-1
 359 0 l 1,9,-1
 362 356 l 1,10,-1
 214 0 l 1,11,-1
 54 0 l 1,12,-1
 35 496 l 1,0,-1
EndSplineSet
EndChar

StartChar: x
Encoding: 120 120 62
Width: 537
GlyphClass: 1
Flags: W
LayerCount: 2
Fore
SplineSet
-70 0 m 1,0,-1
 180 270 l 1,1,-1
 67 496 l 1,2,-1
 217 496 l 1,3,-1
 277 376 l 1,4,-1
 388 496 l 1,5,-1
 572 496 l 1,6,-1
 341 246 l 1,7,-1
 465 0 l 1,8,-1
 314 0 l 1,9,-1
 243 141 l 1,10,-1
 114 0 l 1,11,-1
 -70 0 l 1,0,-1
EndSplineSet
EndChar

StartChar: y
Encoding: 121 121 63
Width: 527
GlyphClass: 1
Flags: W
LayerCount: 2
Fore
SplineSet
-44 -161 m 1,0,-1
 -21 -51 l 1,1,-1
 10 -51 l 2,2,3
 42 -51 42 -51 61 -48 c 128,-1,4
 80 -45 80 -45 91.5 -39 c 128,-1,5
 103 -33 103 -33 109 -23 c 128,-1,6
 115 -13 115 -13 121 2 c 1,7,-1
 35 496 l 1,8,-1
 190 496 l 1,9,-1
 220 180 l 1,10,-1
 386 496 l 1,11,-1
 562 496 l 1,12,-1
 266 -1 l 2,13,14
 232 -57 232 -57 209 -88.5 c 128,-1,15
 186 -120 186 -120 159.5 -136.5 c 128,-1,16
 133 -153 133 -153 98 -157 c 128,-1,17
 63 -161 63 -161 5 -161 c 2,18,-1
 -44 -161 l 1,19,-1
 -44 -161 l 1,0,-1
EndSplineSet
EndChar

StartChar: z
Encoding: 122 122 64
Width: 528
GlyphClass: 1
Flags: W
LayerCount: 2
Fore
SplineSet
513 375 m 1,0,-1
 203 121 l 1,1,-1
 462 121 l 1,2,-1
 437 0 l 1,3,-1
 -40 0 l 1,4,-1
 -14 121 l 1,5,-1
 296 375 l 1,6,-1
 65 375 l 1,7,-1
 91 496 l 1,8,-1
 539 496 l 1,9,-1
 513 375 l 1,0,-1
EndSplineSet
EndChar

StartChar: circumflex
Encoding: 710 710 66
AltUni2: 00e998.ffffffff.0 00e998.ffffffff.0
Width: 480
GlyphClass: 1
Flags: W
LayerCount: 2
Fore
SplineSet
278 711 m 1,0,1
 298 726 298 726 322 726 c 0,2,3
 337 726 337 726 351.5 720 c 128,-1,4
 366 714 366 714 377 701 c 2,5,-1
 495 574 l 1,6,-1
 379 574 l 1,7,-1
 320 635 l 1,8,-1
 236 574 l 1,9,-1
 89 574 l 1,10,-1
 278 711 l 1,11,-1
 278 711 l 1,0,1
EndSplineSet
Substitution2: "'case' Case-Sensitive Forms lookup 1 subtable" circumflex.case
EndChar

StartChar: caron
Encoding: 711 711 67
AltUni2: 00e999.ffffffff.0 00e999.ffffffff.0
Width: 476
GlyphClass: 1
Flags: W
LayerCount: 2
Fore
SplineSet
235 720 m 1,0,-1
 291 659 l 1,1,-1
 375 720 l 1,2,-1
 522 720 l 1,3,-1
 332 583 l 2,4,5
 313 568 313 568 288 568 c 0,6,7
 256 568 256 568 234 593 c 2,8,-1
 120 720 l 1,9,-1
 235 720 l 1,10,-1
 235 720 l 1,0,-1
EndSplineSet
Substitution2: "'case' Case-Sensitive Forms lookup 1 subtable" caron.case
EndChar

StartChar: breve
Encoding: 728 728 68
AltUni2: 00e99b.ffffffff.0 00e99b.ffffffff.0
Width: 385
GlyphClass: 1
Flags: W
LayerCount: 2
Fore
SplineSet
229 688 m 1,0,1
 233 671 233 671 247.5 661 c 128,-1,2
 262 651 262 651 282 651 c 0,3,4
 303 651 303 651 319 661 c 128,-1,5
 335 671 335 671 341 688 c 1,6,-1
 435 688 l 1,7,8
 421 641 421 641 380.5 609 c 128,-1,9
 340 577 340 577 278 577 c 0,10,11
 218 577 218 577 179.5 608 c 128,-1,12
 141 639 141 639 136 688 c 1,13,-1
 229 688 l 1,14,-1
 229 688 l 1,0,1
EndSplineSet
Substitution2: "'case' Case-Sensitive Forms lookup 1 subtable" breve.case
EndChar

StartChar: dotaccent
Encoding: 729 729 69
AltUni2: 00e99c.ffffffff.0 00e99c.ffffffff.0
Width: 204
GlyphClass: 1
Flags: W
LayerCount: 2
Fore
SplineSet
99 648 m 1,0,1
 99 677 99 677 120 698 c 128,-1,2
 141 719 141 719 170 719 c 256,3,4
 199 719 199 719 219.5 698 c 128,-1,5
 240 677 240 677 240 648 c 256,6,7
 240 619 240 619 219.5 598.5 c 128,-1,8
 199 578 199 578 170 578 c 256,9,10
 141 578 141 578 120 598.5 c 128,-1,11
 99 619 99 619 99 648 c 1,12,-1
 99 648 l 1,0,1
EndSplineSet
Substitution2: "'case' Case-Sensitive Forms lookup 1 subtable" dotaccent.case
EndChar

StartChar: ring
Encoding: 730 730 70
Width: 301
GlyphClass: 1
Flags: W
LayerCount: 2
Fore
SplineSet
222 800 m 1,0,1
 249 800 249 800 273.5 789.5 c 128,-1,2
 298 779 298 779 316 761 c 128,-1,3
 334 743 334 743 344.5 719 c 128,-1,4
 355 695 355 695 355 668 c 256,5,6
 355 641 355 641 344.5 616.5 c 128,-1,7
 334 592 334 592 316 574 c 128,-1,8
 298 556 298 556 273.5 545.5 c 128,-1,9
 249 535 249 535 222 535 c 256,10,11
 195 535 195 535 171 545.5 c 128,-1,12
 147 556 147 556 129 574 c 128,-1,13
 111 592 111 592 100.5 616.5 c 128,-1,14
 90 641 90 641 90 668 c 256,15,16
 90 695 90 695 100.5 719 c 128,-1,17
 111 743 111 743 129 761 c 128,-1,18
 147 779 147 779 171 789.5 c 128,-1,19
 195 800 195 800 222 800 c 1,20,-1
 222 800 l 1,0,1
175 668 m 1,21,22
 175 648 175 648 188.5 634.5 c 128,-1,23
 202 621 202 621 222 621 c 256,24,25
 242 621 242 621 255.5 634.5 c 128,-1,26
 269 648 269 648 269 668 c 256,27,28
 269 688 269 688 255.5 701.5 c 128,-1,29
 242 715 242 715 222 715 c 256,30,31
 202 715 202 715 188.5 701.5 c 128,-1,32
 175 688 175 688 175 668 c 1,33,-1
 175 668 l 1,21,22
EndSplineSet
Substitution2: "'case' Case-Sensitive Forms lookup 1 subtable" ring.case
EndChar

StartChar: ogonek
Encoding: 731 731 71
AltUni2: 00e99e.ffffffff.0 00e99e.ffffffff.0
Width: 296
GlyphClass: 1
Flags: W
LayerCount: 2
Fore
SplineSet
-51 -84 m 1,0,1
 -46 -57 -46 -57 -21 -33 c 128,-1,2
 4 -9 4 -9 39 0 c 1,3,-1
 183 0 l 1,4,5
 164 -9 164 -9 146 -17.5 c 128,-1,6
 128 -26 128 -26 113.5 -34.5 c 128,-1,7
 99 -43 99 -43 89 -51.5 c 128,-1,8
 79 -60 79 -60 77 -69 c 256,9,10
 75 -78 75 -78 78.5 -83.5 c 128,-1,11
 82 -89 82 -89 88 -92 c 128,-1,12
 94 -95 94 -95 102.5 -96 c 128,-1,13
 111 -97 111 -97 119 -97 c 0,14,15
 133 -97 133 -97 148 -93.5 c 128,-1,16
 163 -90 163 -90 170 -88 c 1,17,-1
 154 -164 l 1,18,19
 141 -167 141 -167 116.5 -170 c 128,-1,20
 92 -173 92 -173 73 -173 c 0,21,22
 32 -173 32 -173 6.5 -164.5 c 128,-1,23
 -19 -156 -19 -156 -32.5 -143 c 128,-1,24
 -46 -130 -46 -130 -49.5 -114.5 c 128,-1,25
 -53 -99 -53 -99 -51 -84 c 1,26,-1
 -51 -84 l 1,0,1
EndSplineSet
EndChar

StartChar: quoteleft
Encoding: 8216 8216 72
AltUni2: 00e9a3.ffffffff.0 00e9a3.ffffffff.0
Width: 281
GlyphClass: 1
Flags: W
LayerCount: 2
Fore
SplineSet
68 455 m 1,0,1
 71 471 71 471 81 488 c 2,2,-1
 193 668 l 1,3,-1
 292 668 l 1,4,-1
 203 526 l 1,5,6
 234 512 234 512 250 482.5 c 128,-1,7
 266 453 266 453 259 419 c 0,8,9
 255 399 255 399 244.5 383 c 128,-1,10
 234 367 234 367 218.5 356.5 c 128,-1,11
 203 346 203 346 184 342 c 128,-1,12
 165 338 165 338 145 341 c 0,13,14
 126 345 126 345 110 355.5 c 128,-1,15
 94 366 94 366 83.5 381.5 c 128,-1,16
 73 397 73 397 69 416 c 128,-1,17
 65 435 65 435 68 455 c 1,18,-1
 68 455 l 1,0,1
EndSplineSet
EndChar

StartChar: quoteright
Encoding: 8217 8217 73
AltUni2: 00e9a4.ffffffff.0 00e9a4.ffffffff.0
Width: 282
GlyphClass: 1
Flags: W
LayerCount: 2
Fore
SplineSet
155 493 m 1,0,1
 125 507 125 507 108.5 536.5 c 128,-1,2
 92 566 92 566 99 601 c 0,3,4
 103 621 103 621 113.5 637 c 128,-1,5
 124 653 124 653 139.5 663.5 c 128,-1,6
 155 674 155 674 174 678 c 128,-1,7
 193 682 193 682 213 678 c 256,8,9
 233 674 233 674 249.5 663 c 128,-1,10
 266 652 266 652 277 636.5 c 128,-1,11
 288 621 288 621 292 602.5 c 128,-1,12
 296 584 296 584 291 564 c 0,13,14
 286 545 286 545 278 531 c 2,15,-1
 165 351 l 1,16,-1
 66 351 l 1,17,-1
 155 493 l 1,18,-1
 155 493 l 1,0,1
EndSplineSet
EndChar

StartChar: quotesinglbase
Encoding: 8218 8218 74
AltUni2: 00e9a5.ffffffff.0 00e9a5.ffffffff.0
Width: 282
GlyphClass: 1
Flags: W
LayerCount: 2
Fore
SplineSet
49 -3 m 1,0,1
 19 11 19 11 2.5 40.5 c 128,-1,2
 -14 70 -14 70 -7 104 c 0,3,4
 -3 124 -3 124 7.5 140 c 128,-1,5
 18 156 18 156 33.5 166.5 c 128,-1,6
 49 177 49 177 68 181.5 c 128,-1,7
 87 186 87 186 107 182 c 256,8,9
 127 178 127 178 143.5 167 c 128,-1,10
 160 156 160 156 171 140.5 c 128,-1,11
 182 125 182 125 186 106.5 c 128,-1,12
 190 88 190 88 185 68 c 0,13,14
 180 49 180 49 172 35 c 2,15,-1
 59 -145 l 1,16,-1
 -40 -145 l 1,17,-1
 49 -3 l 1,18,-1
 49 -3 l 1,0,1
EndSplineSet
EndChar

StartChar: quotedblleft
Encoding: 8220 8220 75
AltUni2: 00e9a6.ffffffff.0 00e9a6.ffffffff.0
Width: 505
GlyphClass: 1
Flags: W
LayerCount: 2
Fore
SplineSet
68 455 m 1,0,1
 71 471 71 471 81 488 c 2,2,-1
 193 668 l 1,3,-1
 292 668 l 1,4,-1
 203 526 l 1,5,6
 234 512 234 512 250 482.5 c 128,-1,7
 266 453 266 453 259 419 c 0,8,9
 255 399 255 399 244.5 383 c 128,-1,10
 234 367 234 367 218.5 356.5 c 128,-1,11
 203 346 203 346 184 342 c 128,-1,12
 165 338 165 338 145 341 c 0,13,14
 126 345 126 345 110 355.5 c 128,-1,15
 94 366 94 366 83.5 381.5 c 128,-1,16
 73 397 73 397 69 416 c 128,-1,17
 65 435 65 435 68 455 c 1,18,-1
 68 455 l 1,0,1
292 455 m 1,19,20
 295 471 295 471 305 488 c 2,21,-1
 417 668 l 1,22,-1
 516 668 l 1,23,-1
 427 526 l 1,24,25
 457 512 457 512 473 482.5 c 128,-1,26
 489 453 489 453 483 419 c 0,27,28
 479 399 479 399 468.5 383 c 128,-1,29
 458 367 458 367 442.5 356.5 c 128,-1,30
 427 346 427 346 408 342 c 128,-1,31
 389 338 389 338 369 341 c 0,32,33
 350 345 350 345 334 355.5 c 128,-1,34
 318 366 318 366 307.5 381.5 c 128,-1,35
 297 397 297 397 293 416 c 128,-1,36
 289 435 289 435 292 455 c 1,37,-1
 292 455 l 1,19,20
EndSplineSet
EndChar

StartChar: quotedblright
Encoding: 8221 8221 76
AltUni2: 00e9a7.ffffffff.0 00e9a7.ffffffff.0
Width: 505
GlyphClass: 1
Flags: W
LayerCount: 2
Fore
SplineSet
155 493 m 1,0,1
 125 507 125 507 108.5 536.5 c 128,-1,2
 92 566 92 566 99 601 c 0,3,4
 103 621 103 621 113.5 637 c 128,-1,5
 124 653 124 653 139.5 663.5 c 128,-1,6
 155 674 155 674 174 678 c 128,-1,7
 193 682 193 682 213 678 c 256,8,9
 233 674 233 674 249.5 663 c 128,-1,10
 266 652 266 652 277 636.5 c 128,-1,11
 288 621 288 621 292 602.5 c 128,-1,12
 296 584 296 584 291 564 c 0,13,14
 286 545 286 545 278 531 c 2,15,-1
 165 351 l 1,16,-1
 66 351 l 1,17,-1
 155 493 l 1,18,-1
 155 493 l 1,0,1
378 493 m 1,19,20
 349 507 349 507 332.5 536.5 c 128,-1,21
 316 566 316 566 323 601 c 0,22,23
 327 621 327 621 337.5 637 c 128,-1,24
 348 653 348 653 363.5 663.5 c 128,-1,25
 379 674 379 674 397.5 678 c 128,-1,26
 416 682 416 682 436 678 c 256,27,28
 456 674 456 674 472 663.5 c 128,-1,29
 488 653 488 653 498.5 637.5 c 128,-1,30
 509 622 509 622 513 603 c 128,-1,31
 517 584 517 584 514 564 c 0,32,33
 511 548 511 548 501 531 c 2,34,-1
 389 351 l 1,35,-1
 290 351 l 1,36,-1
 378 493 l 1,37,-1
 378 493 l 1,19,20
EndSplineSet
EndChar

StartChar: quotedblbase
Encoding: 8222 8222 77
AltUni2: 00e9a8.ffffffff.0 00e9a8.ffffffff.0
Width: 505
GlyphClass: 1
Flags: W
LayerCount: 2
Fore
SplineSet
49 -3 m 1,0,1
 19 11 19 11 2.5 40.5 c 128,-1,2
 -14 70 -14 70 -7 104 c 0,3,4
 -3 124 -3 124 7.5 140 c 128,-1,5
 18 156 18 156 33.5 166.5 c 128,-1,6
 49 177 49 177 68 181.5 c 128,-1,7
 87 186 87 186 107 182 c 256,8,9
 127 178 127 178 143.5 167 c 128,-1,10
 160 156 160 156 171 140.5 c 128,-1,11
 182 125 182 125 186 106.5 c 128,-1,12
 190 88 190 88 185 68 c 0,13,14
 180 49 180 49 172 35 c 2,15,-1
 59 -145 l 1,16,-1
 -40 -145 l 1,17,-1
 49 -3 l 1,18,-1
 49 -3 l 1,0,1
272 -3 m 1,19,20
 243 11 243 11 227 40.5 c 128,-1,21
 211 70 211 70 217 104 c 0,22,23
 221 124 221 124 231.5 140 c 128,-1,24
 242 156 242 156 257.5 166.5 c 128,-1,25
 273 177 273 177 291.5 181.5 c 128,-1,26
 310 186 310 186 330 182 c 256,27,28
 350 178 350 178 366 167.5 c 128,-1,29
 382 157 382 157 392.5 141.5 c 128,-1,30
 403 126 403 126 407 107 c 128,-1,31
 411 88 411 88 408 68 c 0,32,33
 405 52 405 52 395 35 c 2,34,-1
 283 -145 l 1,35,-1
 184 -145 l 1,36,-1
 272 -3 l 1,37,-1
 272 -3 l 1,19,20
EndSplineSet
EndChar

StartChar: dagger
Encoding: 8224 8224 78
AltUni2: 00e9a9.ffffffff.0 00e9a9.ffffffff.0
Width: 594
GlyphClass: 1
Flags: W
LayerCount: 2
Fore
SplineSet
52 380 m 1,0,-1
 77 496 l 1,1,-1
 260 496 l 1,2,-1
 297 668 l 1,3,-1
 442 668 l 1,4,-1
 405 496 l 1,5,-1
 588 496 l 1,6,-1
 564 380 l 1,7,-1
 380 380 l 1,8,-1
 300 1 l 1,9,-1
 155 1 l 1,10,-1
 236 380 l 1,11,-1
 52 380 l 1,0,-1
EndSplineSet
EndChar

StartChar: daggerdbl
Encoding: 8225 8225 79
AltUni2: 00e9aa.ffffffff.0 00e9aa.ffffffff.0
Width: 595
GlyphClass: 1
Flags: W
LayerCount: 2
Fore
SplineSet
33 288 m 1,0,-1
 216 288 l 1,1,-1
 236 380 l 1,2,-1
 52 380 l 1,3,-1
 77 496 l 1,4,-1
 260 496 l 1,5,-1
 297 668 l 1,6,-1
 442 668 l 1,7,-1
 405 496 l 1,8,-1
 589 496 l 1,9,-1
 564 380 l 1,10,-1
 381 380 l 1,11,-1
 361 288 l 1,12,-1
 544 288 l 1,13,-1
 520 173 l 1,14,-1
 336 173 l 1,15,-1
 301 1 l 1,16,-1
 155 1 l 1,17,-1
 192 173 l 1,18,-1
 8 173 l 1,19,-1
 33 288 l 1,0,-1
EndSplineSet
EndChar

StartChar: bullet
Encoding: 8226 8226 80
Width: 446
GlyphClass: 1
Flags: W
LayerCount: 2
Fore
SplineSet
41 254 m 1,0,1
 41 289 41 289 54 319 c 128,-1,2
 67 349 67 349 89.5 371.5 c 128,-1,3
 112 394 112 394 142.5 407 c 128,-1,4
 173 420 173 420 207 420 c 0,5,6
 242 420 242 420 272 407 c 128,-1,7
 302 394 302 394 324.5 371.5 c 128,-1,8
 347 349 347 349 360 319 c 128,-1,9
 373 289 373 289 373 254 c 0,10,11
 373 220 373 220 360 189.5 c 128,-1,12
 347 159 347 159 324.5 136.5 c 128,-1,13
 302 114 302 114 272 101 c 128,-1,14
 242 88 242 88 207 88 c 0,15,16
 173 88 173 88 142.5 101 c 128,-1,17
 112 114 112 114 89.5 136.5 c 128,-1,18
 67 159 67 159 54 189.5 c 128,-1,19
 41 220 41 220 41 254 c 1,20,-1
 41 254 l 1,0,1
EndSplineSet
EndChar

StartChar: ellipsis
Encoding: 8230 8230 81
AltUni2: 00e9ac.ffffffff.0 00e9ac.ffffffff.0
Width: 807
GlyphClass: 1
Flags: W
LayerCount: 2
Fore
SplineSet
517 86 m 1,0,1
 517 127 517 127 545.5 155.5 c 128,-1,2
 574 184 574 184 615 184 c 256,3,4
 656 184 656 184 684 155.5 c 128,-1,5
 712 127 712 127 712 86 c 256,6,7
 712 45 712 45 684 16.5 c 128,-1,8
 656 -12 656 -12 615 -12 c 256,9,10
 574 -12 574 -12 545.5 16.5 c 128,-1,11
 517 45 517 45 517 86 c 1,12,-1
 517 86 l 1,0,1
-9 86 m 1,13,14
 -9 127 -9 127 19.5 155.5 c 128,-1,15
 48 184 48 184 89 184 c 0,16,17
 109 184 109 184 126.5 176.5 c 128,-1,18
 144 169 144 169 157.5 155.5 c 128,-1,19
 171 142 171 142 178.5 124 c 128,-1,20
 186 106 186 106 186 86 c 256,21,22
 186 66 186 66 178.5 48 c 128,-1,23
 171 30 171 30 157.5 16.5 c 128,-1,24
 144 3 144 3 126.5 -4.5 c 128,-1,25
 109 -12 109 -12 89 -12 c 0,26,27
 48 -12 48 -12 19.5 16.5 c 128,-1,28
 -9 45 -9 45 -9 86 c 1,29,-1
 -9 86 l 1,13,14
255 86 m 1,30,31
 255 127 255 127 282.5 155.5 c 128,-1,32
 310 184 310 184 351 184 c 256,33,34
 392 184 392 184 420.5 155.5 c 128,-1,35
 449 127 449 127 449 86 c 256,36,37
 449 45 449 45 420.5 16.5 c 128,-1,38
 392 -12 392 -12 351 -12 c 256,39,40
 310 -12 310 -12 282.5 16.5 c 128,-1,41
 255 45 255 45 255 86 c 1,42,-1
 255 86 l 1,30,31
EndSplineSet
EndChar

StartChar: perthousand
Encoding: 8240 8240 82
AltUni2: 00e9ad.ffffffff.0 00e9ad.ffffffff.0
Width: 1507
GlyphClass: 1
Flags: W
LayerCount: 2
Fore
SplineSet
75 483 m 1,0,1
 80 524 80 524 99 560 c 128,-1,2
 118 596 118 596 147.5 622.5 c 128,-1,3
 177 649 177 649 214.5 664.5 c 128,-1,4
 252 680 252 680 293 680 c 256,5,6
 334 680 334 680 368.5 664.5 c 128,-1,7
 403 649 403 649 427 622.5 c 128,-1,8
 451 596 451 596 462.5 560 c 128,-1,9
 474 524 474 524 470 483 c 256,10,11
 466 442 466 442 446.5 406 c 128,-1,12
 427 370 427 370 397.5 343.5 c 128,-1,13
 368 317 368 317 330.5 301.5 c 128,-1,14
 293 286 293 286 252 286 c 256,15,16
 211 286 211 286 176.5 301.5 c 128,-1,17
 142 317 142 317 118 343.5 c 128,-1,18
 94 370 94 370 82.5 406 c 128,-1,19
 71 442 71 442 75 483 c 1,20,-1
 75 483 l 1,0,1
611 185 m 1,21,22
 615 226 615 226 634.5 262 c 128,-1,23
 654 298 654 298 683.5 324.5 c 128,-1,24
 713 351 713 351 750.5 366.5 c 128,-1,25
 788 382 788 382 829 382 c 256,26,27
 870 382 870 382 904 366.5 c 128,-1,28
 938 351 938 351 962 324.5 c 128,-1,29
 986 298 986 298 997.5 262 c 128,-1,30
 1009 226 1009 226 1005 185 c 256,31,32
 1001 144 1001 144 981.5 108 c 128,-1,33
 962 72 962 72 932.5 45.5 c 128,-1,34
 903 19 903 19 865.5 3.5 c 128,-1,35
 828 -12 828 -12 787 -12 c 256,36,37
 746 -12 746 -12 712 3.5 c 128,-1,38
 678 19 678 19 654 45.5 c 128,-1,39
 630 72 630 72 618.5 108 c 128,-1,40
 607 144 607 144 611 185 c 1,41,-1
 611 185 l 1,21,22
1040 185 m 1,42,43
 1044 226 1044 226 1063.5 262 c 128,-1,44
 1083 298 1083 298 1112.5 324.5 c 128,-1,45
 1142 351 1142 351 1179.5 366.5 c 128,-1,46
 1217 382 1217 382 1258 382 c 256,47,48
 1299 382 1299 382 1333 366.5 c 128,-1,49
 1367 351 1367 351 1391 324.5 c 128,-1,50
 1415 298 1415 298 1426.5 262 c 128,-1,51
 1438 226 1438 226 1434 185 c 256,52,53
 1430 144 1430 144 1410.5 108 c 128,-1,54
 1391 72 1391 72 1361.5 45.5 c 128,-1,55
 1332 19 1332 19 1294.5 3.5 c 128,-1,56
 1257 -12 1257 -12 1216 -12 c 256,57,58
 1175 -12 1175 -12 1141 3.5 c 128,-1,59
 1107 19 1107 19 1083 45.5 c 128,-1,60
 1059 72 1059 72 1047.5 108 c 128,-1,61
 1036 144 1036 144 1040 185 c 1,62,-1
 1040 185 l 1,42,43
1229 107 m 1,63,64
 1261 107 1261 107 1286.5 129.5 c 128,-1,65
 1312 152 1312 152 1316 185 c 0,66,67
 1319 217 1319 217 1298.5 240 c 128,-1,68
 1278 263 1278 263 1245 263 c 0,69,70
 1229 263 1229 263 1214 257 c 128,-1,71
 1199 251 1199 251 1187 240.5 c 128,-1,72
 1175 230 1175 230 1167.5 215.5 c 128,-1,73
 1160 201 1160 201 1158 185 c 0,74,75
 1155 152 1155 152 1175.5 129.5 c 128,-1,76
 1196 107 1196 107 1229 107 c 1,77,-1
 1229 107 l 1,63,64
800 107 m 1,78,79
 832 107 832 107 857.5 129.5 c 128,-1,80
 883 152 883 152 887 185 c 0,81,82
 890 217 890 217 869.5 240 c 128,-1,83
 849 263 849 263 816 263 c 0,84,85
 800 263 800 263 785 257 c 128,-1,86
 770 251 770 251 758 240.5 c 128,-1,87
 746 230 746 230 738.5 215.5 c 128,-1,88
 731 201 731 201 729 185 c 0,89,90
 726 152 726 152 746.5 129.5 c 128,-1,91
 767 107 767 107 800 107 c 1,92,-1
 800 107 l 1,78,79
264 405 m 1,93,94
 297 405 297 405 322 427.5 c 128,-1,95
 347 450 347 450 351 483 c 0,96,97
 355 515 355 515 334 538 c 128,-1,98
 313 561 313 561 281 561 c 0,99,100
 248 561 248 561 222.5 538 c 128,-1,101
 197 515 197 515 194 483 c 0,102,103
 190 450 190 450 211 427.5 c 128,-1,104
 232 405 232 405 264 405 c 1,105,-1
 264 405 l 1,93,94
244 0 m 1,106,-1
 711 668 l 1,107,-1
 838 668 l 1,108,-1
 370 0 l 1,109,-1
 244 0 l 1,106,-1
EndSplineSet
EndChar

StartChar: guilsinglleft
Encoding: 8249 8249 83
AltUni2: 00e9ae.ffffffff.0 00e9ae.ffffffff.0
Width: 401
GlyphClass: 1
Flags: W
LayerCount: 2
Fore
SplineSet
24 250 m 1,0,-1
 217 460 l 1,1,-1
 388 460 l 1,2,-1
 191 244 l 1,3,-1
 291 40 l 1,4,-1
 127 40 l 1,5,-1
 24 250 l 1,0,-1
EndSplineSet
EndChar

StartChar: guilsinglright
Encoding: 8250 8250 84
AltUni2: 00e9af.ffffffff.0 00e9af.ffffffff.0
Width: 402
GlyphClass: 1
Flags: W
LayerCount: 2
Fore
SplineSet
177 256 m 1,0,-1
 77 460 l 1,1,-1
 241 460 l 1,2,-1
 344 250 l 1,3,-1
 151 40 l 1,4,-1
 -20 40 l 1,5,-1
 177 256 l 1,0,-1
EndSplineSet
EndChar

StartChar: fraction
Encoding: 8260 8260 85
AltUni2: 00e9b0.ffffffff.0 00e9b0.ffffffff.0
Width: 482
GlyphClass: 1
Flags: W
LayerCount: 2
Fore
SplineSet
539 668 m 1,0,-1
 72 0 l 1,1,-1
 -55 0 l 1,2,-1
 413 668 l 1,3,-1
 539 668 l 1,0,-1
EndSplineSet
EndChar

StartChar: ordfeminine
Encoding: 170 170 86
AltUni2: 00e93d.ffffffff.0 00e93d.ffffffff.0
Width: 395
GlyphClass: 1
Flags: W
LayerCount: 2
Fore
SplineSet
289 582 m 1,0,-1
 293 594 l 2,1,2
 296 609 296 609 285 617 c 128,-1,3
 274 625 274 625 254 625 c 0,4,5
 240 625 240 625 226.5 619 c 128,-1,6
 213 613 213 613 207 599 c 1,7,-1
 127 631 l 1,8,9
 148 662 148 662 180.5 677 c 128,-1,10
 213 692 213 692 266 692 c 0,11,12
 294 692 294 692 319.5 685.5 c 128,-1,13
 345 679 345 679 362.5 662.5 c 128,-1,14
 380 646 380 646 386.5 618.5 c 128,-1,15
 393 591 393 591 382 549 c 0,16,17
 373 510 373 510 367.5 475.5 c 128,-1,18
 362 441 362 441 358 403 c 1,19,-1
 272 403 l 1,20,-1
 270 435 l 1,21,22
 256 418 256 418 233 407 c 128,-1,23
 210 396 210 396 174 396 c 0,24,25
 132 396 132 396 109.5 419 c 128,-1,26
 87 442 87 442 86 474 c 0,27,28
 85 507 85 507 102.5 527 c 128,-1,29
 120 547 120 547 148.5 558.5 c 128,-1,30
 177 570 177 570 214 575 c 128,-1,31
 251 580 251 580 289 582 c 1,32,-1
 289 582 l 1,0,-1
277 510 m 1,33,-1
 282 528 l 1,34,35
 273 527 273 527 266 526 c 256,36,37
 259 525 259 525 253 524.5 c 128,-1,38
 247 524 247 524 243 523 c 0,39,40
 215 519 215 519 204 510.5 c 128,-1,41
 193 502 193 502 193 491 c 0,42,43
 192 477 192 477 201 470.5 c 128,-1,44
 210 464 210 464 222 464 c 0,45,46
 239 464 239 464 255.5 475.5 c 128,-1,47
 272 487 272 487 277 510 c 1,48,-1
 277 510 l 1,33,-1
EndSplineSet
EndChar

StartChar: guillemotleft
Encoding: 171 171 87
AltUni2: 00e93e.ffffffff.0 00e93e.ffffffff.0
Width: 665
GlyphClass: 1
Flags: W
LayerCount: 2
Fore
SplineSet
36 250 m 1,0,-1
 229 460 l 1,1,-1
 400 460 l 1,2,-1
 203 244 l 1,3,-1
 303 40 l 1,4,-1
 139 40 l 1,5,-1
 36 250 l 1,0,-1
469 460 m 1,6,-1
 640 460 l 1,7,-1
 443 244 l 1,8,-1
 543 40 l 1,9,-1
 379 40 l 1,10,-1
 276 250 l 1,11,-1
 469 460 l 1,6,-1
EndSplineSet
EndChar

StartChar: logicalnot
Encoding: 172 172 88
AltUni2: 00e93f.ffffffff.0 00e93f.ffffffff.0
Width: 696
GlyphClass: 1
Flags: W
LayerCount: 2
Fore
SplineSet
585 422 m 1,0,-1
 585 56 l 1,1,-1
 457 56 l 1,2,-1
 457 295 l 1,3,-1
 73 295 l 1,4,-1
 73 422 l 1,5,-1
 585 422 l 1,0,-1
EndSplineSet
EndChar

StartChar: registered
Encoding: 174 174 89
AltUni2: 00e940.ffffffff.0 00e940.ffffffff.0
Width: 814
GlyphClass: 1
Flags: W
LayerCount: 2
Fore
SplineSet
62 334 m 1,0,1
 62 405 62 405 89 468 c 128,-1,2
 116 531 116 531 163 578 c 128,-1,3
 210 625 210 625 273 652 c 128,-1,4
 336 679 336 679 407 679 c 0,5,6
 479 679 479 679 542 652 c 128,-1,7
 605 625 605 625 652.5 578 c 128,-1,8
 700 531 700 531 727 468 c 128,-1,9
 754 405 754 405 754 334 c 0,10,11
 754 262 754 262 727 199 c 128,-1,12
 700 136 700 136 652.5 89 c 128,-1,13
 605 42 605 42 542 15 c 128,-1,14
 479 -12 479 -12 407 -12 c 0,15,16
 336 -12 336 -12 273 15 c 128,-1,17
 210 42 210 42 163 89 c 128,-1,18
 116 136 116 136 89 199 c 128,-1,19
 62 262 62 262 62 334 c 1,20,-1
 62 334 l 1,0,1
132 334 m 1,21,22
 132 277 132 277 153.5 226.5 c 128,-1,23
 175 176 175 176 212.5 138.5 c 128,-1,24
 250 101 250 101 300 79 c 128,-1,25
 350 57 350 57 407 57 c 256,26,27
 464 57 464 57 514.5 79 c 128,-1,28
 565 101 565 101 602.5 138.5 c 128,-1,29
 640 176 640 176 662 226.5 c 128,-1,30
 684 277 684 277 684 334 c 256,31,32
 684 391 684 391 662 441.5 c 128,-1,33
 640 492 640 492 602.5 529.5 c 128,-1,34
 565 567 565 567 514.5 588.5 c 128,-1,35
 464 610 464 610 407 610 c 256,36,37
 350 610 350 610 300 588.5 c 128,-1,38
 250 567 250 567 212.5 529.5 c 128,-1,39
 175 492 175 492 153.5 441.5 c 128,-1,40
 132 391 132 391 132 334 c 1,41,-1
 132 334 l 1,21,22
250 529 m 1,42,-1
 401 529 l 2,43,44
 437 529 437 529 467.5 524 c 128,-1,45
 498 519 498 519 520.5 506.5 c 128,-1,46
 543 494 543 494 555.5 472 c 128,-1,47
 568 450 568 450 568 415 c 0,48,49
 568 399 568 399 564 383.5 c 128,-1,50
 560 368 560 368 550.5 354 c 128,-1,51
 541 340 541 340 524 328.5 c 128,-1,52
 507 317 507 317 481 310 c 1,53,-1
 588 161 l 1,54,-1
 480 161 l 1,55,-1
 379 300 l 1,56,-1
 347 300 l 1,57,-1
 347 161 l 1,58,-1
 250 161 l 1,59,-1
 250 529 l 1,60,-1
 250 529 l 1,42,-1
399 375 m 1,61,62
 428 375 428 375 447.5 382.5 c 128,-1,63
 467 390 467 390 467 414 c 256,64,65
 467 438 467 438 447.5 445.5 c 128,-1,66
 428 453 428 453 399 453 c 2,67,-1
 347 453 l 1,68,-1
 347 375 l 1,69,-1
 399 375 l 1,70,-1
 399 375 l 1,61,62
EndSplineSet
EndChar

StartChar: macron
Encoding: 175 175 90
Width: 405
GlyphClass: 1
Flags: W
LayerCount: 2
Fore
SplineSet
104 570 m 1,0,-1
 125 668 l 1,1,-1
 424 668 l 1,2,-1
 403 570 l 1,3,-1
 104 570 l 1,0,-1
EndSplineSet
Substitution2: "'case' Case-Sensitive Forms lookup 1 subtable" macron.case
EndChar

StartChar: degree
Encoding: 176 176 91
AltUni2: 00e941.ffffffff.0 00e941.ffffffff.0
Width: 411
GlyphClass: 1
Flags: W
LayerCount: 2
Fore
SplineSet
83 517 m 1,0,1
 83 550 83 550 96 579.5 c 128,-1,2
 109 609 109 609 131 631 c 128,-1,3
 153 653 153 653 182.5 666 c 128,-1,4
 212 679 212 679 245 679 c 0,5,6
 279 679 279 679 308.5 666 c 128,-1,7
 338 653 338 653 360 631 c 128,-1,8
 382 609 382 609 394.5 579.5 c 128,-1,9
 407 550 407 550 407 517 c 0,10,11
 407 483 407 483 394.5 453.5 c 128,-1,12
 382 424 382 424 360 402 c 128,-1,13
 338 380 338 380 308.5 367 c 128,-1,14
 279 354 279 354 245 354 c 0,15,16
 212 354 212 354 182.5 367 c 128,-1,17
 153 380 153 380 131 402 c 128,-1,18
 109 424 109 424 96 453.5 c 128,-1,19
 83 483 83 483 83 517 c 1,20,-1
 83 517 l 1,0,1
245 444 m 1,21,22
 276 444 276 444 297 465.5 c 128,-1,23
 318 487 318 487 318 517 c 256,24,25
 318 547 318 547 297 568.5 c 128,-1,26
 276 590 276 590 245 590 c 0,27,28
 215 590 215 590 193.5 568.5 c 128,-1,29
 172 547 172 547 172 517 c 256,30,31
 172 487 172 487 193.5 465.5 c 128,-1,32
 215 444 215 444 245 444 c 1,33,-1
 245 444 l 1,21,22
EndSplineSet
EndChar

StartChar: plusminus
Encoding: 177 177 92
AltUni2: 00e942.ffffffff.0 00e942.ffffffff.0
Width: 701
GlyphClass: 1
Flags: W
LayerCount: 2
Fore
SplineSet
56 391 m 1,0,-1
 248 391 l 1,1,-1
 248 495 l 1,2,-1
 376 495 l 1,3,-1
 376 391 l 1,4,-1
 568 391 l 1,5,-1
 568 283 l 1,6,-1
 376 283 l 1,7,-1
 376 180 l 1,8,-1
 248 180 l 1,9,-1
 248 283 l 1,10,-1
 56 283 l 1,11,-1
 56 391 l 1,0,-1
56 128 m 1,12,-1
 568 128 l 1,13,-1
 568 0 l 1,14,-1
 56 0 l 1,15,-1
 56 128 l 1,12,-1
EndSplineSet
EndChar

StartChar: uni00B2
Encoding: 178 178 93
AltUni2: 00e943.ffffffff.0 00e943.ffffffff.0
Width: 407
GlyphClass: 1
Flags: W
LayerCount: 2
Fore
SplineSet
87 484 m 1,0,1
 126 505 126 505 166 527.5 c 128,-1,2
 206 550 206 550 240 574 c 128,-1,3
 274 598 274 598 296 622 c 128,-1,4
 318 646 318 646 321 670 c 0,5,6
 323 691 323 691 309 701 c 128,-1,7
 295 711 295 711 277 711 c 0,8,9
 232 711 232 711 216 667 c 1,10,-1
 132 700 l 1,11,12
 175 788 175 788 288 788 c 0,13,14
 318 788 318 788 343.5 782.5 c 128,-1,15
 369 777 369 777 388 765 c 128,-1,16
 407 753 407 753 417.5 733.5 c 128,-1,17
 428 714 428 714 427 686 c 0,18,19
 426 657 426 657 409.5 628.5 c 128,-1,20
 393 600 393 600 366.5 574.5 c 128,-1,21
 340 549 340 549 307 527.5 c 128,-1,22
 274 506 274 506 240 491 c 1,23,-1
 388 491 l 1,24,-1
 370 403 l 1,25,-1
 70 403 l 1,26,-1
 87 484 l 1,27,-1
 87 484 l 1,0,1
EndSplineSet
EndChar

StartChar: uni00B3
Encoding: 179 179 94
AltUni2: 00e944.ffffffff.0 00e944.ffffffff.0
Width: 425
GlyphClass: 1
Flags: W
LayerCount: 2
Fore
SplineSet
98 478 m 1,0,-1
 196 511 l 1,1,2
 210 472 210 472 254 472 c 0,3,4
 276 472 276 472 290 483.5 c 128,-1,5
 304 495 304 495 305 511 c 0,6,7
 307 534 307 534 288.5 543 c 128,-1,8
 270 552 270 552 233 552 c 2,9,-1
 218 552 l 1,10,-1
 236 636 l 1,11,-1
 251 636 l 2,12,13
 283 636 283 636 302.5 646 c 128,-1,14
 322 656 322 656 324 676 c 0,15,16
 327 695 327 695 311 704 c 128,-1,17
 295 713 295 713 278 713 c 0,18,19
 260 713 260 713 244 706 c 128,-1,20
 228 699 228 699 217 676 c 1,21,-1
 134 709 l 1,22,23
 157 748 157 748 193.5 768 c 128,-1,24
 230 788 230 788 286 788 c 0,25,26
 316 788 316 788 342.5 781.5 c 128,-1,27
 369 775 369 775 388.5 761.5 c 128,-1,28
 408 748 408 748 418.5 728.5 c 128,-1,29
 429 709 429 709 428 683 c 0,30,31
 426 651 426 651 408.5 629.5 c 128,-1,32
 391 608 391 608 362 599 c 1,33,34
 385 588 385 588 399.5 563 c 128,-1,35
 414 538 414 538 409 505 c 0,36,37
 405 478 405 478 391 457.5 c 128,-1,38
 377 437 377 437 356 423.5 c 128,-1,39
 335 410 335 410 308.5 403 c 128,-1,40
 282 396 282 396 253 396 c 0,41,42
 202 396 202 396 161.5 416.5 c 128,-1,43
 121 437 121 437 98 478 c 1,44,-1
 98 478 l 1,0,-1
EndSplineSet
EndChar

StartChar: acute
Encoding: 180 180 95
AltUni2: 00e9cb.ffffffff.0 00e9cb.ffffffff.0
Width: 320
GlyphClass: 1
Flags: W
LayerCount: 2
Fore
SplineSet
248 715 m 1,0,1
 263 727 263 727 282 727 c 0,2,3
 310 727 310 727 326 706 c 0,4,5
 341 688 341 688 338.5 665.5 c 128,-1,6
 336 643 336 643 318 628 c 0,7,8
 316 626 316 626 302 617.5 c 128,-1,9
 288 609 288 609 271 599 c 0,10,11
 252 588 252 588 228 574 c 1,12,-1
 105 574 l 1,13,14
 145 613 145 613 176 644 c 0,15,16
 189 657 189 657 202 670 c 128,-1,17
 215 683 215 683 225 693 c 128,-1,18
 235 703 235 703 241.5 709 c 128,-1,19
 248 715 248 715 248 715 c 1,20,-1
 248 715 l 1,0,1
EndSplineSet
Substitution2: "'case' Case-Sensitive Forms lookup 1 subtable" acute.case
EndChar

StartChar: uni03BC
Encoding: 956 956 96
AltUni2: 00e945.ffffffff.0 00e945.ffffffff.0
Width: 577
GlyphClass: 1
Flags: W
LayerCount: 2
Fore
SplineSet
85 495 m 1,0,-1
 240 495 l 1,1,-1
 184 231 l 2,2,3
 177 195 177 195 177.5 171.5 c 128,-1,4
 178 148 178 148 185.5 134 c 128,-1,5
 193 120 193 120 206 113.5 c 128,-1,6
 219 107 219 107 236 106 c 0,7,8
 279 103 279 103 306 131.5 c 128,-1,9
 333 160 333 160 348 231 c 2,10,-1
 404 495 l 1,11,-1
 560 495 l 1,12,-1
 455 0 l 1,13,-1
 314 0 l 1,14,-1
 310 43 l 1,15,16
 296 20 296 20 270 7.5 c 128,-1,17
 244 -5 244 -5 217 -5 c 0,18,19
 192 -5 192 -5 171.5 6 c 128,-1,20
 151 17 151 17 143 40 c 1,21,-1
 101 -161 l 1,22,-1
 -55 -161 l 1,23,-1
 85 495 l 1,24,-1
 85 495 l 1,0,-1
EndSplineSet
EndChar

StartChar: paragraph
Encoding: 182 182 97
AltUni2: 00e946.ffffffff.0 00e946.ffffffff.0
Width: 530
GlyphClass: 1
Flags: W
LayerCount: 2
Fore
SplineSet
56 478 m 1,0,1
 65 517 65 517 87 552 c 128,-1,2
 109 587 109 587 140 612.5 c 128,-1,3
 171 638 171 638 209 653 c 128,-1,4
 247 668 247 668 286 668 c 2,5,-1
 573 668 l 1,6,-1
 558 600 l 1,7,-1
 510 600 l 1,8,-1
 348 -161 l 1,9,-1
 253 -161 l 1,10,-1
 414 600 l 1,11,-1
 321 600 l 1,12,-1
 159 -161 l 1,13,-1
 63 -161 l 1,14,-1
 160 296 l 1,15,16
 131 304 131 304 108.5 321 c 128,-1,17
 86 338 86 338 72 362 c 128,-1,18
 58 386 58 386 53.5 415.5 c 128,-1,19
 49 445 49 445 56 478 c 1,20,-1
 56 478 l 1,0,1
EndSplineSet
EndChar

StartChar: periodcentered
Encoding: 183 183 98
AltUni2: 00e947.ffffffff.0 00e947.ffffffff.0
Width: 305
GlyphClass: 1
Flags: W
LayerCount: 2
Fore
SplineSet
38 248 m 1,0,1
 38 289 38 289 66.5 317 c 128,-1,2
 95 345 95 345 136 345 c 0,3,4
 156 345 156 345 173.5 337.5 c 128,-1,5
 191 330 191 330 204.5 317 c 128,-1,6
 218 304 218 304 225.5 286 c 128,-1,7
 233 268 233 268 233 248 c 256,8,9
 233 228 233 228 225.5 210 c 128,-1,10
 218 192 218 192 204.5 179 c 128,-1,11
 191 166 191 166 173.5 158.5 c 128,-1,12
 156 151 156 151 136 151 c 0,13,14
 95 151 95 151 66.5 179 c 128,-1,15
 38 207 38 207 38 248 c 1,16,-1
 38 248 l 1,0,1
EndSplineSet
EndChar

StartChar: cedilla
Encoding: 184 184 99
AltUni2: 00e9cd.ffffffff.0 00e9cd.ffffffff.0
Width: 322
GlyphClass: 1
Flags: W
LayerCount: 2
Fore
SplineSet
-9 -128 m 1,0,1
 20 -141 20 -141 51 -141 c 0,2,3
 71 -141 71 -141 86 -134 c 128,-1,4
 101 -127 101 -127 103 -111 c 0,5,6
 105 -99 105 -99 93 -91.5 c 128,-1,7
 81 -84 81 -84 64 -84 c 0,8,9
 58 -84 58 -84 52 -85 c 128,-1,10
 46 -86 46 -86 40 -88 c 0,11,12
 27 -92 27 -92 19 -81 c 128,-1,13
 11 -70 11 -70 22 -57 c 2,14,-1
 91 26 l 1,15,-1
 127 1 l 1,16,-1
 87 -47 l 1,17,18
 109 -43 109 -43 129.5 -45 c 128,-1,19
 150 -47 150 -47 165 -55.5 c 128,-1,20
 180 -64 180 -64 188 -78 c 128,-1,21
 196 -92 196 -92 194 -112 c 0,22,23
 191 -136 191 -136 178.5 -152 c 128,-1,24
 166 -168 166 -168 147.5 -177.5 c 128,-1,25
 129 -187 129 -187 106.5 -191 c 128,-1,26
 84 -195 84 -195 61 -195 c 0,27,28
 30 -195 30 -195 4 -189.5 c 128,-1,29
 -22 -184 -22 -184 -35 -178 c 1,30,-1
 -9 -128 l 1,31,-1
 -9 -128 l 1,0,1
EndSplineSet
EndChar

StartChar: uni00B9
Encoding: 185 185 100
AltUni2: 00e948.ffffffff.0 00e948.ffffffff.0
Width: 294
GlyphClass: 1
Flags: W
LayerCount: 2
Fore
SplineSet
121 647 m 1,0,-1
 140 735 l 1,1,2
 180 735 180 735 207 741.5 c 128,-1,3
 234 748 234 748 255 779 c 1,4,-1
 337 779 l 1,5,-1
 257 403 l 1,6,-1
 153 403 l 1,7,-1
 205 647 l 1,8,-1
 121 647 l 1,9,-1
 121 647 l 1,0,-1
EndSplineSet
EndChar

StartChar: ordmasculine
Encoding: 186 186 101
AltUni2: 00e949.ffffffff.0 00e949.ffffffff.0
Width: 412
GlyphClass: 1
Flags: W
LayerCount: 2
Fore
SplineSet
103 543 m 1,0,1
 107 581 107 581 122 608.5 c 128,-1,2
 137 636 137 636 160 654 c 128,-1,3
 183 672 183 672 211.5 680.5 c 128,-1,4
 240 689 240 689 271 689 c 256,5,6
 302 689 302 689 329 680.5 c 128,-1,7
 356 672 356 672 374.5 654 c 128,-1,8
 393 636 393 636 402 608.5 c 128,-1,9
 411 581 411 581 407 543 c 256,10,11
 403 505 403 505 388 477.5 c 128,-1,12
 373 450 373 450 350.5 432 c 128,-1,13
 328 414 328 414 299.5 405 c 128,-1,14
 271 396 271 396 240 396 c 256,15,16
 209 396 209 396 182 405 c 128,-1,17
 155 414 155 414 136 432 c 128,-1,18
 117 450 117 450 108 477.5 c 128,-1,19
 99 505 99 505 103 543 c 1,20,-1
 103 543 l 1,0,1
248 473 m 1,21,22
 269 473 269 473 284.5 490 c 128,-1,23
 300 507 300 507 304 543 c 0,24,25
 308 578 308 578 295.5 595 c 128,-1,26
 283 612 283 612 263 612 c 0,27,28
 242 612 242 612 226 595 c 128,-1,29
 210 578 210 578 206 543 c 0,30,31
 202 507 202 507 214.5 490 c 128,-1,32
 227 473 227 473 248 473 c 1,33,-1
 248 473 l 1,21,22
EndSplineSet
EndChar

StartChar: guillemotright
Encoding: 187 187 102
AltUni2: 00e94a.ffffffff.0 00e94a.ffffffff.0
Width: 666
GlyphClass: 1
Flags: W
LayerCount: 2
Fore
SplineSet
-8 40 m 1,0,-1
 189 256 l 1,1,-1
 89 460 l 1,2,-1
 253 460 l 1,3,-1
 356 250 l 1,4,-1
 163 40 l 1,5,-1
 -8 40 l 1,0,-1
429 256 m 1,6,-1
 329 460 l 1,7,-1
 493 460 l 1,8,-1
 596 250 l 1,9,-1
 403 40 l 1,10,-1
 232 40 l 1,11,-1
 429 256 l 1,6,-1
EndSplineSet
EndChar

StartChar: onequarter
Encoding: 188 188 103
AltUni2: 00e94b.ffffffff.0 00e94b.ffffffff.0
Width: 930
GlyphClass: 1
Flags: W
LayerCount: 2
Fore
SplineSet
116 623 m 1,0,1
 156 623 156 623 183 630 c 128,-1,2
 210 637 210 637 231 668 c 1,3,-1
 313 668 l 1,4,-1
 233 292 l 1,5,-1
 129 292 l 1,6,-1
 181 536 l 1,7,-1
 97 536 l 1,8,-1
 116 623 l 1,9,-1
 116 623 l 1,0,1
597 667 m 1,10,-1
 724 667 l 1,11,-1
 256 0 l 1,12,-1
 129 0 l 1,13,-1
 597 667 l 1,10,-1
470 75 m 1,14,-1
 487 152 l 1,15,-1
 715 375 l 1,16,-1
 829 375 l 1,17,-1
 784 161 l 1,18,-1
 841 161 l 1,19,-1
 822 75 l 1,20,-1
 765 75 l 1,21,-1
 749 0 l 1,22,-1
 646 0 l 1,23,-1
 662 75 l 1,24,-1
 470 75 l 1,14,-1
680 161 m 1,25,-1
 700 257 l 1,26,-1
 602 161 l 1,27,-1
 680 161 l 1,25,-1
EndSplineSet
Ligature2: "'frac' Diagonal Fractions lookup 2 subtable" one slash four
EndChar

StartChar: onehalf
Encoding: 189 189 104
AltUni2: 00e94c.ffffffff.0 00e94c.ffffffff.0
Width: 919
GlyphClass: 1
Flags: W
LayerCount: 2
Fore
SplineSet
513 81 m 1,0,1
 551 102 551 102 591.5 124.5 c 128,-1,2
 632 147 632 147 665.5 171 c 128,-1,3
 699 195 699 195 721.5 219 c 128,-1,4
 744 243 744 243 747 267 c 0,5,6
 749 288 749 288 734.5 298 c 128,-1,7
 720 308 720 308 702 308 c 0,8,9
 657 308 657 308 642 264 c 1,10,-1
 558 297 l 1,11,12
 599 384 599 384 714 384 c 0,13,14
 744 384 744 384 770 378.5 c 128,-1,15
 796 373 796 373 815 361 c 128,-1,16
 834 349 834 349 844.5 329.5 c 128,-1,17
 855 310 855 310 854 283 c 0,18,19
 853 254 853 254 836.5 225.5 c 128,-1,20
 820 197 820 197 793 171.5 c 128,-1,21
 766 146 766 146 733 124.5 c 128,-1,22
 700 103 700 103 666 88 c 1,23,-1
 815 88 l 1,24,-1
 796 0 l 1,25,-1
 496 0 l 1,26,-1
 513 81 l 1,27,-1
 513 81 l 1,0,1
116 623 m 1,28,29
 156 623 156 623 183 630 c 128,-1,30
 210 637 210 637 231 668 c 1,31,-1
 313 668 l 1,32,-1
 233 292 l 1,33,-1
 129 292 l 1,34,-1
 181 536 l 1,35,-1
 97 536 l 1,36,-1
 116 623 l 1,37,-1
 116 623 l 1,28,29
129 0 m 1,38,-1
 597 667 l 1,39,-1
 724 667 l 1,40,-1
 256 0 l 1,41,-1
 129 0 l 1,38,-1
EndSplineSet
Ligature2: "'frac' Diagonal Fractions lookup 2 subtable" one slash two
EndChar

StartChar: threequarters
Encoding: 190 190 105
AltUni2: 00e94d.ffffffff.0 00e94d.ffffffff.0
Width: 958
GlyphClass: 1
Flags: W
LayerCount: 2
Fore
SplineSet
173 403 m 1,0,1
 187 364 187 364 231 364 c 0,2,3
 253 364 253 364 267 375.5 c 128,-1,4
 281 387 281 387 282 403 c 0,5,6
 284 426 284 426 265.5 435 c 128,-1,7
 247 444 247 444 210 444 c 2,8,-1
 195 444 l 1,9,-1
 213 528 l 1,10,-1
 228 528 l 2,11,12
 260 528 260 528 279.5 538 c 128,-1,13
 299 548 299 548 301 568 c 0,14,15
 304 587 304 587 288 596 c 128,-1,16
 272 605 272 605 255 605 c 0,17,18
 237 605 237 605 221 598 c 128,-1,19
 205 591 205 591 194 568 c 1,20,-1
 111 600 l 1,21,22
 134 640 134 640 170.5 659.5 c 128,-1,23
 207 679 207 679 263 679 c 0,24,25
 293 679 293 679 319.5 672.5 c 128,-1,26
 346 666 346 666 365.5 653 c 128,-1,27
 385 640 385 640 395.5 620.5 c 128,-1,28
 406 601 406 601 405 575 c 0,29,30
 403 543 403 543 385.5 521 c 128,-1,31
 368 499 368 499 339 490 c 1,32,33
 362 479 362 479 376.5 454.5 c 128,-1,34
 391 430 391 430 386 397 c 0,35,36
 382 370 382 370 368 349.5 c 128,-1,37
 354 329 354 329 333 315.5 c 128,-1,38
 312 302 312 302 285.5 295 c 128,-1,39
 259 288 259 288 230 288 c 0,40,41
 179 288 179 288 138.5 308.5 c 128,-1,42
 98 329 98 329 75 370 c 1,43,-1
 173 403 l 1,44,-1
 173 403 l 1,0,1
198 0 m 1,45,-1
 666 667 l 1,46,-1
 793 667 l 1,47,-1
 325 0 l 1,48,-1
 198 0 l 1,45,-1
515 152 m 1,49,-1
 744 375 l 1,50,-1
 858 375 l 1,51,-1
 812 161 l 1,52,-1
 869 161 l 1,53,-1
 851 75 l 1,54,-1
 794 75 l 1,55,-1
 778 0 l 1,56,-1
 674 0 l 1,57,-1
 690 75 l 1,58,-1
 499 75 l 1,59,-1
 515 152 l 1,49,-1
709 161 m 1,60,-1
 729 257 l 1,61,-1
 630 161 l 1,62,-1
 709 161 l 1,60,-1
EndSplineSet
Ligature2: "'frac' Diagonal Fractions lookup 2 subtable" three slash four
EndChar

StartChar: less
Encoding: 60 60 106
AltUni2: 00e923.ffffffff.0 00e923.ffffffff.0
Width: 640
GlyphClass: 1
Flags: W
LayerCount: 2
Fore
SplineSet
527 510 m 1,0,-1
 527 368 l 1,1,-1
 203 250 l 1,2,-1
 527 130 l 1,3,-1
 527 -12 l 1,4,-1
 34 200 l 1,5,-1
 34 299 l 1,6,-1
 527 510 l 1,0,-1
EndSplineSet
EndChar

StartChar: equal
Encoding: 61 61 107
AltUni2: 00e924.ffffffff.0 00e924.ffffffff.0
Width: 685
GlyphClass: 1
Flags: W
LayerCount: 2
Fore
SplineSet
60 283 m 1,0,-1
 60 410 l 1,1,-1
 572 410 l 1,2,-1
 572 283 l 1,3,-1
 60 283 l 1,0,-1
572 225 m 1,4,-1
 572 96 l 1,5,-1
 60 96 l 1,6,-1
 60 225 l 1,7,-1
 572 225 l 1,4,-1
EndSplineSet
EndChar

StartChar: greater
Encoding: 62 62 108
AltUni2: 00e925.ffffffff.0 00e925.ffffffff.0
Width: 638
GlyphClass: 1
Flags: W
LayerCount: 2
Fore
SplineSet
78 368 m 1,0,-1
 78 510 l 1,1,-1
 571 299 l 1,2,-1
 571 200 l 1,3,-1
 78 -12 l 1,4,-1
 78 130 l 1,5,-1
 403 250 l 1,6,-1
 78 368 l 1,0,-1
EndSplineSet
EndChar

StartChar: question
Encoding: 63 63 109
AltUni2: 00e926.ffffffff.0 00e926.ffffffff.0
Width: 634
GlyphClass: 1
Flags: W
LayerCount: 2
Fore
SplineSet
368 680 m 1,0,1
 418 680 418 680 467 670.5 c 128,-1,2
 516 661 516 661 553 640 c 128,-1,3
 590 619 590 619 609.5 584.5 c 128,-1,4
 629 550 629 550 620 499 c 0,5,6
 614 467 614 467 599.5 443 c 128,-1,7
 585 419 585 419 564.5 401 c 128,-1,8
 544 383 544 383 519 369.5 c 128,-1,9
 494 356 494 356 468 345 c 256,10,11
 442 334 442 334 422.5 324 c 128,-1,12
 403 314 403 314 388.5 302.5 c 128,-1,13
 374 291 374 291 364 277 c 128,-1,14
 354 263 354 263 346 243 c 1,15,-1
 185 243 l 1,16,17
 193 303 193 303 231 344 c 128,-1,18
 269 385 269 385 326 411 c 0,19,20
 345 420 345 420 366 428.5 c 128,-1,21
 387 437 387 437 405 447.5 c 128,-1,22
 423 458 423 458 435 470 c 128,-1,23
 447 482 447 482 448 497 c 0,24,25
 450 526 450 526 425.5 539 c 128,-1,26
 401 552 401 552 356 552 c 0,27,28
 308 552 308 552 272.5 535 c 128,-1,29
 237 518 237 518 223 486 c 1,30,-1
 85 541 l 1,31,32
 128 617 128 617 201 648.5 c 128,-1,33
 274 680 274 680 368 680 c 1,34,-1
 368 680 l 1,0,1
237 183 m 1,35,36
 278 183 278 183 306.5 155 c 128,-1,37
 335 127 335 127 335 86 c 256,38,39
 335 45 335 45 306.5 16.5 c 128,-1,40
 278 -12 278 -12 237 -12 c 0,41,42
 217 -12 217 -12 199.5 -4.5 c 128,-1,43
 182 3 182 3 168.5 16.5 c 128,-1,44
 155 30 155 30 147.5 48 c 128,-1,45
 140 66 140 66 140 86 c 256,46,47
 140 106 140 106 147.5 124 c 128,-1,48
 155 142 155 142 168.5 155 c 128,-1,49
 182 168 182 168 199.5 175.5 c 128,-1,50
 217 183 217 183 237 183 c 1,51,-1
 237 183 l 1,35,36
EndSplineSet
EndChar

StartChar: at
Encoding: 64 64 110
AltUni2: 00e92c.ffffffff.0 00e92c.ffffffff.0
Width: 757
GlyphClass: 1
Flags: W
LayerCount: 2
Fore
SplineSet
389 680 m 1,0,1
 454 680 454 680 518.5 654 c 128,-1,2
 583 628 583 628 632 580.5 c 128,-1,3
 681 533 681 533 706.5 466 c 128,-1,4
 732 399 732 399 719 316 c 0,5,6
 712 273 712 273 694 242.5 c 128,-1,7
 676 212 676 212 652 192 c 128,-1,8
 628 172 628 172 599.5 162.5 c 128,-1,9
 571 153 571 153 544 153 c 0,10,11
 505 153 505 153 474 171 c 128,-1,12
 443 189 443 189 433 224 c 1,13,14
 405 188 405 188 370.5 170.5 c 128,-1,15
 336 153 336 153 302 153 c 0,16,17
 275 153 275 153 250.5 164 c 128,-1,18
 226 175 226 175 209.5 196 c 128,-1,19
 193 217 193 217 187 247.5 c 128,-1,20
 181 278 181 278 189 317 c 0,21,22
 201 374 201 374 225.5 412.5 c 128,-1,23
 250 451 250 451 283 474.5 c 128,-1,24
 316 498 316 498 354 508 c 128,-1,25
 392 518 392 518 431 518 c 0,26,27
 462 518 462 518 492 512.5 c 128,-1,28
 522 507 522 507 548 498 c 1,29,30
 540 462 540 462 533 428 c 0,31,32
 526 399 526 399 519.5 367 c 128,-1,33
 513 335 513 335 508 312 c 0,34,35
 503 288 503 288 505 272.5 c 128,-1,36
 507 257 507 257 514 248 c 128,-1,37
 521 239 521 239 531.5 235 c 128,-1,38
 542 231 542 231 553 231 c 0,39,40
 575 231 575 231 591 239 c 0,41,42
 621 253 621 253 636.5 288 c 128,-1,43
 652 323 652 323 651.5 365.5 c 128,-1,44
 651 408 651 408 633.5 453 c 128,-1,45
 616 498 616 498 580 533 c 0,46,47
 541 571 541 571 492 590.5 c 128,-1,48
 443 610 443 610 389 610 c 0,49,50
 331 610 331 610 281 588 c 128,-1,51
 231 566 231 566 193.5 528 c 128,-1,52
 156 490 156 490 134.5 440 c 128,-1,53
 113 390 113 390 113 333 c 256,54,55
 113 276 113 276 135 225.5 c 128,-1,56
 157 175 157 175 194.5 138 c 128,-1,57
 232 101 232 101 282 79.5 c 128,-1,58
 332 58 332 58 389 58 c 0,59,60
 427 58 427 58 460 67 c 128,-1,61
 493 76 493 76 525 94 c 1,62,-1
 525 16 l 1,63,64
 461 -12 461 -12 389 -12 c 0,65,66
 318 -12 318 -12 255 15 c 128,-1,67
 192 42 192 42 145 89 c 128,-1,68
 98 136 98 136 71 199 c 128,-1,69
 44 262 44 262 44 333 c 0,70,71
 44 405 44 405 71 468 c 128,-1,72
 98 531 98 531 145 578 c 128,-1,73
 192 625 192 625 255 652.5 c 128,-1,74
 318 680 318 680 389 680 c 1,75,-1
 389 680 l 1,0,1
414 339 m 1,76,77
 421 371 421 371 424.5 388 c 128,-1,78
 428 405 428 405 430 413 c 0,79,80
 432 423 432 423 432 425 c 0,81,82
 415 428 415 428 393.5 427.5 c 128,-1,83
 372 427 372 427 351.5 416.5 c 128,-1,84
 331 406 331 406 313.5 383 c 128,-1,85
 296 360 296 360 287 319 c 0,86,87
 279 284 279 284 292.5 267 c 128,-1,88
 306 250 306 250 328 250 c 0,89,90
 352 250 352 250 378.5 272 c 128,-1,91
 405 294 405 294 414 339 c 1,92,-1
 414 339 l 1,76,77
EndSplineSet
EndChar

StartChar: colon
Encoding: 58 58 111
AltUni2: 00e921.ffffffff.0 00e921.ffffffff.0
Width: 281
GlyphClass: 1
Flags: W
LayerCount: 2
Fore
SplineSet
159 511 m 1,0,1
 200 511 200 511 228 482.5 c 128,-1,2
 256 454 256 454 256 413 c 0,3,4
 256 393 256 393 248.5 375.5 c 128,-1,5
 241 358 241 358 228 344.5 c 128,-1,6
 215 331 215 331 197 323.5 c 128,-1,7
 179 316 179 316 159 316 c 256,8,9
 139 316 139 316 121 323.5 c 128,-1,10
 103 331 103 331 89.5 344.5 c 128,-1,11
 76 358 76 358 68.5 375.5 c 128,-1,12
 61 393 61 393 61 413 c 0,13,14
 61 454 61 454 89.5 482.5 c 128,-1,15
 118 511 118 511 159 511 c 1,16,-1
 159 511 l 1,0,1
-9 86 m 1,17,18
 -9 127 -9 127 19.5 155 c 128,-1,19
 48 183 48 183 89 183 c 0,20,21
 109 183 109 183 126.5 175.5 c 128,-1,22
 144 168 144 168 157.5 155 c 128,-1,23
 171 142 171 142 178.5 124 c 128,-1,24
 186 106 186 106 186 86 c 256,25,26
 186 66 186 66 178.5 48 c 128,-1,27
 171 30 171 30 157.5 16.5 c 128,-1,28
 144 3 144 3 126.5 -4.5 c 128,-1,29
 109 -12 109 -12 89 -12 c 0,30,31
 48 -12 48 -12 19.5 16.5 c 128,-1,32
 -9 45 -9 45 -9 86 c 1,33,-1
 -9 86 l 1,17,18
EndSplineSet
EndChar

StartChar: semicolon
Encoding: 59 59 112
AltUni2: 00e922.ffffffff.0 00e922.ffffffff.0
Width: 282
GlyphClass: 1
Flags: W
LayerCount: 2
Fore
SplineSet
49 -3 m 1,0,1
 19 11 19 11 2.5 40.5 c 128,-1,2
 -14 70 -14 70 -7 104 c 0,3,4
 -3 124 -3 124 7.5 140 c 128,-1,5
 18 156 18 156 33.5 166.5 c 128,-1,6
 49 177 49 177 68 181.5 c 128,-1,7
 87 186 87 186 107 182 c 256,8,9
 127 178 127 178 143.5 167.5 c 128,-1,10
 160 157 160 157 170.5 141.5 c 128,-1,11
 181 126 181 126 185.5 107 c 128,-1,12
 190 88 190 88 185 68 c 256,13,14
 180 48 180 48 172 34 c 2,15,-1
 59 -146 l 1,16,-1
 -40 -146 l 1,17,-1
 49 -3 l 1,18,-1
 49 -3 l 1,0,1
62 413 m 1,19,20
 62 433 62 433 69.5 451 c 128,-1,21
 77 469 77 469 90.5 482.5 c 128,-1,22
 104 496 104 496 121.5 503.5 c 128,-1,23
 139 511 139 511 159 511 c 0,24,25
 200 511 200 511 228.5 482.5 c 128,-1,26
 257 454 257 454 257 413 c 0,27,28
 257 393 257 393 249.5 375.5 c 128,-1,29
 242 358 242 358 228.5 344.5 c 128,-1,30
 215 331 215 331 197 323.5 c 128,-1,31
 179 316 179 316 159 316 c 256,32,33
 139 316 139 316 121.5 323.5 c 128,-1,34
 104 331 104 331 90.5 344.5 c 128,-1,35
 77 358 77 358 69.5 375.5 c 128,-1,36
 62 393 62 393 62 413 c 1,37,-1
 62 413 l 1,19,20
EndSplineSet
EndChar

StartChar: bracketleft
Encoding: 91 91 113
AltUni2: 00e927.ffffffff.0 00e927.ffffffff.0
Width: 340
GlyphClass: 1
Flags: W
LayerCount: 2
Fore
SplineSet
226 552 m 1,0,-1
 99 -46 l 1,1,-1
 227 -46 l 1,2,-1
 202 -161 l 1,3,-1
 -57 -161 l 1,4,-1
 119 668 l 1,5,-1
 378 668 l 1,6,-1
 353 552 l 1,7,-1
 226 552 l 1,0,-1
EndSplineSet
EndChar

StartChar: backslash
Encoding: 92 92 114
AltUni2: 00e928.ffffffff.0 00e928.ffffffff.0
Width: 584
GlyphClass: 1
Flags: W
LayerCount: 2
Fore
SplineSet
499 0 m 1,0,-1
 348 0 l 1,1,-1
 87 668 l 1,2,-1
 240 668 l 1,3,-1
 499 0 l 1,0,-1
EndSplineSet
EndChar

StartChar: bracketright
Encoding: 93 93 115
AltUni2: 00e929.ffffffff.0 00e929.ffffffff.0
Width: 342
GlyphClass: 1
Flags: W
LayerCount: 2
Fore
SplineSet
364 668 m 1,0,-1
 188 -161 l 1,1,-1
 -71 -161 l 1,2,-1
 -46 -46 l 1,3,-1
 82 -46 l 1,4,-1
 209 552 l 1,5,-1
 81 552 l 1,6,-1
 105 668 l 1,7,-1
 364 668 l 1,0,-1
EndSplineSet
EndChar

StartChar: asciicircum
Encoding: 94 94 116
AltUni2: 00e92a.ffffffff.0 00e92a.ffffffff.0
Width: 589
GlyphClass: 1
Flags: W
LayerCount: 2
Fore
SplineSet
234 668 m 1,0,-1
 347 668 l 1,1,-1
 532 312 l 1,2,-1
 389 312 l 1,3,-1
 291 506 l 1,4,-1
 192 312 l 1,5,-1
 49 312 l 1,6,-1
 234 668 l 1,0,-1
EndSplineSet
EndChar

StartChar: underscore
Encoding: 95 95 117
AltUni2: 00e92b.ffffffff.0 00e92b.ffffffff.0
Width: 457
GlyphClass: 1
Flags: W
LayerCount: 2
Fore
SplineSet
-30 -128 m 1,0,-1
 -30 0 l 1,1,-1
 380 0 l 1,2,-1
 380 -128 l 1,3,-1
 -30 -128 l 1,0,-1
EndSplineSet
EndChar

StartChar: grave
Encoding: 96 96 118
AltUni2: 00e932.ffffffff.0 00e932.ffffffff.0
Width: 315
GlyphClass: 1
Flags: W
LayerCount: 2
Fore
SplineSet
148 714 m 1,0,1
 156 721 156 721 165 724 c 128,-1,2
 174 727 174 727 183 727 c 0,3,4
 195 727 195 727 206.5 722 c 128,-1,5
 218 717 218 717 226 706 c 0,6,7
 236 694 236 694 250.5 672 c 128,-1,8
 265 650 265 650 279 628 c 0,9,10
 296 602 296 602 314 574 c 1,11,-1
 206 574 l 1,12,13
 192 586 192 586 179 597 c 0,14,15
 168 607 168 607 157 617 c 128,-1,16
 146 627 146 627 139 635 c 0,17,18
 125 654 125 654 127.5 676.5 c 128,-1,19
 130 699 130 699 148 714 c 1,20,-1
 148 714 l 1,0,1
EndSplineSet
Substitution2: "'case' Case-Sensitive Forms lookup 1 subtable" grave.case
EndChar

StartChar: exclam
Encoding: 33 33 119
AltUni2: 00e90f.ffffffff.0 00e90f.ffffffff.0
Width: 297
GlyphClass: 1
Flags: W
LayerCount: 2
Fore
SplineSet
-2 86 m 1,0,1
 -2 127 -2 127 26.5 155.5 c 128,-1,2
 55 184 55 184 96 184 c 0,3,4
 116 184 116 184 133.5 176.5 c 128,-1,5
 151 169 151 169 164.5 155.5 c 128,-1,6
 178 142 178 142 185.5 124 c 128,-1,7
 193 106 193 106 193 86 c 256,8,9
 193 66 193 66 185.5 48 c 128,-1,10
 178 30 178 30 164.5 16.5 c 128,-1,11
 151 3 151 3 133.5 -4.5 c 128,-1,12
 116 -12 116 -12 96 -12 c 0,13,14
 55 -12 55 -12 26.5 16.5 c 128,-1,15
 -2 45 -2 45 -2 86 c 1,16,-1
 -2 86 l 1,0,1
82 496 m 1,17,-1
 119 668 l 1,18,-1
 317 668 l 1,19,-1
 280 496 l 1,20,-1
 185 243 l 1,21,-1
 70 243 l 1,22,-1
 82 496 l 1,17,-1
EndSplineSet
EndChar

StartChar: quotedbl
Encoding: 34 34 120
AltUni2: 00e911.ffffffff.0 00e911.ffffffff.0
Width: 444
GlyphClass: 1
Flags: W
LayerCount: 2
Fore
SplineSet
244 668 m 1,0,-1
 230 434 l 1,1,-1
 116 434 l 1,2,-1
 102 668 l 1,3,-1
 244 668 l 1,0,-1
432 668 m 1,4,-1
 418 434 l 1,5,-1
 305 434 l 1,6,-1
 290 668 l 1,7,-1
 432 668 l 1,4,-1
EndSplineSet
EndChar

StartChar: numbersign
Encoding: 35 35 121
AltUni2: 00e913.ffffffff.0 00e913.ffffffff.0
Width: 752
GlyphClass: 1
Flags: W
LayerCount: 2
Fore
SplineSet
9 127 m 1,0,-1
 29 266 l 1,1,-1
 157 266 l 1,2,-1
 177 401 l 1,3,-1
 49 401 l 1,4,-1
 69 541 l 1,5,-1
 197 541 l 1,6,-1
 216 668 l 1,7,-1
 356 668 l 1,8,-1
 337 541 l 1,9,-1
 474 541 l 1,10,-1
 493 668 l 1,11,-1
 634 668 l 1,12,-1
 615 541 l 1,13,-1
 744 541 l 1,14,-1
 723 402 l 1,15,-1
 595 402 l 1,16,-1
 576 267 l 1,17,-1
 704 267 l 1,18,-1
 684 127 l 1,19,-1
 555 127 l 1,20,-1
 537 0 l 1,21,-1
 396 0 l 1,22,-1
 414 127 l 1,23,-1
 278 127 l 1,24,-1
 260 0 l 1,25,-1
 119 0 l 1,26,-1
 137 127 l 1,27,-1
 9 127 l 1,0,-1
435 267 m 1,28,-1
 454 401 l 1,29,-1
 317 401 l 1,30,-1
 298 267 l 1,31,-1
 435 267 l 1,28,-1
EndSplineSet
EndChar

StartChar: dollar
Encoding: 36 36 122
AltUni2: 00e914.ffffffff.0 00e914.ffffffff.0
Width: 643
GlyphClass: 1
Flags: W
LayerCount: 2
Fore
SplineSet
10 157 m 1,0,-1
 165 210 l 1,1,2
 171 181 171 181 190 161 c 128,-1,3
 209 141 209 141 235 130 c 1,4,-1
 266 280 l 1,5,6
 227 293 227 293 187.5 309 c 128,-1,7
 148 325 148 325 118 350.5 c 128,-1,8
 88 376 88 376 72 413 c 128,-1,9
 56 450 56 450 63 505 c 0,10,11
 68 541 68 541 88 573 c 128,-1,12
 108 605 108 605 144 629 c 128,-1,13
 180 653 180 653 232 666.5 c 128,-1,14
 284 680 284 680 352 680 c 1,15,-1
 366 747 l 1,16,-1
 441 747 l 1,17,-1
 425 671 l 1,18,19
 480 658 480 658 528 626 c 128,-1,20
 576 594 576 594 607 536 c 1,21,-1
 452 484 l 1,22,23
 445 503 445 503 430.5 516.5 c 128,-1,24
 416 530 416 530 397 538 c 1,25,-1
 367 398 l 1,26,27
 407 386 407 386 448.5 372 c 128,-1,28
 490 358 490 358 522.5 335 c 128,-1,29
 555 312 555 312 574 276.5 c 128,-1,30
 593 241 593 241 588 187 c 0,31,32
 584 139 584 139 559 100.5 c 128,-1,33
 534 62 534 62 493 36 c 128,-1,34
 452 10 452 10 397.5 -2 c 128,-1,35
 343 -14 343 -14 280 -11 c 1,36,-1
 264 -86 l 1,37,-1
 188 -86 l 1,38,-1
 207 -1 l 1,39,40
 135 16 135 16 84 56.5 c 128,-1,41
 33 97 33 97 10 157 c 1,42,-1
 10 157 l 1,0,-1
307 115 m 1,43,44
 330 114 330 114 351 118 c 128,-1,45
 372 122 372 122 388.5 130.5 c 128,-1,46
 405 139 405 139 415 151 c 128,-1,47
 425 163 425 163 425 179 c 0,48,49
 425 208 425 208 400 225 c 128,-1,50
 375 242 375 242 337 256 c 1,51,-1
 307 115 l 1,52,-1
 307 115 l 1,43,44
224 493 m 1,53,54
 224 466 224 466 244 449.5 c 128,-1,55
 264 433 264 433 296 421 c 1,56,-1
 324 552 l 1,57,58
 275 550 275 550 249.5 534 c 128,-1,59
 224 518 224 518 224 493 c 1,60,-1
 224 493 l 1,53,54
EndSplineSet
EndChar

StartChar: percent
Encoding: 37 37 123
AltUni2: 00e915.ffffffff.0 00e915.ffffffff.0
Width: 1044
GlyphClass: 1
Flags: W
LayerCount: 2
Fore
SplineSet
58 483 m 1,0,1
 63 524 63 524 82 560 c 128,-1,2
 101 596 101 596 130.5 622.5 c 128,-1,3
 160 649 160 649 197.5 664.5 c 128,-1,4
 235 680 235 680 276 680 c 256,5,6
 317 680 317 680 351.5 664.5 c 128,-1,7
 386 649 386 649 410 622.5 c 128,-1,8
 434 596 434 596 445.5 560 c 128,-1,9
 457 524 457 524 453 483 c 256,10,11
 449 442 449 442 429.5 406 c 128,-1,12
 410 370 410 370 380.5 343.5 c 128,-1,13
 351 317 351 317 313.5 301.5 c 128,-1,14
 276 286 276 286 235 286 c 256,15,16
 194 286 194 286 159.5 301.5 c 128,-1,17
 125 317 125 317 101 343.5 c 128,-1,18
 77 370 77 370 65.5 406 c 128,-1,19
 54 442 54 442 58 483 c 1,20,-1
 58 483 l 1,0,1
594 185 m 1,21,22
 598 226 598 226 617.5 262 c 128,-1,23
 637 298 637 298 666.5 324.5 c 128,-1,24
 696 351 696 351 733.5 366.5 c 128,-1,25
 771 382 771 382 812 382 c 256,26,27
 853 382 853 382 887 366.5 c 128,-1,28
 921 351 921 351 945 324.5 c 128,-1,29
 969 298 969 298 980.5 262 c 128,-1,30
 992 226 992 226 988 185 c 256,31,32
 984 144 984 144 964.5 108 c 128,-1,33
 945 72 945 72 915.5 45.5 c 128,-1,34
 886 19 886 19 848.5 3.5 c 128,-1,35
 811 -12 811 -12 770 -12 c 256,36,37
 729 -12 729 -12 695 3.5 c 128,-1,38
 661 19 661 19 637 45.5 c 128,-1,39
 613 72 613 72 601.5 108 c 128,-1,40
 590 144 590 144 594 185 c 1,41,-1
 594 185 l 1,21,22
783 107 m 1,42,43
 815 107 815 107 840.5 129.5 c 128,-1,44
 866 152 866 152 870 185 c 0,45,46
 873 217 873 217 852.5 240 c 128,-1,47
 832 263 832 263 799 263 c 0,48,49
 783 263 783 263 768 257 c 128,-1,50
 753 251 753 251 741 240.5 c 128,-1,51
 729 230 729 230 721.5 215.5 c 128,-1,52
 714 201 714 201 712 185 c 0,53,54
 709 152 709 152 729.5 129.5 c 128,-1,55
 750 107 750 107 783 107 c 1,56,-1
 783 107 l 1,42,43
247 405 m 1,57,58
 280 405 280 405 305 427.5 c 128,-1,59
 330 450 330 450 334 483 c 0,60,61
 338 515 338 515 317 538 c 128,-1,62
 296 561 296 561 264 561 c 0,63,64
 231 561 231 561 205.5 538 c 128,-1,65
 180 515 180 515 177 483 c 0,66,67
 173 450 173 450 194 427.5 c 128,-1,68
 215 405 215 405 247 405 c 1,69,-1
 247 405 l 1,57,58
694 668 m 1,70,-1
 821 668 l 1,71,-1
 353 0 l 1,72,-1
 227 0 l 1,73,-1
 694 668 l 1,70,-1
EndSplineSet
EndChar

StartChar: ampersand
Encoding: 38 38 124
AltUni2: 00e916.ffffffff.0 00e916.ffffffff.0
Width: 683
GlyphClass: 1
Flags: W
LayerCount: 2
Fore
SplineSet
181 389 m 1,0,1
 160 421 160 421 149.5 454.5 c 128,-1,2
 139 488 139 488 139 521 c 0,3,4
 139 562 139 562 155 595.5 c 128,-1,5
 171 629 171 629 199.5 654 c 128,-1,6
 228 679 228 679 267 692.5 c 128,-1,7
 306 706 306 706 353 706 c 0,8,9
 392 706 392 706 425 693.5 c 128,-1,10
 458 681 458 681 482 659.5 c 128,-1,11
 506 638 506 638 520 608.5 c 128,-1,12
 534 579 534 579 534 544 c 0,13,14
 534 492 534 492 498 439 c 128,-1,15
 462 386 462 386 383 348 c 1,16,-1
 451 244 l 1,17,18
 481 273 481 273 506 309.5 c 128,-1,19
 531 346 531 346 549 389 c 1,20,-1
 676 389 l 1,21,22
 647 314 647 314 605.5 252 c 128,-1,23
 564 190 564 190 515 146 c 1,24,-1
 608 0 l 1,25,-1
 442 0 l 1,26,-1
 407 53 l 1,27,28
 348 19 348 19 296 4.5 c 128,-1,29
 244 -10 244 -10 199 -10 c 0,30,31
 140 -10 140 -10 96 12 c 128,-1,32
 52 34 52 34 26 69 c 128,-1,33
 0 104 0 104 -5.5 148 c 128,-1,34
 -11 192 -11 192 6.5 236.5 c 128,-1,35
 24 281 24 281 67 321 c 128,-1,36
 110 361 110 361 181 389 c 1,37,-1
 181 389 l 1,0,1
239 116 m 1,38,39
 265 116 265 116 288 123 c 128,-1,40
 311 130 311 130 343 147 c 1,41,-1
 247 290 l 1,42,43
 195 274 195 274 174.5 244.5 c 128,-1,44
 154 215 154 215 157.5 186.5 c 128,-1,45
 161 158 161 158 183.5 137 c 128,-1,46
 206 116 206 116 239 116 c 1,47,-1
 239 116 l 1,38,39
326 437 m 1,48,49
 373 460 373 460 391.5 487 c 128,-1,50
 410 514 410 514 408.5 537.5 c 128,-1,51
 407 561 407 561 389.5 577 c 128,-1,52
 372 593 372 593 348 592 c 0,53,54
 323 591 323 591 304.5 579.5 c 128,-1,55
 286 568 286 568 280.5 547.5 c 128,-1,56
 275 527 275 527 285 499 c 128,-1,57
 295 471 295 471 326 437 c 1,58,-1
 326 437 l 1,48,49
EndSplineSet
EndChar

StartChar: quotesingle
Encoding: 39 39 125
AltUni2: 00e917.ffffffff.0 00e917.ffffffff.0
Width: 258
GlyphClass: 1
Flags: W
LayerCount: 2
Fore
SplineSet
231 668 m 1,0,-1
 217 434 l 1,1,-1
 103 434 l 1,2,-1
 89 668 l 1,3,-1
 231 668 l 1,0,-1
EndSplineSet
EndChar

StartChar: parenleft
Encoding: 40 40 126
AltUni2: 00e918.ffffffff.0 00e918.ffffffff.0
Width: 378
GlyphClass: 1
Flags: W
LayerCount: 2
Fore
SplineSet
237 669 m 1,0,-1
 388 669 l 1,1,2
 303 566 303 566 248 468.5 c 128,-1,3
 193 371 193 371 172.5 271 c 128,-1,4
 152 171 152 171 167.5 65 c 128,-1,5
 183 -41 183 -41 239 -161 c 1,6,-1
 90 -161 l 1,7,8
 33 -24 33 -24 20.5 91.5 c 128,-1,9
 8 207 8 207 31 307.5 c 128,-1,10
 54 408 54 408 108 496.5 c 128,-1,11
 162 585 162 585 237 669 c 1,12,-1
 237 669 l 1,0,-1
EndSplineSet
EndChar

StartChar: parenright
Encoding: 41 41 127
AltUni2: 00e919.ffffffff.0 00e919.ffffffff.0
Width: 378
GlyphClass: 1
Flags: W
LayerCount: 2
Fore
SplineSet
-42 -161 m 1,0,1
 43 -58 43 -58 98 39.5 c 128,-1,2
 153 137 153 137 173.5 237 c 128,-1,3
 194 337 194 337 178.5 443 c 128,-1,4
 163 549 163 549 107 669 c 1,5,-1
 256 669 l 1,6,7
 314 532 314 532 326.5 416.5 c 128,-1,8
 339 301 339 301 315.5 200.5 c 128,-1,9
 292 100 292 100 238 11.5 c 128,-1,10
 184 -77 184 -77 109 -161 c 1,11,-1
 -42 -161 l 1,12,-1
 -42 -161 l 1,0,1
EndSplineSet
EndChar

StartChar: asterisk
Encoding: 42 42 128
AltUni2: 00e91a.ffffffff.0 00e91a.ffffffff.0
Width: 443
GlyphClass: 1
Flags: W
LayerCount: 2
Fore
SplineSet
302 464 m 1,0,-1
 343 372 l 1,1,-1
 263 336 l 1,2,-1
 222 428 l 1,3,-1
 148 361 l 1,4,-1
 89 426 l 1,5,-1
 164 494 l 1,6,-1
 76 544 l 1,7,-1
 120 619 l 1,8,-1
 207 569 l 1,9,-1
 228 668 l 1,10,-1
 314 650 l 1,11,-1
 293 551 l 1,12,-1
 392 562 l 1,13,-1
 402 475 l 1,14,-1
 302 464 l 1,0,-1
EndSplineSet
EndChar

StartChar: plus
Encoding: 43 43 129
AltUni2: 00e91b.ffffffff.0 00e91b.ffffffff.0
Width: 645
GlyphClass: 1
Flags: W
LayerCount: 2
Fore
SplineSet
39 312 m 1,0,-1
 231 312 l 1,1,-1
 231 496 l 1,2,-1
 359 496 l 1,3,-1
 359 312 l 1,4,-1
 551 312 l 1,5,-1
 551 184 l 1,6,-1
 359 184 l 1,7,-1
 359 0 l 1,8,-1
 231 0 l 1,9,-1
 231 184 l 1,10,-1
 39 184 l 1,11,-1
 39 312 l 1,0,-1
EndSplineSet
EndChar

StartChar: comma
Encoding: 44 44 130
AltUni2: 00e91c.ffffffff.0 00e91c.ffffffff.0
Width: 282
GlyphClass: 1
Flags: W
LayerCount: 2
Fore
SplineSet
49 -4 m 1,0,1
 19 10 19 10 2.5 39.5 c 128,-1,2
 -14 69 -14 69 -7 103 c 0,3,4
 -3 123 -3 123 7.5 139 c 128,-1,5
 18 155 18 155 33.5 165.5 c 128,-1,6
 49 176 49 176 68 180.5 c 128,-1,7
 87 185 87 185 107 181 c 256,8,9
 127 177 127 177 143.5 166 c 128,-1,10
 160 155 160 155 171 139.5 c 128,-1,11
 182 124 182 124 186 105.5 c 128,-1,12
 190 87 190 87 185 67 c 0,13,14
 183 58 183 58 180 49.5 c 128,-1,15
 177 41 177 41 172 33 c 2,16,-1
 59 -146 l 1,17,-1
 -40 -146 l 1,18,-1
 49 -4 l 1,19,-1
 49 -4 l 1,0,1
EndSplineSet
EndChar

StartChar: hyphen
Encoding: 45 45 131
AltUni2: 00e91d.ffffffff.0 00e91d.ffffffff.0
Width: 408
GlyphClass: 1
Flags: W
LayerCount: 2
Fore
SplineSet
10 184 m 1,0,-1
 38 313 l 1,1,-1
 364 313 l 1,2,-1
 336 184 l 1,3,-1
 10 184 l 1,0,-1
EndSplineSet
EndChar

StartChar: period
Encoding: 46 46 132
AltUni2: 00e91e.ffffffff.0 00e91e.ffffffff.0
Width: 281
GlyphClass: 1
Flags: W
LayerCount: 2
Fore
SplineSet
-9 86 m 1,0,1
 -9 127 -9 127 19.5 155 c 128,-1,2
 48 183 48 183 89 183 c 0,3,4
 109 183 109 183 126.5 175.5 c 128,-1,5
 144 168 144 168 157.5 155 c 128,-1,6
 171 142 171 142 178.5 124 c 128,-1,7
 186 106 186 106 186 86 c 256,8,9
 186 66 186 66 178.5 48 c 128,-1,10
 171 30 171 30 157.5 16.5 c 128,-1,11
 144 3 144 3 126.5 -4.5 c 128,-1,12
 109 -12 109 -12 89 -12 c 0,13,14
 48 -12 48 -12 19.5 16.5 c 128,-1,15
 -9 45 -9 45 -9 86 c 1,16,-1
 -9 86 l 1,0,1
EndSplineSet
EndChar

StartChar: slash
Encoding: 47 47 133
AltUni2: 00e91f.ffffffff.0 00e91f.ffffffff.0
Width: 442
GlyphClass: 1
Flags: W
LayerCount: 2
Fore
SplineSet
348 668 m 1,0,-1
 499 668 l 1,1,-1
 98 0 l 1,2,-1
 -55 0 l 1,3,-1
 348 668 l 1,0,-1
EndSplineSet
EndChar

StartChar: braceleft
Encoding: 123 123 134
AltUni2: 00e92d.ffffffff.0 00e92d.ffffffff.0
Width: 374
GlyphClass: 1
Flags: W
LayerCount: 2
Fore
SplineSet
21 315 m 1,0,1
 44 315 44 315 59.5 321.5 c 128,-1,2
 75 328 75 328 85 340.5 c 128,-1,3
 95 353 95 353 101 370.5 c 128,-1,4
 107 388 107 388 111 409 c 2,5,-1
 132 505 l 2,6,7
 145 563 145 563 165 595.5 c 128,-1,8
 185 628 185 628 213 644 c 128,-1,9
 241 660 241 660 276.5 663.5 c 128,-1,10
 312 667 312 667 356 667 c 2,11,-1
 411 667 l 1,12,-1
 385 548 l 1,13,-1
 352 548 l 2,14,15
 320 548 320 548 302 539.5 c 128,-1,16
 284 531 284 531 278 503 c 2,17,-1
 252 380 l 2,18,19
 245 349 245 349 232.5 327 c 128,-1,20
 220 305 220 305 204 291 c 128,-1,21
 188 277 188 277 169.5 268.5 c 128,-1,22
 151 260 151 260 132 255 c 1,23,-1
 131 252 l 1,24,25
 148 247 148 247 163.5 239 c 128,-1,26
 179 231 179 231 188.5 216.5 c 128,-1,27
 198 202 198 202 201.5 180.5 c 128,-1,28
 205 159 205 159 198 127 c 2,29,-1
 171 2 l 2,30,31
 165 -26 165 -26 180 -34 c 128,-1,32
 195 -42 195 -42 227 -42 c 2,33,-1
 261 -42 l 1,34,-1
 235 -162 l 1,35,-1
 181 -162 l 2,36,37
 83 -162 83 -162 46 -117.5 c 128,-1,38
 9 -73 9 -73 24 1 c 2,39,-1
 45 97 l 2,40,41
 50 119 50 119 51.5 136.5 c 128,-1,42
 53 154 53 154 48 166.5 c 128,-1,43
 43 179 43 179 30.5 185.5 c 128,-1,44
 18 192 18 192 -5 192 c 1,45,-1
 21 315 l 1,46,-1
 21 315 l 1,0,1
EndSplineSet
EndChar

StartChar: bar
Encoding: 124 124 135
AltUni2: 00e92e.ffffffff.0 00e92e.ffffffff.0
Width: 352
GlyphClass: 1
Flags: W
LayerCount: 2
Fore
SplineSet
87 -161 m 1,0,-1
 87 668 l 1,1,-1
 233 668 l 1,2,-1
 233 -161 l 1,3,-1
 87 -161 l 1,0,-1
EndSplineSet
EndChar

StartChar: braceright
Encoding: 125 125 136
AltUni2: 00e92f.ffffffff.0 00e92f.ffffffff.0
Width: 374
GlyphClass: 1
Flags: W
LayerCount: 2
Fore
SplineSet
-70 -162 m 1,0,-1
 -45 -42 l 1,1,-1
 -11 -42 l 2,2,3
 21 -42 21 -42 39.5 -33.5 c 128,-1,4
 58 -25 58 -25 64 2 c 2,5,-1
 90 126 l 2,6,7
 97 158 97 158 109.5 180 c 128,-1,8
 122 202 122 202 138 216 c 128,-1,9
 154 230 154 230 172.5 238.5 c 128,-1,10
 191 247 191 247 210 252 c 1,11,-1
 211 255 l 1,12,13
 194 260 194 260 178.5 268 c 128,-1,14
 163 276 163 276 153.5 290.5 c 128,-1,15
 144 305 144 305 140.5 326.5 c 128,-1,16
 137 348 137 348 144 379 c 2,17,-1
 171 503 l 2,18,19
 177 532 177 532 162 540 c 128,-1,20
 147 548 147 548 115 548 c 2,21,-1
 81 548 l 1,22,-1
 106 667 l 1,23,-1
 161 667 l 2,24,25
 210 667 210 667 243 655.5 c 128,-1,26
 276 644 276 644 295 623 c 128,-1,27
 314 602 314 602 319 572 c 128,-1,28
 324 542 324 542 316 505 c 2,29,-1
 296 409 l 2,30,31
 292 387 292 387 290.5 369.5 c 128,-1,32
 289 352 289 352 293.5 340 c 128,-1,33
 298 328 298 328 310.5 321.5 c 128,-1,34
 323 315 323 315 346 315 c 1,35,-1
 320 192 l 1,36,37
 297 192 297 192 281.5 185 c 128,-1,38
 266 178 266 178 256 165.5 c 128,-1,39
 246 153 246 153 240 135.5 c 128,-1,40
 234 118 234 118 229 97 c 2,41,-1
 210 1 l 2,42,43
 198 -57 198 -57 178 -89.5 c 128,-1,44
 158 -122 158 -122 129.5 -138 c 128,-1,45
 101 -154 101 -154 65 -158 c 128,-1,46
 29 -162 29 -162 -16 -162 c 2,47,-1
 -70 -162 l 1,48,-1
 -70 -162 l 1,0,-1
EndSplineSet
EndChar

StartChar: asciitilde
Encoding: 126 126 137
AltUni2: 00e930.ffffffff.0 00e930.ffffffff.0
Width: 533
GlyphClass: 1
Flags: W
LayerCount: 2
Fore
SplineSet
9 184 m 1,0,1
 20 223 20 223 34.5 253.5 c 128,-1,2
 49 284 49 284 69.5 305.5 c 128,-1,3
 90 327 90 327 117 338.5 c 128,-1,4
 144 350 144 350 180 350 c 0,5,6
 208 350 208 350 229.5 340.5 c 128,-1,7
 251 331 251 331 269.5 320 c 128,-1,8
 288 309 288 309 304.5 299.5 c 128,-1,9
 321 290 321 290 339 290 c 0,10,11
 348 290 348 290 356.5 293 c 128,-1,12
 365 296 365 296 372.5 305 c 128,-1,13
 380 314 380 314 386 329.5 c 128,-1,14
 392 345 392 345 396 370 c 1,15,-1
 494 333 l 1,16,17
 472 256 472 256 433.5 211.5 c 128,-1,18
 395 167 395 167 324 167 c 0,19,20
 298 167 298 167 277.5 176.5 c 128,-1,21
 257 186 257 186 239 197 c 128,-1,22
 221 208 221 208 203 217.5 c 128,-1,23
 185 227 185 227 164 227 c 0,24,25
 155 227 155 227 146.5 224 c 128,-1,26
 138 221 138 221 130.5 212 c 128,-1,27
 123 203 123 203 116.5 187.5 c 128,-1,28
 110 172 110 172 106 146 c 1,29,-1
 9 184 l 1,30,-1
 9 184 l 1,0,1
EndSplineSet
EndChar

StartChar: exclamdown
Encoding: 161 161 138
AltUni2: 00e931.ffffffff.0 00e931.ffffffff.0
Width: 297
GlyphClass: 1
Flags: W
LayerCount: 2
Fore
SplineSet
165 518 m 1,0,1
 206 518 206 518 234 489.5 c 128,-1,2
 262 461 262 461 262 420 c 256,3,4
 262 379 262 379 234 351.5 c 128,-1,5
 206 324 206 324 165 324 c 0,6,7
 125 324 125 324 96.5 351.5 c 128,-1,8
 68 379 68 379 68 420 c 0,9,10
 68 440 68 440 75.5 458 c 128,-1,11
 83 476 83 476 96.5 489.5 c 128,-1,12
 110 503 110 503 127.5 510.5 c 128,-1,13
 145 518 145 518 165 518 c 1,14,-1
 165 518 l 1,0,1
-56 -162 m 1,15,-1
 -19 11 l 1,16,-1
 76 264 l 1,17,-1
 191 264 l 1,18,-1
 179 11 l 1,19,-1
 142 -162 l 1,20,-1
 -56 -162 l 1,15,-1
EndSplineSet
EndChar

StartChar: cent
Encoding: 162 162 139
AltUni2: 00e933.ffffffff.0 00e933.ffffffff.0
Width: 531
GlyphClass: 1
Flags: W
LayerCount: 2
Fore
SplineSet
7 251 m 1,0,1
 28 363 28 363 100.5 430.5 c 128,-1,2
 173 498 173 498 282 508 c 1,3,-1
 295 571 l 1,4,-1
 368 571 l 1,5,-1
 354 507 l 1,6,7
 407 500 407 500 447.5 471.5 c 128,-1,8
 488 443 488 443 511 381 c 1,9,-1
 378 335 l 1,10,11
 367 379 367 379 329 388 c 1,12,-1
 270 109 l 1,13,14
 290 113 290 113 307 123.5 c 128,-1,15
 324 134 324 134 341 155 c 1,16,-1
 464 107 l 1,17,18
 419 44 419 44 361.5 18 c 128,-1,19
 304 -8 304 -8 245 -12 c 1,20,-1
 229 -87 l 1,21,-1
 155 -87 l 1,22,-1
 172 -8 l 1,23,24
 75 9 75 9 32 79 c 128,-1,25
 -11 149 -11 149 7 251 c 1,26,-1
 7 251 l 1,0,1
198 114 m 1,27,-1
 255 383 l 1,28,29
 225 370 225 370 199.5 339 c 128,-1,30
 174 308 174 308 162 250 c 0,31,32
 150 190 150 190 161.5 158 c 128,-1,33
 173 126 173 126 198 114 c 1,34,-1
 198 114 l 1,27,-1
EndSplineSet
EndChar

StartChar: sterling
Encoding: 163 163 140
AltUni2: 00e934.ffffffff.0 00e934.ffffffff.0
Width: 617
GlyphClass: 1
Flags: W
LayerCount: 2
Fore
SplineSet
2 104 m 1,0,1
 49 124 49 124 80.5 149 c 128,-1,2
 112 174 112 174 130.5 200 c 128,-1,3
 149 226 149 226 155 250.5 c 128,-1,4
 161 275 161 275 156 295 c 1,5,-1
 43 295 l 1,6,-1
 58 368 l 1,7,-1
 133 368 l 1,8,9
 124 399 124 399 117 434 c 128,-1,10
 110 469 110 469 115 507 c 0,11,12
 122 552 122 552 148 584.5 c 128,-1,13
 174 617 174 617 212 638 c 128,-1,14
 250 659 250 659 296 669 c 128,-1,15
 342 679 342 679 388 679 c 0,16,17
 565 679 565 679 632 537 c 1,18,-1
 485 487 l 1,19,20
 463 525 463 525 437 540.5 c 128,-1,21
 411 556 411 556 374 556 c 0,22,23
 299 556 299 556 277.5 509 c 128,-1,24
 256 462 256 462 298 368 c 1,25,-1
 458 368 l 1,26,-1
 443 295 l 1,27,-1
 316 295 l 1,28,29
 323 259 323 259 289.5 209 c 128,-1,30
 256 159 256 159 181 117 c 1,31,32
 204 129 204 129 226 131.5 c 128,-1,33
 248 134 248 134 269 134 c 0,34,35
 307 134 307 134 341 123.5 c 128,-1,36
 375 113 375 113 407 113 c 0,37,38
 434 113 434 113 461 121 c 128,-1,39
 488 129 488 129 517 144 c 1,40,-1
 535 23 l 1,41,42
 497 6 497 6 456.5 -3 c 128,-1,43
 416 -12 416 -12 367 -12 c 0,44,45
 341 -12 341 -12 317 -6.5 c 128,-1,46
 293 -1 293 -1 269.5 6 c 128,-1,47
 246 13 246 13 223 18.5 c 128,-1,48
 200 24 200 24 175 24 c 0,49,50
 153 24 153 24 117.5 18 c 128,-1,51
 82 12 82 12 33 -12 c 1,52,-1
 2 104 l 1,53,-1
 2 104 l 1,0,1
EndSplineSet
EndChar

StartChar: currency
Encoding: 164 164 141
AltUni2: 00e935.ffffffff.0 00e935.ffffffff.0
Width: 678
GlyphClass: 1
Flags: W
LayerCount: 2
Fore
SplineSet
159 194 m 1,0,1
 139 221 139 221 128.5 253 c 128,-1,2
 118 285 118 285 118 321 c 0,3,4
 118 356 118 356 128.5 387.5 c 128,-1,5
 139 419 139 419 159 446 c 1,6,-1
 92 513 l 1,7,-1
 144 565 l 1,8,-1
 211 498 l 1,9,10
 238 518 238 518 270 528.5 c 128,-1,11
 302 539 302 539 337 539 c 0,12,13
 373 539 373 539 404.5 528.5 c 128,-1,14
 436 518 436 518 463 498 c 1,15,-1
 530 565 l 1,16,-1
 582 513 l 1,17,-1
 515 446 l 1,18,19
 555 391 555 391 555 321 c 0,20,21
 555 285 555 285 544.5 253 c 128,-1,22
 534 221 534 221 515 194 c 1,23,-1
 582 127 l 1,24,-1
 530 75 l 1,25,-1
 463 142 l 1,26,27
 408 102 408 102 337 102 c 256,28,29
 266 102 266 102 211 142 c 1,30,-1
 144 75 l 1,31,-1
 92 127 l 1,32,-1
 159 194 l 1,33,-1
 159 194 l 1,0,1
337 221 m 1,34,35
 357 221 357 221 375 229 c 128,-1,36
 393 237 393 237 406.5 250.5 c 128,-1,37
 420 264 420 264 428 282 c 128,-1,38
 436 300 436 300 436 321 c 0,39,40
 436 341 436 341 428 359 c 128,-1,41
 420 377 420 377 406.5 390.5 c 128,-1,42
 393 404 393 404 375 411.5 c 128,-1,43
 357 419 357 419 337 419 c 0,44,45
 295 419 295 419 266.5 390.5 c 128,-1,46
 238 362 238 362 238 321 c 0,47,48
 238 279 238 279 266.5 250 c 128,-1,49
 295 221 295 221 337 221 c 1,50,-1
 337 221 l 1,34,35
EndSplineSet
EndChar

StartChar: yen
Encoding: 165 165 142
AltUni2: 00e936.ffffffff.0 00e936.ffffffff.0
Width: 700
GlyphClass: 1
Flags: W
LayerCount: 2
Fore
SplineSet
82 667 m 1,0,-1
 253 667 l 1,1,-1
 339 390 l 1,2,-1
 558 667 l 1,3,-1
 762 667 l 1,4,-1
 442 286 l 1,5,-1
 544 286 l 1,6,-1
 528 212 l 1,7,-1
 398 212 l 1,8,-1
 385 148 l 1,9,-1
 515 148 l 1,10,-1
 499 75 l 1,11,-1
 370 75 l 1,12,-1
 354 0 l 1,13,-1
 191 0 l 1,14,-1
 207 75 l 1,15,-1
 83 75 l 1,16,-1
 99 148 l 1,17,-1
 222 148 l 1,18,-1
 236 212 l 1,19,-1
 112 212 l 1,20,-1
 128 286 l 1,21,-1
 225 286 l 1,22,-1
 82 667 l 1,0,-1
EndSplineSet
EndChar

StartChar: brokenbar
Encoding: 166 166 143
AltUni2: 00e937.ffffffff.0 00e937.ffffffff.0
Width: 334
GlyphClass: 1
Flags: W
LayerCount: 2
Fore
SplineSet
215 668 m 1,0,-1
 215 358 l 1,1,-1
 87 358 l 1,2,-1
 87 668 l 1,3,-1
 215 668 l 1,0,-1
87 -161 m 1,4,-1
 87 150 l 1,5,-1
 215 150 l 1,6,-1
 215 -161 l 1,7,-1
 87 -161 l 1,4,-1
EndSplineSet
EndChar

StartChar: section
Encoding: 167 167 144
AltUni2: 00e938.ffffffff.0 00e938.ffffffff.0
Width: 563
GlyphClass: 1
Flags: W
LayerCount: 2
Fore
SplineSet
-59 -49 m 1,0,-1
 81 -2 l 1,1,2
 84 -29 84 -29 105 -41.5 c 128,-1,3
 126 -54 126 -54 152 -54 c 0,4,5
 167 -54 167 -54 181 -50 c 128,-1,6
 195 -46 195 -46 206 -38.5 c 128,-1,7
 217 -31 217 -31 224 -20 c 128,-1,8
 231 -9 231 -9 231 5 c 0,9,10
 231 20 231 20 220 34.5 c 128,-1,11
 209 49 209 49 192 62.5 c 128,-1,12
 175 76 175 76 153.5 90.5 c 128,-1,13
 132 105 132 105 112 120 c 0,14,15
 100 129 100 129 83.5 142 c 128,-1,16
 67 155 67 155 51.5 172 c 128,-1,17
 36 189 36 189 25.5 211 c 128,-1,18
 15 233 15 233 15 261 c 0,19,20
 15 296 15 296 26.5 322 c 128,-1,21
 38 348 38 348 57.5 368 c 128,-1,22
 77 388 77 388 103 402.5 c 128,-1,23
 129 417 129 417 159 429 c 1,24,25
 144 467 144 467 149 510.5 c 128,-1,26
 154 554 154 554 180 591.5 c 128,-1,27
 206 629 206 629 253.5 654 c 128,-1,28
 301 679 301 679 371 679 c 0,29,30
 404 679 404 679 434.5 674 c 128,-1,31
 465 669 465 669 491.5 657 c 128,-1,32
 518 645 518 645 538.5 626 c 128,-1,33
 559 607 559 607 571 578 c 1,34,-1
 432 532 l 1,35,36
 427 548 427 548 408 555.5 c 128,-1,37
 389 563 389 563 367 563 c 0,38,39
 342 563 342 563 321.5 553.5 c 128,-1,40
 301 544 301 544 299 525 c 0,41,42
 298 514 298 514 305.5 503.5 c 128,-1,43
 313 493 313 493 327 481.5 c 128,-1,44
 341 470 341 470 361.5 455.5 c 128,-1,45
 382 441 382 441 407 422 c 0,46,47
 419 413 419 413 439 399 c 128,-1,48
 459 385 459 385 478.5 366 c 128,-1,49
 498 347 498 347 512 323.5 c 128,-1,50
 526 300 526 300 526 271 c 0,51,52
 526 246 526 246 519 221.5 c 128,-1,53
 512 197 512 197 494.5 174.5 c 128,-1,54
 477 152 477 152 448 132.5 c 128,-1,55
 419 113 419 113 375 97 c 1,56,57
 393 63 393 63 386.5 16.5 c 128,-1,58
 380 -30 380 -30 349.5 -72.5 c 128,-1,59
 319 -115 319 -115 266 -144.5 c 128,-1,60
 213 -174 213 -174 138 -174 c 0,61,62
 102 -174 102 -174 69.5 -166 c 128,-1,63
 37 -158 37 -158 11 -142 c 128,-1,64
 -15 -126 -15 -126 -33 -102.5 c 128,-1,65
 -51 -79 -51 -79 -59 -49 c 1,66,-1
 -59 -49 l 1,0,-1
198 257 m 1,67,68
 207 250 207 250 224.5 237 c 128,-1,69
 242 224 242 224 259.5 210.5 c 128,-1,70
 277 197 277 197 290.5 187 c 128,-1,71
 304 177 304 177 304 177 c 1,72,73
 363 201 363 201 365 227.5 c 128,-1,74
 367 254 367 254 325 284 c 0,75,76
 317 290 317 290 302 301.5 c 128,-1,77
 287 313 287 313 271 324 c 0,78,79
 253 337 253 337 233 352 c 1,80,81
 207 347 207 347 192 336.5 c 128,-1,82
 177 326 177 326 172.5 312.5 c 128,-1,83
 168 299 168 299 174.5 284.5 c 128,-1,84
 181 270 181 270 198 257 c 1,85,-1
 198 257 l 1,67,68
EndSplineSet
EndChar

StartChar: copyright
Encoding: 169 169 145
AltUni2: 00e93a.ffffffff.0 00e93a.ffffffff.0
Width: 814
GlyphClass: 1
Flags: W
LayerCount: 2
Fore
SplineSet
62 334 m 1,0,1
 62 405 62 405 89 468 c 128,-1,2
 116 531 116 531 163 578 c 128,-1,3
 210 625 210 625 273 652 c 128,-1,4
 336 679 336 679 407 679 c 0,5,6
 479 679 479 679 542 652 c 128,-1,7
 605 625 605 625 652.5 578 c 128,-1,8
 700 531 700 531 727 468 c 128,-1,9
 754 405 754 405 754 334 c 0,10,11
 754 262 754 262 727 199 c 128,-1,12
 700 136 700 136 652.5 89 c 128,-1,13
 605 42 605 42 542 15 c 128,-1,14
 479 -12 479 -12 407 -12 c 0,15,16
 336 -12 336 -12 273 15 c 128,-1,17
 210 42 210 42 163 89 c 128,-1,18
 116 136 116 136 89 199 c 128,-1,19
 62 262 62 262 62 334 c 1,20,-1
 62 334 l 1,0,1
407 57 m 1,21,22
 464 57 464 57 514.5 79 c 128,-1,23
 565 101 565 101 602.5 138.5 c 128,-1,24
 640 176 640 176 662 226.5 c 128,-1,25
 684 277 684 277 684 334 c 256,26,27
 684 391 684 391 662 441.5 c 128,-1,28
 640 492 640 492 602.5 529.5 c 128,-1,29
 565 567 565 567 514.5 588.5 c 128,-1,30
 464 610 464 610 407 610 c 256,31,32
 350 610 350 610 300 588.5 c 128,-1,33
 250 567 250 567 212.5 529.5 c 128,-1,34
 175 492 175 492 153.5 441.5 c 128,-1,35
 132 391 132 391 132 334 c 256,36,37
 132 277 132 277 153.5 226.5 c 128,-1,38
 175 176 175 176 212.5 138.5 c 128,-1,39
 250 101 250 101 300 79 c 128,-1,40
 350 57 350 57 407 57 c 1,41,-1
 407 57 l 1,21,22
410 522 m 1,42,43
 433 522 433 522 457 517 c 128,-1,44
 481 512 481 512 502.5 501 c 128,-1,45
 524 490 524 490 542.5 472 c 128,-1,46
 561 454 561 454 573 428 c 1,47,-1
 481 394 l 1,48,49
 472 417 472 417 455 427 c 128,-1,50
 438 437 438 437 416 437 c 0,51,52
 401 437 401 437 387.5 431.5 c 128,-1,53
 374 426 374 426 363 413.5 c 128,-1,54
 352 401 352 401 345.5 381.5 c 128,-1,55
 339 362 339 362 339 334 c 0,56,57
 339 305 339 305 345.5 285 c 128,-1,58
 352 265 352 265 363 253 c 128,-1,59
 374 241 374 241 388 235.5 c 128,-1,60
 402 230 402 230 416 230 c 0,61,62
 463 230 463 230 482 264 c 1,63,-1
 572 231 l 1,64,65
 544 183 544 183 499 164 c 128,-1,66
 454 145 454 145 410 145 c 0,67,68
 322 145 322 145 274.5 197 c 128,-1,69
 227 249 227 249 227 334 c 0,70,71
 227 376 227 376 240.5 411 c 128,-1,72
 254 446 254 446 278 470.5 c 128,-1,73
 302 495 302 495 336 508.5 c 128,-1,74
 370 522 370 522 410 522 c 1,75,-1
 410 522 l 1,42,43
EndSplineSet
EndChar

StartChar: questiondown
Encoding: 191 191 146
AltUni2: 00e94e.ffffffff.0 00e94e.ffffffff.0
Width: 634
GlyphClass: 1
Flags: W
LayerCount: 2
Fore
SplineSet
-18 8 m 1,0,1
 -12 40 -12 40 2.5 64 c 128,-1,2
 17 88 17 88 37.5 106 c 128,-1,3
 58 124 58 124 82.5 137 c 128,-1,4
 107 150 107 150 134 162 c 0,5,6
 160 173 160 173 179.5 183.5 c 128,-1,7
 199 194 199 194 214 205.5 c 128,-1,8
 229 217 229 217 239.5 231.5 c 128,-1,9
 250 246 250 246 257 265 c 1,10,-1
 417 265 l 1,11,12
 409 205 409 205 370.5 163.5 c 128,-1,13
 332 122 332 122 275 96 c 0,14,15
 257 87 257 87 236 78.5 c 128,-1,16
 215 70 215 70 197 59.5 c 128,-1,17
 179 49 179 49 167 37 c 128,-1,18
 155 25 155 25 154 10 c 0,19,20
 152 -19 152 -19 176 -32 c 128,-1,21
 200 -45 200 -45 247 -45 c 0,22,23
 295 -45 295 -45 330 -28 c 128,-1,24
 365 -11 365 -11 379 21 c 1,25,-1
 517 -34 l 1,26,27
 474 -110 474 -110 401 -141.5 c 128,-1,28
 328 -173 328 -173 235 -173 c 0,29,30
 185 -173 185 -173 136 -163.5 c 128,-1,31
 87 -154 87 -154 49.5 -133 c 128,-1,32
 12 -112 12 -112 -7.5 -77.5 c 128,-1,33
 -27 -43 -27 -43 -18 8 c 1,34,-1
 -18 8 l 1,0,1
268 421 m 1,35,36
 268 462 268 462 295.5 490.5 c 128,-1,37
 323 519 323 519 364 519 c 256,38,39
 405 519 405 519 433.5 490.5 c 128,-1,40
 462 462 462 462 462 421 c 256,41,42
 462 380 462 380 433.5 352.5 c 128,-1,43
 405 325 405 325 364 325 c 256,44,45
 323 325 323 325 295.5 352.5 c 128,-1,46
 268 380 268 380 268 421 c 1,47,-1
 268 421 l 1,35,36
EndSplineSet
EndChar

StartChar: grave.case
Encoding: 65539 -1 147
Width: 240
GlyphClass: 1
Flags: W
LayerCount: 2
Fore
SplineSet
108 872 m 1,0,1
 123 884 123 884 143 884 c 0,2,3
 171 884 171 884 187 863 c 0,4,5
 197 852 197 852 212 830 c 128,-1,6
 227 808 227 808 241 785 c 0,7,8
 257 760 257 760 275 731 c 1,9,-1
 167 731 l 1,10,11
 153 743 153 743 140 754 c 0,12,13
 129 764 129 764 118 774.5 c 128,-1,14
 107 785 107 785 101 793 c 0,15,16
 87 811 87 811 88.5 834.5 c 128,-1,17
 90 858 90 858 108 872 c 1,18,-1
 108 872 l 1,0,1
EndSplineSet
EndChar

StartChar: acute.case
Encoding: 65540 -1 148
Width: 199
GlyphClass: 1
Flags: W
LayerCount: 2
Fore
SplineSet
129 731 m 1,0,-1
 200 801 l 2,1,2
 214 815 214 815 226.5 827 c 128,-1,3
 239 839 239 839 250 850 c 256,4,5
 261 861 261 861 272 872 c 0,6,7
 287 884 287 884 307 884 c 0,8,9
 320 884 320 884 331.5 879 c 128,-1,10
 343 874 343 874 351 863 c 0,11,12
 365 845 365 845 363 822.5 c 128,-1,13
 361 800 361 800 343 785 c 0,14,15
 341 783 341 783 327 774.5 c 128,-1,16
 313 766 313 766 296 756 c 0,17,18
 276 745 276 745 252 731 c 1,19,-1
 129 731 l 1,20,-1
 129 731 l 1,0,-1
EndSplineSet
EndChar

StartChar: circumflex.case
Encoding: 65541 -1 149
Width: 408
GlyphClass: 1
Flags: W
LayerCount: 2
Fore
SplineSet
275 868 m 1,0,1
 295 883 295 883 319 883 c 0,2,3
 334 883 334 883 348.5 877 c 128,-1,4
 363 871 363 871 374 858 c 2,5,-1
 492 731 l 1,6,-1
 376 731 l 1,7,-1
 317 792 l 1,8,-1
 233 731 l 1,9,-1
 86 731 l 1,10,-1
 275 868 l 1,11,-1
 275 868 l 1,0,1
EndSplineSet
EndChar

StartChar: germandbls
Encoding: 223 223 151
AltUni2: 00e96c.ffffffff.0 00e96c.ffffffff.0
Width: 642
GlyphClass: 1
Flags: W
LayerCount: 2
Fore
SplineSet
70 435 m 1,0,1
 85 503 85 503 110.5 550 c 128,-1,2
 136 597 136 597 173.5 625.5 c 128,-1,3
 211 654 211 654 261.5 666.5 c 128,-1,4
 312 679 312 679 376 679 c 0,5,6
 427 679 427 679 470.5 667.5 c 128,-1,7
 514 656 514 656 545 633 c 128,-1,8
 576 610 576 610 591.5 575 c 128,-1,9
 607 540 607 540 600 493 c 0,10,11
 594 450 594 450 573.5 421 c 128,-1,12
 553 392 553 392 516 368 c 1,13,14
 551 351 551 351 570.5 309 c 128,-1,15
 590 267 590 267 585 210 c 0,16,17
 578 135 578 135 546 89.5 c 128,-1,18
 514 44 514 44 467.5 20.5 c 128,-1,19
 421 -3 421 -3 365 -9 c 128,-1,20
 309 -15 309 -15 253 -11 c 1,21,-1
 241 123 l 1,22,23
 282 112 282 112 312 112 c 0,24,25
 361 112 361 112 391 135.5 c 128,-1,26
 421 159 421 159 424 204 c 0,27,28
 428 253 428 253 398 275.5 c 128,-1,29
 368 298 368 298 307 298 c 2,30,-1
 277 298 l 1,31,-1
 302 415 l 1,32,-1
 328 415 l 2,33,34
 382 415 382 415 413.5 438 c 128,-1,35
 445 461 445 461 450 498 c 0,36,37
 453 524 453 524 434 545 c 128,-1,38
 415 566 415 566 365 566 c 0,39,40
 335 566 335 566 312.5 559 c 128,-1,41
 290 552 290 552 273 535.5 c 128,-1,42
 256 519 256 519 244.5 492 c 128,-1,43
 233 465 233 465 224 424 c 2,44,-1
 134 0 l 1,45,-1
 -23 0 l 1,46,-1
 70 435 l 1,47,-1
 70 435 l 1,0,1
EndSplineSet
EndChar

StartChar: AE
Encoding: 198 198 152
AltUni2: 00e953.ffffffff.0 00e953.ffffffff.0
Width: 1030
GlyphClass: 1
Flags: W
LayerCount: 2
Fore
SplineSet
553 668 m 1,0,-1
 1071 668 l 1,1,-1
 1042 529 l 1,2,-1
 685 529 l 1,3,-1
 660 413 l 1,4,-1
 879 413 l 1,5,-1
 849 275 l 1,6,-1
 631 275 l 1,7,-1
 602 139 l 1,8,-1
 959 139 l 1,9,-1
 929 0 l 1,10,-1
 411 0 l 1,11,-1
 437 119 l 1,12,-1
 241 119 l 1,13,-1
 136 0 l 1,14,-1
 -65 0 l 1,15,-1
 553 668 l 1,0,-1
464 247 m 1,16,-1
 501 421 l 1,17,-1
 354 247 l 1,18,-1
 464 247 l 1,16,-1
EndSplineSet
EndChar

StartChar: florin
Encoding: 402 402 154
AltUni2: 00e997.ffffffff.0 00e997.ffffffff.0
Width: 389
GlyphClass: 1
Flags: W
LayerCount: 2
Fore
SplineSet
-87 -164 m 1,0,-1
 -59 -31 l 1,1,2
 -42 -34 -42 -34 -25.5 -33 c 128,-1,3
 -9 -32 -9 -32 2 -26 c 0,4,5
 19 -17 19 -17 26 -2.5 c 128,-1,6
 33 12 33 12 38 39 c 2,7,-1
 111 381 l 1,8,-1
 29 381 l 1,9,-1
 53 496 l 1,10,-1
 135 496 l 1,11,-1
 153 578 l 2,12,13
 162 622 162 622 179.5 651 c 128,-1,14
 197 680 197 680 224 697.5 c 128,-1,15
 251 715 251 715 288.5 722 c 128,-1,16
 326 729 326 729 376 729 c 2,17,-1
 445 729 l 1,18,-1
 419 608 l 1,19,-1
 377 608 l 2,20,21
 357 608 357 608 344 606.5 c 128,-1,22
 331 605 331 605 322.5 600 c 128,-1,23
 314 595 314 595 309.5 586.5 c 128,-1,24
 305 578 305 578 302 564 c 2,25,-1
 287 496 l 1,26,-1
 395 496 l 1,27,-1
 371 381 l 1,28,-1
 263 381 l 1,29,-1
 179 -16 l 2,30,31
 166 -76 166 -76 134 -112.5 c 128,-1,32
 102 -149 102 -149 62 -163 c 0,33,34
 48 -168 48 -168 29.5 -170 c 128,-1,35
 11 -172 11 -172 -10 -172 c 0,36,37
 -52 -172 -52 -172 -87 -164 c 1,38,-1
 -87 -164 l 1,0,-1
EndSplineSet
EndChar

StartChar: integral
Encoding: 8747 8747 155
AltUni2: 00e9bf.ffffffff.0 00e9bf.ffffffff.0
Width: 344
GlyphClass: 1
Flags: W
LayerCount: 2
Fore
SplineSet
-46 -84 m 1,0,1
 -45 -61 -45 -61 -29 -45.5 c 128,-1,2
 -13 -30 -13 -30 10 -30 c 0,3,4
 34 -30 34 -30 50.5 -46.5 c 128,-1,5
 67 -63 67 -63 67 -86 c 0,6,7
 67 -96 67 -96 64 -105 c 1,8,9
 81 -97 81 -97 87 -71 c 128,-1,10
 93 -45 93 -45 93 2 c 0,11,12
 93 14 93 14 92.5 40 c 128,-1,13
 92 66 92 66 91 101 c 128,-1,14
 90 136 90 136 89 176 c 128,-1,15
 88 216 88 216 87.5 255.5 c 128,-1,16
 87 295 87 295 86 329.5 c 128,-1,17
 85 364 85 364 85 388 c 0,18,19
 84 475 84 475 98 531.5 c 128,-1,20
 112 588 112 588 136 621 c 128,-1,21
 160 654 160 654 191.5 667 c 128,-1,22
 223 680 223 680 259 680 c 0,23,24
 277 680 277 680 295 673.5 c 128,-1,25
 313 667 313 667 327 655 c 128,-1,26
 341 643 341 643 349.5 626.5 c 128,-1,27
 358 610 358 610 358 590 c 0,28,29
 357 567 357 567 341 551.5 c 128,-1,30
 325 536 325 536 302 536 c 0,31,32
 278 536 278 536 262 552.5 c 128,-1,33
 246 569 246 569 246 592 c 0,34,35
 246 602 246 602 249 611 c 1,36,37
 220 597 220 597 220 504 c 0,38,39
 220 493 220 493 220.5 466.5 c 128,-1,40
 221 440 221 440 222 405 c 128,-1,41
 223 370 223 370 224 330 c 128,-1,42
 225 290 225 290 225.5 251 c 128,-1,43
 226 212 226 212 227 177 c 128,-1,44
 228 142 228 142 228 118 c 0,45,46
 229 31 229 31 215 -25.5 c 128,-1,47
 201 -82 201 -82 177 -115 c 128,-1,48
 153 -148 153 -148 121.5 -161 c 128,-1,49
 90 -174 90 -174 54 -174 c 0,50,51
 37 -174 37 -174 19.5 -166.5 c 128,-1,52
 2 -159 2 -159 -12.5 -146.5 c 128,-1,53
 -27 -134 -27 -134 -36.5 -118 c 128,-1,54
 -46 -102 -46 -102 -46 -84 c 1,55,-1
 -46 -84 l 1,0,1
EndSplineSet
EndChar

StartChar: approxequal
Encoding: 8776 8776 156
AltUni2: 00e9c0.ffffffff.0 00e9c0.ffffffff.0
Width: 556
GlyphClass: 1
Flags: W
LayerCount: 2
Fore
SplineSet
170 243 m 1,0,1
 199 243 199 243 222.5 233.5 c 128,-1,2
 246 224 246 224 266.5 212.5 c 128,-1,3
 287 201 287 201 305.5 191.5 c 128,-1,4
 324 182 324 182 342 182 c 0,5,6
 357 182 357 182 369 194 c 128,-1,7
 381 206 381 206 382 244 c 1,8,-1
 486 206 l 1,9,10
 479 137 479 137 449.5 98 c 128,-1,11
 420 59 420 59 354 59 c 0,12,13
 328 59 328 59 305.5 68 c 128,-1,14
 283 77 283 77 262 88.5 c 128,-1,15
 241 100 241 100 221 109 c 128,-1,16
 201 118 201 118 180 118 c 0,17,18
 164 118 164 118 152.5 106.5 c 128,-1,19
 141 95 141 95 140 57 c 1,20,-1
 36 95 l 1,21,22
 43 164 43 164 73 203.5 c 128,-1,23
 103 243 103 243 170 243 c 1,24,-1
 170 243 l 1,0,1
170 441 m 1,25,26
 199 441 199 441 222.5 431.5 c 128,-1,27
 246 422 246 422 266.5 410.5 c 128,-1,28
 287 399 287 399 305.5 389.5 c 128,-1,29
 324 380 324 380 342 380 c 0,30,31
 357 380 357 380 369 391.5 c 128,-1,32
 381 403 381 403 382 441 c 1,33,-1
 486 404 l 1,34,35
 479 335 479 335 449.5 296 c 128,-1,36
 420 257 420 257 354 257 c 0,37,38
 328 257 328 257 305.5 266.5 c 128,-1,39
 283 276 283 276 262 287 c 128,-1,40
 241 298 241 298 221 307.5 c 128,-1,41
 201 317 201 317 180 317 c 0,42,43
 164 317 164 317 152.5 305.5 c 128,-1,44
 141 294 141 294 140 256 c 1,45,-1
 36 294 l 1,46,47
 43 362 43 362 73 401.5 c 128,-1,48
 103 441 103 441 170 441 c 1,49,-1
 170 441 l 1,25,26
EndSplineSet
EndChar

StartChar: notequal
Encoding: 8800 8800 157
AltUni2: 00e9c1.ffffffff.0 00e9c1.ffffffff.0
Width: 661
GlyphClass: 1
Flags: W
LayerCount: 2
Fore
SplineSet
58 410 m 1,0,-1
 352 410 l 1,1,-1
 411 495 l 1,2,-1
 564 495 l 1,3,-1
 504 410 l 1,4,-1
 570 410 l 1,5,-1
 570 283 l 1,6,-1
 414 283 l 1,7,-1
 374 225 l 1,8,-1
 570 225 l 1,9,-1
 570 96 l 1,10,-1
 285 96 l 1,11,-1
 217 0 l 1,12,-1
 64 0 l 1,13,-1
 131 96 l 1,14,-1
 58 96 l 1,15,-1
 58 225 l 1,16,-1
 221 225 l 1,17,-1
 262 283 l 1,18,-1
 58 283 l 1,19,-1
 58 410 l 1,0,-1
EndSplineSet
EndChar

StartChar: lessequal
Encoding: 8804 8804 158
AltUni2: 00e9c2.ffffffff.0 00e9c2.ffffffff.0
Width: 676
GlyphClass: 1
Flags: W
LayerCount: 2
Fore
SplineSet
565 510 m 1,0,-1
 565 381 l 1,1,-1
 228 324 l 1,2,-1
 565 265 l 1,3,-1
 565 136 l 1,4,-1
 53 260 l 1,5,-1
 53 386 l 1,6,-1
 565 510 l 1,0,-1
53 0 m 1,7,-1
 53 128 l 1,8,-1
 565 128 l 1,9,-1
 565 0 l 1,10,-1
 53 0 l 1,7,-1
EndSplineSet
EndChar

StartChar: greaterequal
Encoding: 8805 8805 159
AltUni2: 00e9c3.ffffffff.0 00e9c3.ffffffff.0
Width: 702
GlyphClass: 1
Flags: W
LayerCount: 2
Fore
SplineSet
79 510 m 1,0,-1
 591 386 l 1,1,-1
 591 260 l 1,2,-1
 79 136 l 1,3,-1
 79 265 l 1,4,-1
 416 324 l 1,5,-1
 79 381 l 1,6,-1
 79 510 l 1,0,-1
591 128 m 1,7,-1
 591 0 l 1,8,-1
 79 0 l 1,9,-1
 79 128 l 1,10,-1
 591 128 l 1,7,-1
EndSplineSet
EndChar

StartChar: lozenge
Encoding: 9674 9674 160
AltUni2: 00e9c4.ffffffff.0 00e9c4.ffffffff.0
Width: 607
GlyphClass: 1
Flags: W
LayerCount: 2
Fore
SplineSet
563 313 m 1,0,-1
 301 -91 l 1,1,-1
 38 313 l 1,2,-1
 301 716 l 1,3,-1
 563 313 l 1,0,-1
176 313 m 1,4,-1
 301 124 l 1,5,-1
 425 313 l 1,6,-1
 301 502 l 1,7,-1
 176 313 l 1,4,-1
EndSplineSet
EndChar

StartChar: summation
Encoding: 8721 8721 161
AltUni2: 00e9b9.ffffffff.0 00e9b9.ffffffff.0
Width: 793
GlyphClass: 1
Flags: W
LayerCount: 2
Fore
SplineSet
350 254 m 1,0,-1
 113 540 l 1,1,-1
 113 668 l 1,2,-1
 648 668 l 1,3,-1
 648 540 l 1,4,-1
 283 540 l 1,5,-1
 522 254 l 1,6,-1
 283 -34 l 1,7,-1
 648 -34 l 1,8,-1
 648 -162 l 1,9,-1
 113 -162 l 1,10,-1
 113 -34 l 1,11,-1
 350 254 l 1,0,-1
EndSplineSet
EndChar

StartChar: minus
Encoding: 8722 8722 162
AltUni2: 00e9ba.ffffffff.0 00e9ba.ffffffff.0
Width: 645
GlyphClass: 1
Flags: W
LayerCount: 2
Fore
SplineSet
39 184 m 1,0,-1
 39 312 l 1,1,-1
 551 312 l 1,2,-1
 551 184 l 1,3,-1
 39 184 l 1,0,-1
EndSplineSet
EndChar

StartChar: uni2215
Encoding: 8725 8725 163
AltUni2: 00e9bb.ffffffff.0 00e9bb.ffffffff.0
Width: 482
GlyphClass: 1
Flags: W
LayerCount: 2
Fore
SplineSet
539 668 m 1,0,-1
 72 0 l 1,1,-1
 -55 0 l 1,2,-1
 413 668 l 1,3,-1
 539 668 l 1,0,-1
EndSplineSet
EndChar

StartChar: uni2219
Encoding: 8729 8729 164
AltUni2: 00e9bc.ffffffff.0 00e9bc.ffffffff.0
Width: 281
GlyphClass: 1
Flags: W
LayerCount: 2
Fore
SplineSet
27 255 m 1,0,1
 27 296 27 296 55.5 323.5 c 128,-1,2
 84 351 84 351 125 351 c 0,3,4
 165 351 165 351 193.5 323.5 c 128,-1,5
 222 296 222 296 222 255 c 0,6,7
 222 235 222 235 214.5 217 c 128,-1,8
 207 199 207 199 193.5 185.5 c 128,-1,9
 180 172 180 172 162.5 164.5 c 128,-1,10
 145 157 145 157 125 157 c 0,11,12
 84 157 84 157 55.5 185.5 c 128,-1,13
 27 214 27 214 27 255 c 1,14,-1
 27 255 l 1,0,1
EndSplineSet
EndChar

StartChar: radical
Encoding: 8730 8730 165
AltUni2: 00e9bd.ffffffff.0 00e9bd.ffffffff.0
Width: 615
GlyphClass: 1
Flags: W
LayerCount: 2
Fore
SplineSet
646 668 m 1,0,-1
 427 -162 l 1,1,-1
 271 -162 l 1,2,-1
 161 93 l 1,3,-1
 19 93 l 1,4,-1
 19 225 l 1,5,-1
 252 225 l 1,6,-1
 332 29 l 1,7,-1
 502 668 l 1,8,-1
 646 668 l 1,0,-1
EndSplineSet
EndChar

StartChar: infinity
Encoding: 8734 8734 166
AltUni2: 00e9be.ffffffff.0 00e9be.ffffffff.0
Width: 757
GlyphClass: 1
Flags: W
LayerCount: 2
Fore
SplineSet
205 412 m 1,0,1
 255 412 255 412 293 390.5 c 128,-1,2
 331 369 331 369 362 336 c 1,3,4
 394 369 394 369 432 390.5 c 128,-1,5
 470 412 470 412 520 412 c 0,6,7
 557 412 557 412 589 400.5 c 128,-1,8
 621 389 621 389 645 368 c 128,-1,9
 669 347 669 347 682.5 318 c 128,-1,10
 696 289 696 289 696 255 c 0,11,12
 696 220 696 220 683 191 c 128,-1,13
 670 162 670 162 646.5 141 c 128,-1,14
 623 120 623 120 591.5 108.5 c 128,-1,15
 560 97 560 97 524 97 c 0,16,17
 470 97 470 97 431.5 120 c 128,-1,18
 393 143 393 143 362 176 c 1,19,20
 331 143 331 143 293 120 c 128,-1,21
 255 97 255 97 201 97 c 0,22,23
 165 97 165 97 133.5 108.5 c 128,-1,24
 102 120 102 120 78.5 141 c 128,-1,25
 55 162 55 162 42 191 c 128,-1,26
 29 220 29 220 29 255 c 0,27,28
 29 289 29 289 42.5 318 c 128,-1,29
 56 347 56 347 80 368 c 128,-1,30
 104 389 104 389 136 400.5 c 128,-1,31
 168 412 168 412 205 412 c 1,32,-1
 205 412 l 1,0,1
429 256 m 1,33,34
 446 235 446 235 467.5 219.5 c 128,-1,35
 489 204 489 204 517 204 c 0,36,37
 543 204 543 204 559.5 218.5 c 128,-1,38
 576 233 576 233 576 256 c 256,39,40
 576 279 576 279 558.5 292.5 c 128,-1,41
 541 306 541 306 515 306 c 256,42,43
 489 306 489 306 467.5 291 c 128,-1,44
 446 276 446 276 429 256 c 1,45,-1
 429 256 l 1,33,34
208 204 m 1,46,47
 236 204 236 204 257.5 219.5 c 128,-1,48
 279 235 279 235 296 256 c 1,49,50
 279 276 279 276 257.5 291 c 128,-1,51
 236 306 236 306 210 306 c 256,52,53
 184 306 184 306 166.5 292.5 c 128,-1,54
 149 279 149 279 149 256 c 256,55,56
 149 233 149 233 165.5 218.5 c 128,-1,57
 182 204 182 204 208 204 c 1,58,-1
 208 204 l 1,46,47
EndSplineSet
EndChar

StartChar: uni03A9
Encoding: 937 937 167
AltUni2: 00e9b4.ffffffff.0 00e9b4.ffffffff.0
Width: 757
GlyphClass: 1
Flags: W
LayerCount: 2
Fore
SplineSet
197 115 m 1,0,-1
 197 139 l 1,1,2
 135 178 135 178 97.5 243 c 128,-1,3
 60 308 60 308 60 386 c 0,4,5
 60 447 60 447 83 500.5 c 128,-1,6
 106 554 106 554 146 594 c 128,-1,7
 186 634 186 634 239 657 c 128,-1,8
 292 680 292 680 353 680 c 256,9,10
 414 680 414 680 467.5 657 c 128,-1,11
 521 634 521 634 560.5 594 c 128,-1,12
 600 554 600 554 623 500.5 c 128,-1,13
 646 447 646 447 646 386 c 0,14,15
 646 308 646 308 608.5 243 c 128,-1,16
 571 178 571 178 509 139 c 1,17,-1
 509 115 l 1,18,-1
 646 115 l 1,19,-1
 646 0 l 1,20,-1
 378 0 l 1,21,-1
 378 223 l 1,22,23
 409 228 409 228 436 243 c 128,-1,24
 463 258 463 258 482.5 280.5 c 128,-1,25
 502 303 502 303 513 331.5 c 128,-1,26
 524 360 524 360 524 392 c 0,27,28
 524 428 524 428 510.5 459 c 128,-1,29
 497 490 497 490 474 513.5 c 128,-1,30
 451 537 451 537 419.5 550.5 c 128,-1,31
 388 564 388 564 353 564 c 0,32,33
 317 564 317 564 286 550.5 c 128,-1,34
 255 537 255 537 231.5 513.5 c 128,-1,35
 208 490 208 490 194.5 459 c 128,-1,36
 181 428 181 428 181 392 c 0,37,38
 181 360 181 360 192.5 331.5 c 128,-1,39
 204 303 204 303 223.5 280.5 c 128,-1,40
 243 258 243 258 270 243 c 128,-1,41
 297 228 297 228 328 223 c 1,42,-1
 328 0 l 1,43,-1
 60 0 l 1,44,-1
 60 115 l 1,45,-1
 197 115 l 1,46,-1
 197 115 l 1,0,-1
EndSplineSet
EndChar

StartChar: estimated
Encoding: 8494 8494 168
AltUni2: 00e9b5.ffffffff.0 00e9b5.ffffffff.0
Width: 610
GlyphClass: 1
Flags: W
LayerCount: 2
Fore
SplineSet
30 249 m 1,0,1
 30 303 30 303 50.5 350.5 c 128,-1,2
 71 398 71 398 106.5 433.5 c 128,-1,3
 142 469 142 469 190 489.5 c 128,-1,4
 238 510 238 510 292 510 c 256,5,6
 346 510 346 510 393 489.5 c 128,-1,7
 440 469 440 469 475.5 433.5 c 128,-1,8
 511 398 511 398 531.5 350.5 c 128,-1,9
 552 303 552 303 552 249 c 1,10,-1
 167 249 l 1,11,-1
 167 104 l 1,12,13
 192 82 192 82 224 70 c 128,-1,14
 256 58 256 58 292 58 c 0,15,16
 336 58 336 58 374.5 77 c 128,-1,17
 413 96 413 96 439 128 c 1,18,-1
 507 103 l 1,19,20
 472 51 472 51 415.5 19.5 c 128,-1,21
 359 -12 359 -12 292 -12 c 0,22,23
 238 -12 238 -12 190 8.5 c 128,-1,24
 142 29 142 29 106.5 64.5 c 128,-1,25
 71 100 71 100 50.5 147.5 c 128,-1,26
 30 195 30 195 30 249 c 1,27,-1
 30 249 l 1,0,1
167 315 m 1,28,-1
 415 315 l 1,29,-1
 415 394 l 1,30,31
 390 416 390 416 358.5 428 c 128,-1,32
 327 440 327 440 292 440 c 0,33,34
 256 440 256 440 224 428 c 128,-1,35
 192 416 192 416 167 394 c 1,36,-1
 167 315 l 1,37,-1
 167 315 l 1,28,-1
EndSplineSet
EndChar

StartChar: partialdiff
Encoding: 8706 8706 169
AltUni2: 00e9b6.ffffffff.0 00e9b6.ffffffff.0
Width: 594
GlyphClass: 1
Flags: W
LayerCount: 2
Fore
SplineSet
21 212 m 1,0,1
 21 258 21 258 38.5 298.5 c 128,-1,2
 56 339 56 339 86.5 369.5 c 128,-1,3
 117 400 117 400 158 417.5 c 128,-1,4
 199 435 199 435 245 435 c 0,5,6
 280 435 280 435 308 427.5 c 128,-1,7
 336 420 336 420 358 408.5 c 128,-1,8
 380 397 380 397 396 383 c 128,-1,9
 412 369 412 369 422 356 c 1,10,11
 419 403 419 403 404.5 442 c 128,-1,12
 390 481 390 481 359 509 c 128,-1,13
 328 537 328 537 277.5 550.5 c 128,-1,14
 227 564 227 564 152 560 c 1,15,-1
 152 680 l 1,16,17
 177 680 177 680 215 679.5 c 128,-1,18
 253 679 253 679 296 670 c 128,-1,19
 339 661 339 661 381.5 640 c 128,-1,20
 424 619 424 619 458.5 578.5 c 128,-1,21
 493 538 493 538 514.5 474 c 128,-1,22
 536 410 536 410 536 315 c 0,23,24
 536 271 536 271 531 228 c 128,-1,25
 526 185 526 185 509 143 c 0,26,27
 490 97 490 97 462 67 c 128,-1,28
 434 37 434 37 402 19.5 c 128,-1,29
 370 2 370 2 335.5 -5 c 128,-1,30
 301 -12 301 -12 269 -12 c 0,31,32
 219 -12 219 -12 174 2.5 c 128,-1,33
 129 17 129 17 95 45 c 128,-1,34
 61 73 61 73 41 115 c 128,-1,35
 21 157 21 157 21 212 c 1,36,-1
 21 212 l 1,0,1
276 107 m 1,37,38
 297 107 297 107 316 115 c 128,-1,39
 335 123 335 123 349 137.5 c 128,-1,40
 363 152 363 152 371 171 c 128,-1,41
 379 190 379 190 379 211 c 0,42,43
 379 233 379 233 371 252 c 128,-1,44
 363 271 363 271 349 285 c 128,-1,45
 335 299 335 299 316 307 c 128,-1,46
 297 315 297 315 276 315 c 256,47,48
 255 315 255 315 236 307 c 128,-1,49
 217 299 217 299 202.5 285 c 128,-1,50
 188 271 188 271 180 252 c 128,-1,51
 172 233 172 233 172 211 c 0,52,53
 172 190 172 190 180 171 c 128,-1,54
 188 152 188 152 202.5 137.5 c 128,-1,55
 217 123 217 123 236 115 c 128,-1,56
 255 107 255 107 276 107 c 1,57,-1
 276 107 l 1,37,38
EndSplineSet
EndChar

StartChar: uni0394
Encoding: 916 916 170
AltUni2: 00e9b7.ffffffff.0 00e9b7.ffffffff.0
Width: 715
GlyphClass: 1
Flags: W
LayerCount: 2
Fore
SplineSet
604 0 m 1,0,-1
 -29 0 l 1,1,-1
 287 680 l 1,2,-1
 604 0 l 1,0,-1
159 115 m 1,3,-1
 415 115 l 1,4,-1
 287 418 l 1,5,-1
 159 115 l 1,3,-1
EndSplineSet
EndChar

StartChar: product
Encoding: 8719 8719 171
AltUni2: 00e9b8.ffffffff.0 00e9b8.ffffffff.0
Width: 790
GlyphClass: 1
Flags: W
LayerCount: 2
Fore
SplineSet
113 668 m 1,0,-1
 645 668 l 1,1,-1
 645 -161 l 1,2,-1
 517 -161 l 1,3,-1
 517 552 l 1,4,-1
 241 552 l 1,5,-1
 241 -161 l 1,6,-1
 113 -161 l 1,7,-1
 113 668 l 1,0,-1
EndSplineSet
EndChar

StartChar: pi
Encoding: 960 960 172
AltUni2: 00e9a0.ffffffff.0 00e9a0.ffffffff.0
Width: 672
GlyphClass: 1
Flags: W
LayerCount: 2
Fore
SplineSet
52 380 m 1,0,-1
 77 496 l 1,1,-1
 666 496 l 1,2,-1
 641 380 l 1,3,-1
 553 380 l 1,4,-1
 504 152 l 2,5,6
 501 139 501 139 501 130 c 128,-1,7
 501 121 501 121 505.5 115.5 c 128,-1,8
 510 110 510 110 520.5 107.5 c 128,-1,9
 531 105 531 105 550 105 c 2,10,-1
 583 105 l 1,11,-1
 560 1 l 1,12,-1
 482 1 l 2,13,14
 443 1 443 1 417.5 9.5 c 128,-1,15
 392 18 392 18 379 33 c 128,-1,16
 366 48 366 48 363 69.5 c 128,-1,17
 360 91 360 91 366 118 c 2,18,-1
 422 380 l 1,19,-1
 272 380 l 1,20,-1
 191 0 l 1,21,-1
 60 0 l 1,22,-1
 141 380 l 1,23,-1
 52 380 l 1,24,-1
 52 380 l 1,0,-1
EndSplineSet
EndChar

StartChar: hungarumlaut
Encoding: 733 733 173
AltUni2: 00e9c5.ffffffff.0 00e9c5.ffffffff.0
Width: 502
GlyphClass: 1
Flags: W
LayerCount: 2
Fore
SplineSet
89 572 m 1,0,1
 129 611 129 611 160 642 c 0,2,3
 173 655 173 655 186 668 c 128,-1,4
 199 681 199 681 209 691 c 128,-1,5
 219 701 219 701 225.5 707 c 128,-1,6
 232 713 232 713 232 713 c 2,7,8
 240 720 240 720 249 723 c 128,-1,9
 258 726 258 726 267 726 c 0,10,11
 279 726 279 726 290.5 721 c 128,-1,12
 302 716 302 716 310 705 c 0,13,14
 325 687 325 687 323 663 c 128,-1,15
 321 639 321 639 302 626 c 0,16,17
 300 624 300 624 286 616 c 128,-1,18
 272 608 272 608 255 598 c 0,19,20
 236 586 236 586 212 572 c 1,21,-1
 89 572 l 1,22,-1
 89 572 l 1,0,1
297 572 m 1,23,24
 336 611 336 611 367 642 c 0,25,26
 381 655 381 655 393.5 668 c 128,-1,27
 406 681 406 681 416 691 c 128,-1,28
 426 701 426 701 432.5 707 c 128,-1,29
 439 713 439 713 439 713 c 2,30,31
 447 720 447 720 456 723 c 128,-1,32
 465 726 465 726 474 726 c 0,33,34
 486 726 486 726 497.5 721 c 128,-1,35
 509 716 509 716 517 705 c 0,36,37
 532 687 532 687 530 663 c 128,-1,38
 528 639 528 639 509 626 c 0,39,40
 507 624 507 624 493 616 c 128,-1,41
 479 608 479 608 462 598 c 0,42,43
 443 586 443 586 419 572 c 1,44,-1
 297 572 l 1,45,-1
 297 572 l 1,23,24
EndSplineSet
Substitution2: "'case' Case-Sensitive Forms lookup 1 subtable" hungarumlaut.case
EndChar

StartChar: tilde
Encoding: 732 732 174
AltUni2: 00e99f.ffffffff.0 00e99f.ffffffff.0
Width: 461
GlyphClass: 1
Flags: W
LayerCount: 2
Fore
SplineSet
225 689 m 1,0,1
 255 689 255 689 274.5 682.5 c 128,-1,2
 294 676 294 676 309 668.5 c 128,-1,3
 324 661 324 661 336.5 654.5 c 128,-1,4
 349 648 349 648 364 648 c 0,5,6
 380 648 380 648 390 653 c 128,-1,7
 400 658 400 658 407.5 664.5 c 128,-1,8
 415 671 415 671 422 678 c 128,-1,9
 429 685 429 685 441 688 c 0,10,11
 454 692 454 692 466 687.5 c 128,-1,12
 478 683 478 683 484.5 673 c 128,-1,13
 491 663 491 663 491.5 650 c 128,-1,14
 492 637 492 637 482 623 c 0,15,16
 476 615 476 615 466.5 605 c 128,-1,17
 457 595 457 595 442.5 586.5 c 128,-1,18
 428 578 428 578 408 572.5 c 128,-1,19
 388 567 388 567 362 568 c 0,20,21
 337 569 337 569 320 575.5 c 128,-1,22
 303 582 303 582 289 589 c 128,-1,23
 275 596 275 596 261.5 601.5 c 128,-1,24
 248 607 248 607 229 607 c 0,25,26
 198 607 198 607 178 574 c 1,27,-1
 89 574 l 1,28,29
 96 596 96 596 108.5 616.5 c 128,-1,30
 121 637 121 637 138.5 653 c 128,-1,31
 156 669 156 669 178 679 c 128,-1,32
 200 689 200 689 225 689 c 1,33,-1
 225 689 l 1,0,1
EndSplineSet
Substitution2: "'case' Case-Sensitive Forms lookup 1 subtable" tilde.case
EndChar

StartChar: endash
Encoding: 8211 8211 175
Width: 536
GlyphClass: 1
Flags: W
LayerCount: 2
Fore
SplineSet
38 185 m 1,0,-1
 38 313 l 1,1,-1
 464 313 l 1,2,-1
 464 185 l 1,3,-1
 38 185 l 1,0,-1
EndSplineSet
EndChar

StartChar: emdash
Encoding: 8212 8212 176
Width: 870
GlyphClass: 1
Flags: W
LayerCount: 2
Fore
SplineSet
38 185 m 1,0,-1
 38 313 l 1,1,-1
 798 313 l 1,2,-1
 798 185 l 1,3,-1
 38 185 l 1,0,-1
EndSplineSet
EndChar

StartChar: trademark
Encoding: 8482 8482 177
AltUni2: 00e9b3.ffffffff.0 00e9b3.ffffffff.0
Width: 1013
GlyphClass: 1
Flags: W
LayerCount: 2
Fore
SplineSet
113 668 m 1,0,-1
 463 668 l 1,1,-1
 463 575 l 1,2,-1
 343 575 l 1,3,-1
 343 301 l 1,4,-1
 234 301 l 1,5,-1
 234 575 l 1,6,-1
 113 575 l 1,7,-1
 113 668 l 1,0,-1
660 668 m 1,8,-1
 726 432 l 1,9,-1
 793 668 l 1,10,-1
 966 668 l 1,11,-1
 966 301 l 1,12,-1
 859 301 l 1,13,-1
 859 558 l 1,14,-1
 775 301 l 1,15,-1
 678 301 l 1,16,-1
 594 558 l 1,17,-1
 594 301 l 1,18,-1
 487 301 l 1,19,-1
 487 668 l 1,20,-1
 660 668 l 1,8,-1
EndSplineSet
EndChar

StartChar: dotlessi
Encoding: 305 305 178
AltUni2: 00e98d.ffffffff.0 00e98d.ffffffff.0
Width: 326
GlyphClass: 1
Flags: W
LayerCount: 2
Fore
SplineSet
51 496 m 1,0,-1
 309 496 l 1,1,-1
 204 0 l 1,2,-1
 48 0 l 1,3,-1
 129 380 l 1,4,-1
 26 380 l 1,5,-1
 51 496 l 1,0,-1
EndSplineSet
EndChar

StartChar: Euro
Encoding: 8364 8364 179
AltUni2: 00e9b1.ffffffff.0 00e9b1.ffffffff.0
Width: 762
GlyphClass: 1
Flags: W
LayerCount: 2
Fore
SplineSet
21 231 m 1,0,-1
 77 305 l 1,1,-1
 128 305 l 1,2,3
 131 332 131 332 137 366 c 1,4,-1
 49 366 l 1,5,-1
 105 440 l 1,6,-1
 157 440 l 1,7,8
 199 555 199 555 285.5 617.5 c 128,-1,9
 372 680 372 680 488 680 c 0,10,11
 525 680 525 680 562.5 673 c 128,-1,12
 600 666 600 666 633 648 c 128,-1,13
 666 630 666 630 692.5 600 c 128,-1,14
 719 570 719 570 734 525 c 1,15,-1
 595 475 l 1,16,17
 577 520 577 520 546.5 536.5 c 128,-1,18
 516 553 516 553 477 553 c 0,19,20
 423 553 423 553 381 523.5 c 128,-1,21
 339 494 339 494 313 440 c 1,22,-1
 508 440 l 1,23,-1
 452 366 l 1,24,-1
 288 366 l 1,25,26
 284 348 284 348 282.5 334.5 c 128,-1,27
 281 321 281 321 279 305 c 1,28,-1
 404 305 l 1,29,-1
 348 231 l 1,30,-1
 284 231 l 1,31,32
 295 174 295 174 327.5 146 c 128,-1,33
 360 118 360 118 405 118 c 0,34,35
 441 118 441 118 481 133 c 128,-1,36
 521 148 521 148 552 194 c 1,37,-1
 681 140 l 1,38,39
 635 65 635 65 562 24.5 c 128,-1,40
 489 -16 489 -16 384 -12 c 0,41,42
 332 -10 332 -10 287.5 6 c 128,-1,43
 243 22 243 22 209 52 c 128,-1,44
 175 82 175 82 154 127 c 128,-1,45
 133 172 133 172 128 231 c 1,46,-1
 21 231 l 1,47,-1
 21 231 l 1,0,-1
EndSplineSet
EndChar

StartChar: uni2113
Encoding: 8467 8467 180
AltUni2: 00e9b2.ffffffff.0 00e9b2.ffffffff.0
Width: 506
GlyphClass: 1
Flags: W
LayerCount: 2
Fore
SplineSet
-5 112 m 1,0,-1
 18 218 l 1,1,-1
 92 265 l 1,2,-1
 132 452 l 2,3,4
 145 514 145 514 166 557.5 c 128,-1,5
 187 601 187 601 215 628 c 128,-1,6
 243 655 243 655 278.5 667.5 c 128,-1,7
 314 680 314 680 356 680 c 0,8,9
 435 680 435 680 476 644.5 c 128,-1,10
 517 609 517 609 509 540 c 0,11,12
 504 497 504 497 482 461.5 c 128,-1,13
 460 426 460 426 426.5 394.5 c 128,-1,14
 393 363 393 363 350 333.5 c 128,-1,15
 307 304 307 304 259 272 c 2,16,-1
 247 264 l 1,17,-1
 231 191 l 2,18,19
 221 146 221 146 232.5 128 c 128,-1,20
 244 110 244 110 276 110 c 0,21,22
 299 110 299 110 320.5 119 c 128,-1,23
 342 128 342 128 362 141 c 1,24,-1
 400 52 l 1,25,26
 387 42 387 42 368.5 30.5 c 128,-1,27
 350 19 350 19 327 9.5 c 128,-1,28
 304 0 304 0 277 -6 c 128,-1,29
 250 -12 250 -12 219 -12 c 0,30,31
 182 -12 182 -12 150.5 -3 c 128,-1,32
 119 6 119 6 98 26 c 128,-1,33
 77 46 77 46 68.5 78 c 128,-1,34
 60 110 60 110 69 157 c 1,35,-1
 -5 112 l 1,36,-1
 -5 112 l 1,0,-1
275 376 m 1,37,38
 317 402 317 402 345 440.5 c 128,-1,39
 373 479 373 479 383 521 c 0,40,41
 389 547 389 547 381 560 c 128,-1,42
 373 573 373 573 354 573 c 0,43,44
 330 573 330 573 317 555 c 128,-1,45
 304 537 304 537 296 501 c 2,46,-1
 270 373 l 1,47,-1
 275 376 l 1,48,-1
 275 376 l 1,37,38
EndSplineSet
EndChar

StartChar: Lslash
Encoding: 321 321 181
AltUni2: 00e98e.ffffffff.0 00e98e.ffffffff.0
Width: 595
GlyphClass: 1
Flags: W
LayerCount: 2
Fore
SplineSet
539 140 m 1,0,-1
 510 0 l 1,1,-1
 28 0 l 1,2,-1
 76 225 l 1,3,-1
 -15 177 l 1,4,-1
 11 300 l 1,5,-1
 103 348 l 1,6,-1
 171 668 l 1,7,-1
 331 668 l 1,8,-1
 283 445 l 1,9,-1
 459 538 l 1,10,-1
 433 414 l 1,11,-1
 258 322 l 1,12,-1
 219 140 l 1,13,-1
 539 140 l 1,0,-1
EndSplineSet
EndChar

StartChar: lslash
Encoding: 322 322 182
AltUni2: 00e98f.ffffffff.0 00e98f.ffffffff.0
Width: 343
GlyphClass: 1
Flags: W
LayerCount: 2
Fore
SplineSet
4 309 m 1,0,-1
 80 349 l 1,1,-1
 147 668 l 1,2,-1
 302 668 l 1,3,-1
 255 442 l 1,4,-1
 377 507 l 1,5,-1
 351 385 l 1,6,-1
 230 321 l 1,7,-1
 205 205 l 2,8,9
 201 186 201 186 198.5 170.5 c 128,-1,10
 196 155 196 155 200 145 c 128,-1,11
 204 135 204 135 216 129.5 c 128,-1,12
 228 124 228 124 253 124 c 2,13,-1
 295 124 l 1,14,-1
 270 0 l 1,15,-1
 173 0 l 2,16,17
 135 0 135 0 105.5 7 c 128,-1,18
 76 14 76 14 57.5 30.5 c 128,-1,19
 39 47 39 47 32.5 73.5 c 128,-1,20
 26 100 26 100 35 140 c 2,21,-1
 54 228 l 1,22,-1
 -22 188 l 1,23,-1
 4 309 l 1,24,-1
 4 309 l 1,0,-1
EndSplineSet
EndChar

StartChar: oslash
Encoding: 248 248 183
AltUni2: 00e985.ffffffff.0 00e985.ffffffff.0
Width: 577
GlyphClass: 1
Flags: W
LayerCount: 2
Fore
SplineSet
-26 27 m 1,0,-1
 37 85 l 1,1,2
 -5 150 -5 150 7 243 c 0,3,4
 16 314 16 314 44.5 365 c 128,-1,5
 73 416 73 416 113.5 448 c 128,-1,6
 154 480 154 480 203 495 c 128,-1,7
 252 510 252 510 303 510 c 0,8,9
 345 510 345 510 382.5 500 c 128,-1,10
 420 490 420 490 450 470 c 1,11,-1
 513 529 l 1,12,-1
 564 475 l 1,13,-1
 502 418 l 1,14,15
 524 386 524 386 533 344.5 c 128,-1,16
 542 303 542 303 534 250 c 0,17,18
 523 169 523 169 489.5 118 c 128,-1,19
 456 67 456 67 413.5 38 c 128,-1,20
 371 9 371 9 324.5 -1.5 c 128,-1,21
 278 -12 278 -12 241 -12 c 0,22,23
 148 -12 148 -12 87 32 c 1,24,-1
 25 -27 l 1,25,-1
 -26 27 l 1,26,-1
 -26 27 l 1,0,-1
247 106 m 1,27,28
 279 106 279 106 302 119 c 128,-1,29
 325 132 325 132 341 152.5 c 128,-1,30
 357 173 357 173 366 199 c 128,-1,31
 375 225 375 225 379 250 c 0,32,33
 381 266 381 266 381.5 280 c 128,-1,34
 382 294 382 294 381 306 c 1,35,-1
 188 125 l 1,36,37
 199 116 199 116 213 111 c 128,-1,38
 227 106 227 106 247 106 c 1,39,-1
 247 106 l 1,27,28
160 200 m 1,40,-1
 350 376 l 1,41,42
 327 394 327 394 289 392 c 0,43,44
 245 390 245 390 211 358.5 c 128,-1,45
 177 327 177 327 164 250 c 0,46,47
 162 238 162 238 160.5 225.5 c 128,-1,48
 159 213 159 213 160 200 c 1,49,-1
 160 200 l 1,40,-1
EndSplineSet
EndChar

StartChar: Oslash
Encoding: 216 216 184
AltUni2: 00e965.ffffffff.0 00e965.ffffffff.0
Width: 762
GlyphClass: 1
Flags: W
LayerCount: 2
Fore
SplineSet
5 43 m 1,0,-1
 76 109 l 1,1,2
 48 151 48 151 37.5 204.5 c 128,-1,3
 27 258 27 258 35 321 c 0,4,5
 46 403 46 403 79.5 469 c 128,-1,6
 113 535 113 535 164.5 582 c 128,-1,7
 216 629 216 629 282.5 654.5 c 128,-1,8
 349 680 349 680 426 680 c 0,9,10
 548 680 548 680 627 622 c 1,11,-1
 696 686 l 1,12,-1
 747 633 l 1,13,-1
 679 569 l 1,14,15
 710 527 710 527 723 471 c 128,-1,16
 736 415 736 415 728 345 c 0,17,18
 720 266 720 266 687 200.5 c 128,-1,19
 654 135 654 135 602.5 87.5 c 128,-1,20
 551 40 551 40 482.5 14 c 128,-1,21
 414 -12 414 -12 334 -12 c 0,22,23
 268 -12 268 -12 215.5 5 c 128,-1,24
 163 22 163 22 125 54 c 1,25,-1
 56 -11 l 1,26,-1
 5 43 l 1,27,-1
 5 43 l 1,0,-1
349 118 m 1,28,29
 391 118 391 118 427 135 c 128,-1,30
 463 152 463 152 491 182 c 128,-1,31
 519 212 519 212 537.5 254 c 128,-1,32
 556 296 556 296 561 345 c 0,33,34
 565 377 565 377 562.5 403 c 128,-1,35
 560 429 560 429 552 451 c 1,36,-1
 242 163 l 1,37,38
 261 142 261 142 287.5 130 c 128,-1,39
 314 118 314 118 349 118 c 1,40,-1
 349 118 l 1,28,29
207 231 m 1,41,-1
 511 514 l 1,42,43
 491 532 491 532 465.5 541 c 128,-1,44
 440 550 440 550 414 550 c 0,45,46
 377 550 377 550 342 535.5 c 128,-1,47
 307 521 307 521 278.5 492.5 c 128,-1,48
 250 464 250 464 229.5 421 c 128,-1,49
 209 378 209 378 202 321 c 0,50,51
 199 297 199 297 200 274 c 128,-1,52
 201 251 201 251 207 231 c 1,53,-1
 207 231 l 1,41,-1
EndSplineSet
EndChar

StartChar: Thorn
Encoding: 222 222 185
AltUni2: 00e96b.ffffffff.0 00e96b.ffffffff.0
Width: 636
GlyphClass: 1
Flags: W
LayerCount: 2
Fore
SplineSet
-23 0 m 1,0,-1
 119 668 l 1,1,-1
 280 668 l 1,2,-1
 259 563 l 1,3,-1
 347 563 l 2,4,5
 412 563 412 563 464.5 553 c 128,-1,6
 517 543 517 543 552.5 518 c 128,-1,7
 588 493 588 493 603 451 c 128,-1,8
 618 409 618 409 609 344 c 0,9,10
 599 271 599 271 563.5 228.5 c 128,-1,11
 528 186 528 186 478 163.5 c 128,-1,12
 428 141 428 141 369.5 134.5 c 128,-1,13
 311 128 311 128 255 128 c 2,14,-1
 166 128 l 1,15,-1
 139 0 l 1,16,-1
 -23 0 l 1,17,-1
 -23 0 l 1,0,-1
196 269 m 1,18,-1
 294 269 l 2,19,20
 336 269 336 269 362.5 275.5 c 128,-1,21
 389 282 389 282 405.5 292.5 c 128,-1,22
 422 303 422 303 430 317 c 128,-1,23
 438 331 438 331 441 347 c 0,24,25
 445 367 445 367 443.5 381.5 c 128,-1,26
 442 396 442 396 430 406 c 128,-1,27
 418 416 418 416 394.5 421 c 128,-1,28
 371 426 371 426 332 426 c 2,29,-1
 230 426 l 1,30,-1
 196 269 l 1,31,-1
 196 269 l 1,18,-1
EndSplineSet
EndChar

StartChar: ae
Encoding: 230 230 187
AltUni2: 00e973.ffffffff.0 00e973.ffffffff.0
Width: 882
GlyphClass: 1
Flags: W
LayerCount: 2
Fore
SplineSet
-7 182 m 1,0,1
 11 217 11 217 44.5 239.5 c 128,-1,2
 78 262 78 262 123 275.5 c 128,-1,3
 168 289 168 289 223.5 294 c 128,-1,4
 279 299 279 299 340 299 c 1,5,-1
 346 329 l 2,6,7
 355 372 355 372 336.5 389.5 c 128,-1,8
 318 407 318 407 277 407 c 0,9,10
 246 407 246 407 218 392.5 c 128,-1,11
 190 378 190 378 176 348 c 1,12,-1
 58 394 l 1,13,14
 96 452 96 452 154.5 481 c 128,-1,15
 213 510 213 510 298 510 c 0,16,17
 347 510 347 510 383 494 c 128,-1,18
 419 478 419 478 437 452 c 1,19,20
 472 480 472 480 515.5 495 c 128,-1,21
 559 510 559 510 622 510 c 0,22,23
 687 510 687 510 734 488 c 128,-1,24
 781 466 781 466 808.5 426.5 c 128,-1,25
 836 387 836 387 843 331.5 c 128,-1,26
 850 276 850 276 834 209 c 1,27,-1
 468 209 l 1,28,29
 463 181 463 181 470 161.5 c 128,-1,30
 477 142 477 142 491 129.5 c 128,-1,31
 505 117 505 117 525 111.5 c 128,-1,32
 545 106 545 106 567 106 c 0,33,34
 598 106 598 106 627 116 c 128,-1,35
 656 126 656 126 673 143 c 1,36,-1
 786 98 l 1,37,38
 744 44 744 44 682 16 c 128,-1,39
 620 -12 620 -12 544 -12 c 0,40,41
 479 -12 479 -12 435.5 12.5 c 128,-1,42
 392 37 392 37 367 78 c 1,43,44
 324 30 324 30 270 8.5 c 128,-1,45
 216 -13 216 -13 160 -13 c 0,46,47
 134 -13 134 -13 109.5 -9 c 128,-1,48
 85 -5 85 -5 62 3 c 0,49,50
 37 12 37 12 17 29.5 c 128,-1,51
 -3 47 -3 47 -13.5 70.5 c 128,-1,52
 -24 94 -24 94 -23 122.5 c 128,-1,53
 -22 151 -22 151 -7 182 c 1,54,-1
 -7 182 l 1,0,1
482 299 m 1,55,-1
 710 299 l 1,56,57
 715 349 715 349 686 373.5 c 128,-1,58
 657 398 657 398 616 398 c 0,59,60
 596 398 596 398 575 392 c 128,-1,61
 554 386 554 386 536 373.5 c 128,-1,62
 518 361 518 361 503.5 342.5 c 128,-1,63
 489 324 489 324 482 299 c 1,64,-1
 482 299 l 1,55,-1
207 91 m 1,65,66
 241 94 241 94 262.5 108.5 c 128,-1,67
 284 123 284 123 297 141 c 128,-1,68
 310 159 310 159 316.5 178 c 128,-1,69
 323 197 323 197 327 209 c 1,70,71
 284 209 284 209 250 207.5 c 128,-1,72
 216 206 216 206 192 199 c 128,-1,73
 168 192 168 192 155 179.5 c 128,-1,74
 142 167 142 167 139 145 c 0,75,76
 136 120 136 120 154.5 104 c 128,-1,77
 173 88 173 88 207 91 c 1,78,-1
 207 91 l 1,65,66
EndSplineSet
EndChar

StartChar: eth
Encoding: 240 240 188
AltUni2: 00e97d.ffffffff.0 00e97d.ffffffff.0
Width: 582
GlyphClass: 1
Flags: W
LayerCount: 2
Fore
SplineSet
8 255 m 1,0,1
 19 306 19 306 43 344 c 128,-1,2
 67 382 67 382 101 406.5 c 128,-1,3
 135 431 135 431 176 443.5 c 128,-1,4
 217 456 217 456 262 456 c 0,5,6
 283 456 283 456 304.5 451 c 128,-1,7
 326 446 326 446 346 436.5 c 128,-1,8
 366 427 366 427 382.5 414 c 128,-1,9
 399 401 399 401 409 384 c 1,10,11
 409 401 409 401 408.5 422 c 128,-1,12
 408 443 408 443 404 464.5 c 128,-1,13
 400 486 400 486 391.5 507.5 c 128,-1,14
 383 529 383 529 366 547 c 1,15,-1
 289 483 l 1,16,-1
 252 530 l 1,17,-1
 315 584 l 1,18,19
 295 593 295 593 268.5 598.5 c 128,-1,20
 242 604 242 604 207 604 c 1,21,-1
 233 726 l 1,22,23
 295 724 295 724 342 710 c 128,-1,24
 389 696 389 696 424 673 c 1,25,-1
 498 734 l 1,26,-1
 535 686 l 1,27,-1
 470 633 l 1,28,29
 495 606 495 606 511 574 c 128,-1,30
 527 542 527 542 535.5 508 c 128,-1,31
 544 474 544 474 546.5 439 c 128,-1,32
 549 404 549 404 547 371 c 0,33,34
 541 269 541 269 513 196.5 c 128,-1,35
 485 124 485 124 442 77.5 c 128,-1,36
 399 31 399 31 344 9.5 c 128,-1,37
 289 -12 289 -12 228 -12 c 0,38,39
 154 -12 154 -12 107 14 c 128,-1,40
 60 40 60 40 35 80 c 128,-1,41
 10 120 10 120 4.5 166.5 c 128,-1,42
 -1 213 -1 213 8 255 c 1,43,-1
 8 255 l 1,0,1
237 101 m 1,44,45
 343 101 343 101 356 220 c 0,46,47
 362 274 362 274 335.5 306 c 128,-1,48
 309 338 309 338 261 338 c 0,49,50
 211 338 211 338 179 305 c 128,-1,51
 147 272 147 272 142 220 c 0,52,53
 139 195 139 195 145.5 173 c 128,-1,54
 152 151 152 151 164.5 135 c 128,-1,55
 177 119 177 119 196 110 c 128,-1,56
 215 101 215 101 237 101 c 1,57,-1
 237 101 l 1,44,45
EndSplineSet
EndChar

StartChar: thorn
Encoding: 254 254 189
AltUni2: 00e98b.ffffffff.0 00e98b.ffffffff.0
Width: 590
GlyphClass: 1
Flags: W
LayerCount: 2
Fore
SplineSet
-54 -161 m 1,0,-1
 122 668 l 1,1,-1
 277 668 l 1,2,-1
 228 434 l 1,3,4
 256 475 256 475 295.5 493 c 128,-1,5
 335 511 335 511 377 511 c 0,6,7
 404 511 404 511 435 502 c 128,-1,8
 466 493 466 493 492 470 c 128,-1,9
 518 447 518 447 535 407.5 c 128,-1,10
 552 368 552 368 552 306 c 256,11,12
 552 244 552 244 534 186.5 c 128,-1,13
 516 129 516 129 481.5 85 c 128,-1,14
 447 41 447 41 398.5 14.5 c 128,-1,15
 350 -12 350 -12 288 -12 c 0,16,17
 268 -12 268 -12 247 -6 c 128,-1,18
 226 0 226 0 207.5 11.5 c 128,-1,19
 189 23 189 23 174.5 39 c 128,-1,20
 160 55 160 55 152 75 c 1,21,-1
 102 -161 l 1,22,-1
 -54 -161 l 1,23,-1
 -54 -161 l 1,0,-1
262 107 m 1,24,25
 302 107 302 107 327.5 125.5 c 128,-1,26
 353 144 353 144 368 170 c 128,-1,27
 383 196 383 196 388.5 224.5 c 128,-1,28
 394 253 394 253 394 273 c 0,29,30
 394 338 394 338 371 365 c 128,-1,31
 348 392 348 392 307 392 c 0,32,33
 262 392 262 392 228 359.5 c 128,-1,34
 194 327 194 327 179 256 c 0,35,36
 172 220 172 220 176 192 c 128,-1,37
 180 164 180 164 192.5 145.5 c 128,-1,38
 205 127 205 127 223 117 c 128,-1,39
 241 107 241 107 262 107 c 1,40,-1
 262 107 l 1,24,25
EndSplineSet
EndChar

StartChar: uni02C9
Encoding: 713 713 190
Width: 373
GlyphClass: 1
Flags: W
LayerCount: 2
Fore
SplineSet
84 550 m 1,0,-1
 105 648 l 1,1,-1
 404 648 l 1,2,-1
 383 550 l 1,3,-1
 84 550 l 1,0,-1
EndSplineSet
EndChar

StartChar: breve.case
Encoding: 65546 -1 192
Width: 342
GlyphClass: 1
Flags: W
LayerCount: 2
Fore
SplineSet
228 850 m 1,0,1
 232 833 232 833 246.5 823 c 128,-1,2
 261 813 261 813 281 813 c 0,3,4
 302 813 302 813 318 823 c 128,-1,5
 334 833 334 833 340 850 c 1,6,-1
 434 850 l 1,7,8
 420 803 420 803 379.5 771 c 128,-1,9
 339 739 339 739 277 739 c 0,10,11
 217 739 217 739 178.5 770 c 128,-1,12
 140 801 140 801 135 850 c 1,13,-1
 228 850 l 1,14,-1
 228 850 l 1,0,1
EndSplineSet
EndChar

StartChar: tilde.case
Encoding: 65548 -1 194
Width: 383
GlyphClass: 1
Flags: W
LayerCount: 2
Fore
SplineSet
220 846 m 1,0,1
 250 846 250 846 269.5 839.5 c 128,-1,2
 289 833 289 833 304 825.5 c 128,-1,3
 319 818 319 818 331.5 811.5 c 128,-1,4
 344 805 344 805 359 805 c 0,5,6
 375 805 375 805 385 810 c 128,-1,7
 395 815 395 815 402.5 821.5 c 128,-1,8
 410 828 410 828 417 835 c 128,-1,9
 424 842 424 842 436 845 c 0,10,11
 449 849 449 849 461 844.5 c 128,-1,12
 473 840 473 840 479.5 830 c 128,-1,13
 486 820 486 820 486.5 807 c 128,-1,14
 487 794 487 794 477 780 c 0,15,16
 471 772 471 772 461.5 762 c 128,-1,17
 452 752 452 752 437.5 743.5 c 128,-1,18
 423 735 423 735 403 729.5 c 128,-1,19
 383 724 383 724 357 725 c 0,20,21
 332 726 332 726 315 732.5 c 128,-1,22
 298 739 298 739 284 746 c 128,-1,23
 270 753 270 753 256.5 758.5 c 128,-1,24
 243 764 243 764 224 764 c 0,25,26
 193 764 193 764 173 731 c 1,27,-1
 84 731 l 1,28,29
 91 753 91 753 103.5 773.5 c 128,-1,30
 116 794 116 794 133.5 810 c 128,-1,31
 151 826 151 826 173 836 c 128,-1,32
 195 846 195 846 220 846 c 1,33,-1
 220 846 l 1,0,1
EndSplineSet
EndChar

StartChar: multiply
Encoding: 215 215 196
AltUni2: 00e964.ffffffff.0 00e964.ffffffff.0
Width: 618
GlyphClass: 1
Flags: W
LayerCount: 2
Fore
SplineSet
373 248 m 1,0,-1
 509 112 l 1,1,-1
 418 22 l 1,2,-1
 284 158 l 1,3,-1
 149 22 l 1,4,-1
 58 112 l 1,5,-1
 194 248 l 1,6,-1
 55 385 l 1,7,-1
 146 476 l 1,8,-1
 284 337 l 1,9,-1
 421 476 l 1,10,-1
 512 385 l 1,11,-1
 373 248 l 1,0,-1
EndSplineSet
EndChar

StartChar: divide
Encoding: 247 247 197
AltUni2: 00e984.ffffffff.0 00e984.ffffffff.0
Width: 645
GlyphClass: 1
Flags: W
LayerCount: 2
Fore
SplineSet
217 431 m 1,0,1
 217 464 217 464 240.5 487 c 128,-1,2
 264 510 264 510 296 510 c 256,3,4
 328 510 328 510 351.5 487 c 128,-1,5
 375 464 375 464 375 431 c 256,6,7
 375 398 375 398 351.5 374.5 c 128,-1,8
 328 351 328 351 296 351 c 256,9,10
 264 351 264 351 240.5 374.5 c 128,-1,11
 217 398 217 398 217 431 c 1,12,-1
 217 431 l 1,0,1
296 147 m 1,13,14
 328 147 328 147 351.5 123.5 c 128,-1,15
 375 100 375 100 375 68 c 0,16,17
 375 35 375 35 351.5 11.5 c 128,-1,18
 328 -12 328 -12 296 -12 c 256,19,20
 264 -12 264 -12 240.5 11.5 c 128,-1,21
 217 35 217 35 217 68 c 0,22,23
 217 100 217 100 240.5 123.5 c 128,-1,24
 264 147 264 147 296 147 c 1,25,-1
 296 147 l 1,13,14
552 314 m 1,26,-1
 552 186 l 1,27,-1
 40 186 l 1,28,-1
 40 314 l 1,29,-1
 552 314 l 1,26,-1
EndSplineSet
EndChar

StartChar: OE
Encoding: 338 338 198
AltUni2: 00e990.ffffffff.0 00e990.ffffffff.0
Width: 1109
GlyphClass: 1
Flags: W
LayerCount: 2
Fore
SplineSet
35 321 m 1,0,1
 46 403 46 403 79.5 469.5 c 128,-1,2
 113 536 113 536 164.5 582.5 c 128,-1,3
 216 629 216 629 282.5 654.5 c 128,-1,4
 349 680 349 680 426 680 c 0,5,6
 494 680 494 680 552 659 c 128,-1,7
 610 638 610 638 643 596 c 1,8,-1
 658 668 l 1,9,-1
 1151 668 l 1,10,-1
 1121 529 l 1,11,-1
 765 529 l 1,12,-1
 740 413 l 1,13,-1
 958 413 l 1,14,-1
 929 275 l 1,15,-1
 711 275 l 1,16,-1
 682 140 l 1,17,-1
 1038 140 l 1,18,-1
 1009 0 l 1,19,-1
 516 0 l 1,20,-1
 529 59 l 1,21,22
 491 21 491 21 437.5 4.5 c 128,-1,23
 384 -12 384 -12 329 -12 c 0,24,25
 252 -12 252 -12 193 13 c 128,-1,26
 134 38 134 38 96 82 c 128,-1,27
 58 126 58 126 42 187.5 c 128,-1,28
 26 249 26 249 35 321 c 1,29,-1
 35 321 l 1,0,1
349 119 m 1,30,31
 391 119 391 119 427.5 136 c 128,-1,32
 464 153 464 153 492 183 c 128,-1,33
 520 213 520 213 538.5 254.5 c 128,-1,34
 557 296 557 296 562 345 c 0,35,36
 568 398 568 398 557.5 437 c 128,-1,37
 547 476 547 476 525.5 501 c 128,-1,38
 504 526 504 526 475 538 c 128,-1,39
 446 550 446 550 414 550 c 0,40,41
 378 550 378 550 343 535.5 c 128,-1,42
 308 521 308 521 279.5 492.5 c 128,-1,43
 251 464 251 464 230.5 421 c 128,-1,44
 210 378 210 378 203 321 c 0,45,46
 198 282 198 282 204.5 245.5 c 128,-1,47
 211 209 211 209 229 181 c 128,-1,48
 247 153 247 153 277 136 c 128,-1,49
 307 119 307 119 349 119 c 1,50,-1
 349 119 l 1,30,31
EndSplineSet
EndChar

StartChar: oe
Encoding: 339 339 199
AltUni2: 00e991.ffffffff.0 00e991.ffffffff.0
Width: 939
GlyphClass: 1
Flags: W
LayerCount: 2
Fore
SplineSet
6 243 m 1,0,1
 20 315 20 315 50 366 c 128,-1,2
 80 417 80 417 121.5 449 c 128,-1,3
 163 481 163 481 213 496 c 128,-1,4
 263 511 263 511 315 511 c 0,5,6
 379 511 379 511 421.5 486 c 128,-1,7
 464 461 464 461 484 427 c 1,8,9
 500 447 500 447 524.5 462.5 c 128,-1,10
 549 478 549 478 577.5 488.5 c 128,-1,11
 606 499 606 499 636.5 505 c 128,-1,12
 667 511 667 511 695 511 c 0,13,14
 760 511 760 511 804.5 489 c 128,-1,15
 849 467 849 467 873.5 427.5 c 128,-1,16
 898 388 898 388 902.5 332.5 c 128,-1,17
 907 277 907 277 891 210 c 1,18,-1
 523 210 l 1,19,20
 518 182 518 182 524.5 162.5 c 128,-1,21
 531 143 531 143 545 130.5 c 128,-1,22
 559 118 559 118 579 112.5 c 128,-1,23
 599 107 599 107 620 107 c 0,24,25
 650 107 650 107 678.5 116.5 c 128,-1,26
 707 126 707 126 724 143 c 1,27,-1
 835 99 l 1,28,29
 786 45 786 45 725.5 16.5 c 128,-1,30
 665 -12 665 -12 589 -12 c 0,31,32
 533 -12 533 -12 486 6.5 c 128,-1,33
 439 25 439 25 414 56 c 1,34,35
 392 38 392 38 366.5 25 c 128,-1,36
 341 12 341 12 315.5 4 c 128,-1,37
 290 -4 290 -4 265.5 -8 c 128,-1,38
 241 -12 241 -12 221 -12 c 0,39,40
 160 -12 160 -12 114.5 5.5 c 128,-1,41
 69 23 69 23 41 55.5 c 128,-1,42
 13 88 13 88 4 135.5 c 128,-1,43
 -5 183 -5 183 6 243 c 1,44,-1
 6 243 l 1,0,1
238 107 m 1,45,46
 270 107 270 107 293.5 119 c 128,-1,47
 317 131 317 131 333.5 150.5 c 128,-1,48
 350 170 350 170 360.5 196 c 128,-1,49
 371 222 371 222 377 250 c 0,50,51
 393 322 393 322 370.5 357.5 c 128,-1,52
 348 393 348 393 296 392 c 0,53,54
 251 391 251 391 216.5 361 c 128,-1,55
 182 331 182 331 164 259 c 0,56,57
 157 232 157 232 156 204.5 c 128,-1,58
 155 177 155 177 162.5 155.5 c 128,-1,59
 170 134 170 134 188 120.5 c 128,-1,60
 206 107 206 107 238 107 c 1,61,-1
 238 107 l 1,45,46
767 300 m 1,62,63
 772 325 772 325 766 343.5 c 128,-1,64
 760 362 760 362 747.5 374 c 128,-1,65
 735 386 735 386 717 392 c 128,-1,66
 699 398 699 398 679 398 c 0,67,68
 658 398 658 398 636 391.5 c 128,-1,69
 614 385 614 385 595 373 c 128,-1,70
 576 361 576 361 561.5 342.5 c 128,-1,71
 547 324 547 324 541 300 c 1,72,-1
 767 300 l 1,73,-1
 767 300 l 1,62,63
EndSplineSet
EndChar

StartChar: Aring
Encoding: 197 197 203
Width: 698
GlyphClass: 1
Flags: W
LayerCount: 2
Fore
SplineSet
433 861 m 1,0,1
 460 861 460 861 484.5 850.5 c 128,-1,2
 509 840 509 840 527 822 c 128,-1,3
 545 804 545 804 555.5 780 c 128,-1,4
 566 756 566 756 566 729 c 256,5,6
 566 702 566 702 555.5 677.5 c 128,-1,7
 545 653 545 653 527 635 c 128,-1,8
 509 617 509 617 484.5 606.5 c 128,-1,9
 460 596 460 596 433 596 c 256,10,11
 406 596 406 596 382 606.5 c 128,-1,12
 358 617 358 617 340 635 c 128,-1,13
 322 653 322 653 311.5 677.5 c 128,-1,14
 301 702 301 702 301 729 c 256,15,16
 301 756 301 756 311.5 780 c 128,-1,17
 322 804 322 804 340 822 c 128,-1,18
 358 840 358 840 382 850.5 c 128,-1,19
 406 861 406 861 433 861 c 1,20,-1
 433 861 l 1,21,-1
 433 861 l 1,0,1
386 729 m 1,22,23
 386 709 386 709 399.5 695.5 c 128,-1,24
 413 682 413 682 433 682 c 256,25,26
 453 682 453 682 466.5 695.5 c 128,-1,27
 480 709 480 709 480 729 c 256,28,29
 480 749 480 749 466.5 762.5 c 128,-1,30
 453 776 453 776 433 776 c 256,31,32
 413 776 413 776 399.5 762.5 c 128,-1,33
 386 749 386 749 386 729 c 1,34,-1
 386 729 l 1,35,-1
 386 729 l 1,22,23
329 668 m 1,36,-1
 512 668 l 1,37,-1
 623 0 l 1,38,-1
 458 0 l 1,39,-1
 442 119 l 1,40,-1
 187 119 l 1,41,-1
 121 0 l 1,42,-1
 -65 0 l 1,43,-1
 329 668 l 1,36,-1
427 247 m 1,44,-1
 395 501 l 1,45,-1
 255 247 l 1,46,-1
 427 247 l 1,44,-1
EndSplineSet
EndChar

StartChar: ccedilla
Encoding: 231 231 212
Width: 531
GlyphClass: 1
Flags: W
LayerCount: 2
Fore
SplineSet
99 -127 m 1,0,1
 128 -140 128 -140 159 -140 c 0,2,3
 179 -140 179 -140 194 -133 c 128,-1,4
 209 -126 209 -126 211 -110 c 0,5,6
 213 -98 213 -98 201 -90.5 c 128,-1,7
 189 -83 189 -83 172 -83 c 0,8,9
 166 -83 166 -83 160 -84 c 128,-1,10
 154 -85 154 -85 148 -87 c 0,11,12
 135 -91 135 -91 127 -80 c 128,-1,13
 119 -69 119 -69 130 -56 c 2,14,-1
 199 27 l 1,15,-1
 235 2 l 1,16,-1
 195 -46 l 1,17,18
 217 -42 217 -42 237.5 -44 c 128,-1,19
 258 -46 258 -46 273 -54.5 c 128,-1,20
 288 -63 288 -63 296 -77 c 128,-1,21
 304 -91 304 -91 302 -111 c 0,22,23
 299 -135 299 -135 286.5 -151 c 128,-1,24
 274 -167 274 -167 255.5 -176.5 c 128,-1,25
 237 -186 237 -186 214.5 -190 c 128,-1,26
 192 -194 192 -194 169 -194 c 0,27,28
 138 -194 138 -194 112 -188.5 c 128,-1,29
 86 -183 86 -183 73 -177 c 1,30,-1
 99 -127 l 1,31,-1
 99 -127 l 1,32,-1
 99 -127 l 1,0,1
7 250 m 1,33,34
 18 310 18 310 45 358.5 c 128,-1,35
 72 407 72 407 112 440.5 c 128,-1,36
 152 474 152 474 204 492 c 128,-1,37
 256 510 256 510 316 510 c 0,38,39
 348 510 348 510 377.5 503.5 c 128,-1,40
 407 497 407 497 432 482 c 128,-1,41
 457 467 457 467 477.5 442.5 c 128,-1,42
 498 418 498 418 511 382 c 1,43,-1
 378 336 l 1,44,45
 370 368 370 368 349.5 380 c 128,-1,46
 329 392 329 392 299 392 c 0,47,48
 279 392 279 392 258 384.5 c 128,-1,49
 237 377 237 377 218 360 c 128,-1,50
 199 343 199 343 184.5 316 c 128,-1,51
 170 289 170 289 162 249 c 256,52,53
 154 209 154 209 157 181.5 c 128,-1,54
 160 154 160 154 171 137 c 128,-1,55
 182 120 182 120 199 112.5 c 128,-1,56
 216 105 216 105 236 105 c 0,57,58
 268 105 268 105 293 115 c 128,-1,59
 318 125 318 125 341 154 c 1,60,-1
 464 107 l 1,61,62
 440 73 440 73 411.5 50.5 c 128,-1,63
 383 28 383 28 351.5 14 c 128,-1,64
 320 0 320 0 287.5 -6 c 128,-1,65
 255 -12 255 -12 223 -12 c 0,66,67
 163 -12 163 -12 117.5 7.5 c 128,-1,68
 72 27 72 27 44 62 c 128,-1,69
 16 97 16 97 6 145 c 128,-1,70
 -4 193 -4 193 7 250 c 1,71,-1
 7 250 l 1,72,-1
 7 250 l 1,33,34
EndSplineSet
EndChar

StartChar: Eth
Encoding: 208 208 229
Width: 736
GlyphClass: 1
Flags: W
LayerCount: 2
Fore
SplineSet
36 412 m 1,0,-1
 112 412 l 1,1,-1
 166 668 l 1,2,-1
 360 668 l 2,3,4
 461 668 461 668 532 642.5 c 128,-1,5
 603 617 603 617 645 570.5 c 128,-1,6
 687 524 687 524 700 458.5 c 128,-1,7
 713 393 713 393 698 312 c 0,8,9
 682 223 682 223 637 163 c 128,-1,10
 592 103 592 103 530 67 c 128,-1,11
 468 31 468 31 394.5 15.5 c 128,-1,12
 321 0 321 0 247 0 c 2,13,-1
 24 0 l 1,14,-1
 82 275 l 1,15,-1
 6 275 l 1,16,-1
 36 412 l 1,17,-1
 36 412 l 1,0,-1
244 275 m 1,18,-1
 214 133 l 1,19,-1
 277 133 l 2,20,21
 338 133 338 133 383.5 149.5 c 128,-1,22
 429 166 429 166 461 195.5 c 128,-1,23
 493 225 493 225 511 266 c 128,-1,24
 529 307 529 307 535 355 c 0,25,26
 540 400 540 400 535.5 434.5 c 128,-1,27
 531 469 531 469 511.5 491.5 c 128,-1,28
 492 514 492 514 455 525.5 c 128,-1,29
 418 537 418 537 358 537 c 2,30,-1
 300 537 l 1,31,-1
 273 412 l 1,32,-1
 389 412 l 1,33,-1
 359 275 l 1,34,-1
 244 275 l 1,35,-1
 244 275 l 1,18,-1
EndSplineSet
EndChar

StartChar: one.tf
Encoding: 65551 -1 231
Width: 640
GlyphClass: 1
Flags: W
LayerCount: 2
Fore
SplineSet
25 0 m 1,0,-1
 51 124 l 1,1,-1
 207 124 l 1,2,-1
 274 447 l 1,3,-1
 120 447 l 1,4,-1
 147 570 l 1,5,6
 187 570 187 570 217.5 574 c 128,-1,7
 248 578 248 578 273 588.5 c 128,-1,8
 298 599 298 599 318 618 c 128,-1,9
 338 637 338 637 357 667 c 1,10,-1
 475 667 l 1,11,-1
 360 124 l 1,12,-1
 501 124 l 1,13,-1
 474 0 l 1,14,-1
 25 0 l 1,15,-1
 25 0 l 1,0,-1
EndSplineSet
Substitution2: "'pnum' Proportional Numbers lookup 4 subtable" one
EndChar

StartChar: ogonek.case
Encoding: 65560 -1 240
Width: 263
GlyphClass: 1
Flags: W
LayerCount: 2
Fore
SplineSet
-55 -85 m 1,0,1
 -47 -50 -47 -50 -18 -29.5 c 128,-1,2
 11 -9 11 -9 43 0 c 1,3,-1
 184 0 l 1,4,5
 169 -2 169 -2 151 -8 c 128,-1,6
 133 -14 133 -14 117 -23 c 128,-1,7
 101 -32 101 -32 89.5 -43.5 c 128,-1,8
 78 -55 78 -55 75 -68 c 0,9,10
 73 -77 73 -77 75.5 -83 c 128,-1,11
 78 -89 78 -89 84 -92 c 128,-1,12
 90 -95 90 -95 98 -96.5 c 128,-1,13
 106 -98 106 -98 114 -98 c 0,14,15
 129 -98 129 -98 144 -94.5 c 128,-1,16
 159 -91 159 -91 165 -89 c 1,17,-1
 149 -164 l 1,18,19
 137 -168 137 -168 112 -171 c 128,-1,20
 87 -174 87 -174 68 -174 c 0,21,22
 28 -174 28 -174 2.5 -165.5 c 128,-1,23
 -23 -157 -23 -157 -37 -144 c 128,-1,24
 -51 -131 -51 -131 -54.5 -115 c 128,-1,25
 -58 -99 -58 -99 -55 -85 c 1,26,-1
 -55 -85 l 1,0,1
EndSplineSet
EndChar

StartChar: Aogonek
Encoding: 260 260 241
Width: 698
GlyphClass: 1
Flags: W
LayerCount: 2
Fore
SplineSet
329 668 m 1,0,-1
 512 668 l 1,1,-1
 623 0 l 1,2,3
 608 -2 608 -2 590 -8 c 128,-1,4
 572 -14 572 -14 556 -23 c 128,-1,5
 540 -32 540 -32 528.5 -43.5 c 128,-1,6
 517 -55 517 -55 514 -68 c 0,7,8
 512 -77 512 -77 514.5 -83 c 128,-1,9
 517 -89 517 -89 523 -92 c 128,-1,10
 529 -95 529 -95 537 -96.5 c 128,-1,11
 545 -98 545 -98 553 -98 c 0,12,13
 568 -98 568 -98 583 -94.5 c 128,-1,14
 598 -91 598 -91 604 -89 c 1,15,-1
 588 -164 l 1,16,17
 576 -168 576 -168 551 -171 c 128,-1,18
 526 -174 526 -174 507 -174 c 0,19,20
 467 -174 467 -174 441.5 -165.5 c 128,-1,21
 416 -157 416 -157 402 -144 c 128,-1,22
 388 -131 388 -131 384.5 -115 c 128,-1,23
 381 -99 381 -99 384 -85 c 0,24,25
 392 -50 392 -50 421 -29.5 c 128,-1,26
 450 -9 450 -9 482 0 c 1,27,-1
 458 0 l 1,28,-1
 442 119 l 1,29,-1
 187 119 l 1,30,-1
 121 0 l 1,31,-1
 -65 0 l 1,32,-1
 329 668 l 1,33,-1
 329 668 l 1,0,-1
255 247 m 1,34,-1
 427 247 l 1,35,-1
 395 501 l 1,36,-1
 255 247 l 1,34,-1
EndSplineSet
EndChar

StartChar: eogonek
Encoding: 281 281 244
Width: 567
GlyphClass: 1
Flags: W
LayerCount: 2
Fore
SplineSet
7 248 m 1,0,1
 15 298 15 298 38 345.5 c 128,-1,2
 61 393 61 393 99 429.5 c 128,-1,3
 137 466 137 466 189 488 c 128,-1,4
 241 510 241 510 307 510 c 0,5,6
 372 510 372 510 419 488 c 128,-1,7
 466 466 466 466 494 426.5 c 128,-1,8
 522 387 522 387 528.5 331.5 c 128,-1,9
 535 276 535 276 519 209 c 1,10,-1
 154 209 l 1,11,12
 149 181 149 181 156 161.5 c 128,-1,13
 163 142 163 142 177 129.5 c 128,-1,14
 191 117 191 117 211 111.5 c 128,-1,15
 231 106 231 106 253 106 c 0,16,17
 284 106 284 106 312.5 115.5 c 128,-1,18
 341 125 341 125 358 142 c 1,19,-1
 472 98 l 1,20,21
 416 28 416 28 329 2 c 0,22,23
 289 -12 289 -12 258.5 -31.5 c 128,-1,24
 228 -51 228 -51 223 -69 c 0,25,26
 221 -78 221 -78 224.5 -83.5 c 128,-1,27
 228 -89 228 -89 234 -92 c 128,-1,28
 240 -95 240 -95 248.5 -96 c 128,-1,29
 257 -97 257 -97 265 -97 c 0,30,31
 279 -97 279 -97 294 -93.5 c 128,-1,32
 309 -90 309 -90 316 -88 c 1,33,-1
 300 -164 l 1,34,35
 287 -167 287 -167 262.5 -170 c 128,-1,36
 238 -173 238 -173 219 -173 c 0,37,38
 178 -173 178 -173 152.5 -164.5 c 128,-1,39
 127 -156 127 -156 113.5 -143 c 128,-1,40
 100 -130 100 -130 96.5 -114.5 c 128,-1,41
 93 -99 93 -99 95 -84 c 0,42,43
 98 -62 98 -62 119 -40 c 128,-1,44
 140 -18 140 -18 169 -7 c 1,45,46
 124 1 124 1 90 22 c 128,-1,47
 56 43 56 43 35 75.5 c 128,-1,48
 14 108 14 108 6.5 151.5 c 128,-1,49
 -1 195 -1 195 7 248 c 1,50,-1
 7 248 l 1,0,1
395 299 m 1,51,52
 400 349 400 349 371.5 374 c 128,-1,53
 343 399 343 399 302 399 c 0,54,55
 282 399 282 399 261 392.5 c 128,-1,56
 240 386 240 386 222 373.5 c 128,-1,57
 204 361 204 361 189.5 342.5 c 128,-1,58
 175 324 175 324 168 299 c 1,59,-1
 395 299 l 1,60,-1
 395 299 l 1,51,52
EndSplineSet
EndChar

StartChar: uni0326
Encoding: 806 806 250
Width: 0
GlyphClass: 4
Flags: W
LayerCount: 2
Fore
SplineSet
-366 -206 m 1,0,1
 -318 -206 -318 -206 -288.5 -191.5 c 128,-1,2
 -259 -177 -259 -177 -255 -145 c 0,3,4
 -253 -124 -253 -124 -265 -107 c 128,-1,5
 -277 -90 -277 -90 -300 -85 c 1,6,-1
 -199 -45 l 1,7,8
 -162 -61 -162 -61 -146.5 -86.5 c 128,-1,9
 -131 -112 -131 -112 -136 -143 c 0,10,11
 -144 -193 -144 -193 -193.5 -224 c 128,-1,12
 -243 -255 -243 -255 -323 -251 c 1,13,-1
 -366 -206 l 1,14,-1
 -366 -206 l 1,0,1
EndSplineSet
EndChar

StartChar: Hbar
Encoding: 294 294 255
Width: 740
GlyphClass: 1
Flags: W
LayerCount: 2
Fore
SplineSet
108 496 m 1,0,-1
 50 496 l 1,1,-1
 71 594 l 1,2,-1
 129 594 l 1,3,-1
 145 668 l 1,4,-1
 305 668 l 1,5,-1
 290 594 l 1,6,-1
 566 594 l 1,7,-1
 582 668 l 1,8,-1
 743 668 l 1,9,-1
 727 594 l 1,10,-1
 781 594 l 1,11,-1
 760 496 l 1,12,-1
 706 496 l 1,13,-1
 601 0 l 1,14,-1
 440 0 l 1,15,-1
 498 274 l 1,16,-1
 223 274 l 1,17,-1
 164 0 l 1,18,-1
 3 0 l 1,19,-1
 108 496 l 1,0,-1
269 496 m 1,20,-1
 252 413 l 1,21,-1
 528 413 l 1,22,-1
 546 496 l 1,23,-1
 269 496 l 1,20,-1
EndSplineSet
EndChar

StartChar: hbar
Encoding: 295 295 256
Width: 601
GlyphClass: 1
Flags: W
LayerCount: 2
Fore
SplineSet
0 0 m 1,0,-1
 118 555 l 1,1,-1
 22 555 l 1,2,-1
 39 633 l 1,3,-1
 134 633 l 1,4,-1
 148 698 l 1,5,-1
 299 698 l 1,6,-1
 285 633 l 1,7,-1
 408 633 l 1,8,-1
 391 555 l 1,9,-1
 269 555 l 1,10,-1
 243 432 l 1,11,12
 254 446 254 446 270 460 c 128,-1,13
 286 474 286 474 307.5 485 c 128,-1,14
 329 496 329 496 356.5 503 c 128,-1,15
 384 510 384 510 417 510 c 0,16,17
 453 510 453 510 481.5 497.5 c 128,-1,18
 510 485 510 485 527.5 457 c 128,-1,19
 545 429 545 429 548.5 386 c 128,-1,20
 552 343 552 343 539 281 c 2,21,-1
 479 0 l 1,22,-1
 323 0 l 1,23,-1
 379 263 l 2,24,25
 394 332 394 332 382.5 362 c 128,-1,26
 371 392 371 392 332 392 c 0,27,28
 237 392 237 392 210 254 c 2,29,-1
 156 0 l 1,30,-1
 0 0 l 1,31,-1
 0 0 l 1,0,-1
EndSplineSet
EndChar

StartChar: uni0123
Encoding: 291 291 257
Width: 595
GlyphClass: 1
Flags: W
LayerCount: 2
Fore
SplineSet
394 523 m 1,0,1
 394 523 394 523 394 523 c 129,-1,2
 394 523 394 523 394 523 c 257,3,4
 394 523 394 523 394 523 c 129,-1,5
 394 523 394 523 394 523 c 1,6,-1
 394 523 l 1,7,8
 394 523 394 523 394 523 c 129,-1,9
 394 523 394 523 394 523 c 257,10,11
 394 523 394 523 394 523 c 129,-1,12
 394 523 394 523 394 523 c 1,13,-1
 394 523 l 1,14,-1
 394 523 l 1,15,-1
 394 523 l 1,0,1
113 -41 m 1,16,17
 120 -64 120 -64 144 -76 c 128,-1,18
 168 -88 168 -88 197 -88 c 0,19,20
 217 -88 217 -88 236.5 -82.5 c 128,-1,21
 256 -77 256 -77 273 -65.5 c 128,-1,22
 290 -54 290 -54 302.5 -36 c 128,-1,23
 315 -18 315 -18 320 6 c 0,24,25
 322 14 322 14 325 28 c 128,-1,26
 328 42 328 42 331 56 c 0,27,28
 334 73 334 73 338 91 c 1,29,30
 306 53 306 53 267.5 35 c 128,-1,31
 229 17 229 17 188 17 c 0,32,33
 149 17 149 17 113 33.5 c 128,-1,34
 77 50 77 50 51.5 81 c 128,-1,35
 26 112 26 112 13.5 156.5 c 128,-1,36
 1 201 1 201 10 258 c 0,37,38
 20 324 20 324 46 371.5 c 128,-1,39
 72 419 72 419 107 450 c 128,-1,40
 142 481 142 481 183 496 c 128,-1,41
 224 511 224 511 263 511 c 0,42,43
 311 511 311 511 350.5 490 c 128,-1,44
 390 469 390 469 410 429 c 1,45,-1
 444 496 l 1,46,-1
 578 496 l 1,47,48
 557 394 557 394 537 302 c 0,49,50
 529 263 529 263 520.5 222 c 128,-1,51
 512 181 512 181 504 143 c 128,-1,52
 496 105 496 105 489 73 c 128,-1,53
 482 41 482 41 477 18 c 0,54,55
 463 -42 463 -42 434 -84.5 c 128,-1,56
 405 -127 405 -127 366.5 -154.5 c 128,-1,57
 328 -182 328 -182 283.5 -194.5 c 128,-1,58
 239 -207 239 -207 195 -207 c 0,59,60
 158 -207 158 -207 122.5 -198.5 c 128,-1,61
 87 -190 87 -190 58 -174 c 128,-1,62
 29 -158 29 -158 8.5 -135.5 c 128,-1,63
 -12 -113 -12 -113 -21 -85 c 1,64,-1
 113 -41 l 1,65,-1
 113 -41 l 1,66,-1
 113 -41 l 1,16,17
248 131 m 1,67,68
 293 131 293 131 330 160.5 c 128,-1,69
 367 190 367 190 381 263 c 0,70,71
 387 296 387 296 383.5 321 c 128,-1,72
 380 346 380 346 368 362.5 c 128,-1,73
 356 379 356 379 338 387 c 128,-1,74
 320 395 320 395 297 395 c 0,75,76
 251 395 251 395 214.5 364 c 128,-1,77
 178 333 178 333 168 266 c 0,78,79
 158 203 158 203 182 167 c 128,-1,80
 206 131 206 131 248 131 c 1,81,-1
 248 131 l 1,82,-1
 248 131 l 1,67,68
EndSplineSet
EndChar

StartChar: caron.salt
Encoding: 65561 -1 260
Width: 205
GlyphClass: 1
Flags: W
LayerCount: 2
Fore
SplineSet
75 496 m 1,0,-1
 128 650 l 2,1,2
 135 670 135 670 150.5 679 c 128,-1,3
 166 688 166 688 182 688 c 0,4,5
 209 688 209 688 222.5 669 c 128,-1,6
 236 650 236 650 236 631 c 0,7,8
 236 615 236 615 230 606 c 2,9,-1
 158 496 l 1,10,-1
 75 496 l 1,11,-1
 75 496 l 1,0,-1
EndSplineSet
EndChar

StartChar: dcroat
Encoding: 273 273 266
Width: 589
GlyphClass: 1
Flags: W
LayerCount: 2
Fore
SplineSet
9 255 m 1,0,1
 19 314 19 314 42 361.5 c 128,-1,2
 65 409 65 409 98.5 442 c 128,-1,3
 132 475 132 475 175 492.5 c 128,-1,4
 218 510 218 510 267 510 c 0,5,6
 315 510 315 510 352.5 486.5 c 128,-1,7
 390 463 390 463 406 421 c 1,8,-1
 435 555 l 1,9,-1
 287 555 l 1,10,-1
 304 633 l 1,11,-1
 451 633 l 1,12,-1
 465 698 l 1,13,-1
 620 698 l 1,14,15
 618 690 618 690 616 681 c 256,16,17
 614 672 614 672 612 660 c 128,-1,18
 610 648 610 648 606 633 c 1,19,-1
 673 633 l 1,20,-1
 656 555 l 1,21,-1
 589 555 l 1,22,23
 579 509 579 509 568 456.5 c 128,-1,24
 557 404 557 404 546.5 354.5 c 128,-1,25
 536 305 536 305 527 262.5 c 128,-1,26
 518 220 518 220 513 193 c 0,27,28
 505 155 505 155 497.5 104.5 c 128,-1,29
 490 54 490 54 489 -1 c 1,30,-1
 340 -1 l 1,31,-1
 335 63 l 1,32,33
 303 22 303 22 265.5 4.5 c 128,-1,34
 228 -13 228 -13 187 -13 c 0,35,36
 139 -13 139 -13 101.5 6 c 128,-1,37
 64 25 64 25 40 60 c 128,-1,38
 16 95 16 95 7 144.5 c 128,-1,39
 -2 194 -2 194 9 255 c 1,40,-1
 9 255 l 1,0,1
248 105 m 1,41,42
 293 105 293 105 329.5 144 c 128,-1,43
 366 183 366 183 377 261 c 0,44,45
 382 297 382 297 375.5 322 c 128,-1,46
 369 347 369 347 355.5 362.5 c 128,-1,47
 342 378 342 378 324.5 385 c 128,-1,48
 307 392 307 392 290 392 c 0,49,50
 244 392 244 392 210 361.5 c 128,-1,51
 176 331 176 331 163 265 c 0,52,53
 157 234 157 234 158.5 205 c 128,-1,54
 160 176 160 176 170 154 c 128,-1,55
 180 132 180 132 199 118.5 c 128,-1,56
 218 105 218 105 248 105 c 1,57,-1
 248 105 l 1,41,42
EndSplineSet
EndChar

StartChar: aogonek
Encoding: 261 261 285
Width: 541
GlyphClass: 1
Flags: W
LayerCount: 2
Fore
SplineSet
203 -84 m 1,0,1
 208 -57 208 -57 233 -33 c 128,-1,2
 258 -9 258 -9 293 0 c 1,3,-1
 437 0 l 1,4,5
 418 -9 418 -9 400 -17.5 c 128,-1,6
 382 -26 382 -26 367.5 -34.5 c 128,-1,7
 353 -43 353 -43 343 -51.5 c 128,-1,8
 333 -60 333 -60 331 -69 c 256,9,10
 329 -78 329 -78 332.5 -83.5 c 128,-1,11
 336 -89 336 -89 342 -92 c 128,-1,12
 348 -95 348 -95 356.5 -96 c 128,-1,13
 365 -97 365 -97 373 -97 c 0,14,15
 387 -97 387 -97 402 -93.5 c 128,-1,16
 417 -90 417 -90 424 -88 c 1,17,-1
 408 -164 l 1,18,19
 395 -167 395 -167 370.5 -170 c 128,-1,20
 346 -173 346 -173 327 -173 c 0,21,22
 286 -173 286 -173 260.5 -164.5 c 128,-1,23
 235 -156 235 -156 221.5 -143 c 128,-1,24
 208 -130 208 -130 204.5 -114.5 c 128,-1,25
 201 -99 201 -99 203 -84 c 1,26,-1
 203 -84 l 1,27,-1
 203 -84 l 1,0,1
-22 123 m 1,28,29
 -20 177 -20 177 13 211.5 c 128,-1,30
 46 246 46 246 97.5 267 c 128,-1,31
 149 288 149 288 211.5 298.5 c 128,-1,32
 274 309 274 309 334 315 c 1,33,-1
 337 328 l 2,34,35
 347 372 347 372 328 389.5 c 128,-1,36
 309 407 309 407 268 407 c 0,37,38
 236 407 236 407 208 392.5 c 128,-1,39
 180 378 180 378 166 348 c 1,40,-1
 49 394 l 1,41,42
 87 453 87 453 145.5 481.5 c 128,-1,43
 204 510 204 510 289 510 c 0,44,45
 339 510 339 510 380 497 c 128,-1,46
 421 484 421 484 448 458 c 128,-1,47
 475 432 475 432 485.5 393 c 128,-1,48
 496 354 496 354 484 302 c 0,49,50
 482 292 482 292 479 277.5 c 128,-1,51
 476 263 476 263 472.5 247.5 c 128,-1,52
 469 232 469 232 466 217.5 c 128,-1,53
 463 203 463 203 461 193 c 0,54,55
 456 169 456 169 451.5 141.5 c 128,-1,56
 447 114 447 114 444 88 c 128,-1,57
 441 62 441 62 439 39 c 128,-1,58
 437 16 437 16 437 0 c 1,59,-1
 293 0 l 1,60,-1
 288 59 l 1,61,62
 254 18 254 18 216.5 3 c 128,-1,63
 179 -12 179 -12 126 -12 c 0,64,65
 97 -12 97 -12 69.5 -2.5 c 128,-1,66
 42 7 42 7 21.5 24 c 128,-1,67
 1 41 1 41 -11 66.5 c 128,-1,68
 -23 92 -23 92 -22 123 c 1,69,-1
 -22 123 l 1,70,-1
 -22 123 l 1,28,29
204 91 m 1,71,72
 245 91 245 91 274 117.5 c 128,-1,73
 303 144 303 144 321 213 c 2,74,-1
 324 225 l 1,75,76
 243 218 243 218 193.5 200 c 128,-1,77
 144 182 144 182 139 144 c 0,78,79
 136 119 136 119 155.5 105 c 128,-1,80
 175 91 175 91 204 91 c 1,81,-1
 204 91 l 1,82,-1
 204 91 l 1,71,72
EndSplineSet
EndChar

StartChar: Scedilla
Encoding: 350 350 318
Width: 642
GlyphClass: 1
Flags: W
LayerCount: 2
Fore
SplineSet
149 -128 m 1,0,1
 178 -141 178 -141 209 -141 c 0,2,3
 229 -141 229 -141 244 -134 c 128,-1,4
 259 -127 259 -127 261 -111 c 0,5,6
 263 -99 263 -99 251 -91.5 c 128,-1,7
 239 -84 239 -84 222 -84 c 0,8,9
 216 -84 216 -84 210 -85 c 128,-1,10
 204 -86 204 -86 198 -88 c 0,11,12
 185 -92 185 -92 177 -81 c 128,-1,13
 169 -70 169 -70 180 -57 c 2,14,-1
 249 26 l 1,15,-1
 285 1 l 1,16,-1
 245 -47 l 1,17,18
 267 -43 267 -43 287.5 -45 c 128,-1,19
 308 -47 308 -47 323 -55.5 c 128,-1,20
 338 -64 338 -64 346 -78 c 128,-1,21
 354 -92 354 -92 352 -112 c 0,22,23
 349 -136 349 -136 336.5 -152 c 128,-1,24
 324 -168 324 -168 305.5 -177.5 c 128,-1,25
 287 -187 287 -187 264.5 -191 c 128,-1,26
 242 -195 242 -195 219 -195 c 0,27,28
 188 -195 188 -195 162 -189.5 c 128,-1,29
 136 -184 136 -184 123 -178 c 1,30,-1
 149 -128 l 1,31,-1
 149 -128 l 1,32,-1
 149 -128 l 1,0,1
165 209 m 1,33,34
 171 184 171 184 186 166 c 128,-1,35
 201 148 201 148 221 136.5 c 128,-1,36
 241 125 241 125 265 119.5 c 128,-1,37
 289 114 289 114 313 114 c 0,38,39
 335 114 335 114 355 118.5 c 128,-1,40
 375 123 375 123 390.5 131 c 128,-1,41
 406 139 406 139 415 151.5 c 128,-1,42
 424 164 424 164 424 179 c 0,43,44
 424 210 424 210 395 228 c 128,-1,45
 366 246 366 246 323.5 260.5 c 128,-1,46
 281 275 281 275 231.5 291 c 128,-1,47
 182 307 182 307 142 332.5 c 128,-1,48
 102 358 102 358 78.5 399 c 128,-1,49
 55 440 55 440 63 504 c 0,50,51
 69 549 69 549 94.5 582.5 c 128,-1,52
 120 616 120 616 158.5 637.5 c 128,-1,53
 197 659 197 659 244.5 669.5 c 128,-1,54
 292 680 292 680 341 680 c 0,55,56
 378 680 378 680 416 672.5 c 128,-1,57
 454 665 454 665 489.5 648 c 128,-1,58
 525 631 525 631 555 603.5 c 128,-1,59
 585 576 585 576 606 535 c 1,60,-1
 451 483 l 1,61,62
 438 518 438 518 402 534.5 c 128,-1,63
 366 551 366 551 329 551 c 0,64,65
 278 551 278 551 251 534.5 c 128,-1,66
 224 518 224 518 224 492 c 0,67,68
 224 468 224 468 240.5 452.5 c 128,-1,69
 257 437 257 437 283.5 425.5 c 128,-1,70
 310 414 310 414 344 404.5 c 128,-1,71
 378 395 378 395 413 384 c 128,-1,72
 448 373 448 373 481 358 c 128,-1,73
 514 343 514 343 539 320.5 c 128,-1,74
 564 298 564 298 577.5 265.5 c 128,-1,75
 591 233 591 233 587 187 c 0,76,77
 583 138 583 138 558 100.5 c 128,-1,78
 533 63 533 63 494.5 38 c 128,-1,79
 456 13 456 13 407 0.5 c 128,-1,80
 358 -12 358 -12 306 -12 c 0,81,82
 197 -12 197 -12 119 32.5 c 128,-1,83
 41 77 41 77 10 157 c 1,84,-1
 10 157 l 1,85,-1
 165 209 l 1,33,34
EndSplineSet
EndChar

StartChar: scedilla
Encoding: 351 351 319
Width: 515
GlyphClass: 1
Flags: W
LayerCount: 2
Fore
SplineSet
95 -128 m 1,0,1
 124 -141 124 -141 155 -141 c 0,2,3
 175 -141 175 -141 190 -134 c 128,-1,4
 205 -127 205 -127 207 -111 c 0,5,6
 209 -99 209 -99 197 -91.5 c 128,-1,7
 185 -84 185 -84 168 -84 c 0,8,9
 162 -84 162 -84 156 -85 c 128,-1,10
 150 -86 150 -86 144 -88 c 0,11,12
 131 -92 131 -92 123 -81 c 128,-1,13
 115 -70 115 -70 126 -57 c 2,14,-1
 195 26 l 1,15,-1
 231 1 l 1,16,-1
 191 -47 l 1,17,18
 213 -43 213 -43 233.5 -45 c 128,-1,19
 254 -47 254 -47 269 -55.5 c 128,-1,20
 284 -64 284 -64 292 -78 c 128,-1,21
 300 -92 300 -92 298 -112 c 0,22,23
 295 -136 295 -136 282.5 -152 c 128,-1,24
 270 -168 270 -168 251.5 -177.5 c 128,-1,25
 233 -187 233 -187 210.5 -191 c 128,-1,26
 188 -195 188 -195 165 -195 c 0,27,28
 134 -195 134 -195 108 -189.5 c 128,-1,29
 82 -184 82 -184 69 -178 c 1,30,-1
 95 -128 l 1,31,-1
 95 -128 l 1,32,-1
 95 -128 l 1,0,1
120 160 m 1,33,34
 128 126 128 126 159 111 c 128,-1,35
 190 96 190 96 224 96 c 256,36,37
 258 96 258 96 283.5 109 c 128,-1,38
 309 122 309 122 306 143 c 0,39,40
 304 160 304 160 282.5 170 c 128,-1,41
 261 180 261 180 230 189 c 128,-1,42
 199 198 199 198 164 209 c 128,-1,43
 129 220 129 220 99.5 238 c 128,-1,44
 70 256 70 256 50 284.5 c 128,-1,45
 30 313 30 313 30 357 c 0,46,47
 30 390 30 390 46.5 418 c 128,-1,48
 63 446 63 446 91.5 466.5 c 128,-1,49
 120 487 120 487 159 498.5 c 128,-1,50
 198 510 198 510 243 510 c 0,51,52
 279 510 279 510 312.5 504.5 c 128,-1,53
 346 499 346 499 375.5 486.5 c 128,-1,54
 405 474 405 474 429 453 c 128,-1,55
 453 432 453 432 471 400 c 1,56,-1
 339 355 l 1,57,58
 328 381 328 381 302 390 c 128,-1,59
 276 399 276 399 241 399 c 256,60,61
 206 399 206 399 190 387 c 128,-1,62
 174 375 174 375 174 362 c 0,63,64
 174 343 174 343 194.5 331.5 c 128,-1,65
 215 320 215 320 246.5 310.5 c 128,-1,66
 278 301 278 301 314 291.5 c 128,-1,67
 350 282 350 282 381.5 265.5 c 128,-1,68
 413 249 413 249 433.5 223 c 128,-1,69
 454 197 454 197 454 156 c 0,70,71
 454 78 454 78 393.5 32.5 c 128,-1,72
 333 -13 333 -13 229 -13 c 0,73,74
 201 -13 201 -13 166.5 -8.5 c 128,-1,75
 132 -4 132 -4 99 10 c 128,-1,76
 66 24 66 24 37 49 c 128,-1,77
 8 74 8 74 -10 116 c 1,78,-1
 -10 116 l 1,79,-1
 120 160 l 1,33,34
EndSplineSet
EndChar

StartChar: Uogonek
Encoding: 370 370 339
Width: 676
GlyphClass: 1
Flags: W
LayerCount: 2
Fore
SplineSet
133 -85 m 1,0,1
 141 -50 141 -50 170 -29.5 c 128,-1,2
 199 -9 199 -9 231 0 c 1,3,-1
 372 0 l 1,4,5
 357 -2 357 -2 339 -8 c 128,-1,6
 321 -14 321 -14 305 -23 c 128,-1,7
 289 -32 289 -32 277.5 -43.5 c 128,-1,8
 266 -55 266 -55 263 -68 c 0,9,10
 261 -77 261 -77 263.5 -83 c 128,-1,11
 266 -89 266 -89 272 -92 c 128,-1,12
 278 -95 278 -95 286 -96.5 c 128,-1,13
 294 -98 294 -98 302 -98 c 0,14,15
 317 -98 317 -98 332 -94.5 c 128,-1,16
 347 -91 347 -91 353 -89 c 1,17,-1
 337 -164 l 1,18,19
 325 -168 325 -168 300 -171 c 128,-1,20
 275 -174 275 -174 256 -174 c 0,21,22
 216 -174 216 -174 190.5 -165.5 c 128,-1,23
 165 -157 165 -157 151 -144 c 128,-1,24
 137 -131 137 -131 133.5 -115 c 128,-1,25
 130 -99 130 -99 133 -85 c 1,26,-1
 133 -85 l 1,27,-1
 133 -85 l 1,0,1
120 668 m 1,28,-1
 281 668 l 1,29,-1
 198 279 l 2,30,31
 191 244 191 244 188.5 214.5 c 128,-1,32
 186 185 186 185 195 163 c 128,-1,33
 204 141 204 141 227 129 c 128,-1,34
 250 117 250 117 294 117 c 0,35,36
 335 117 335 117 362.5 128.5 c 128,-1,37
 390 140 390 140 408.5 161 c 128,-1,38
 427 182 427 182 438 212 c 128,-1,39
 449 242 449 242 457 279 c 2,40,-1
 540 668 l 1,41,-1
 701 668 l 1,42,-1
 621 292 l 2,43,44
 601 198 601 198 571 139 c 128,-1,45
 541 80 541 80 497.5 46.5 c 128,-1,46
 454 13 454 13 397 0.5 c 128,-1,47
 340 -12 340 -12 266 -12 c 0,48,49
 179 -12 179 -12 127.5 12 c 128,-1,50
 76 36 76 36 52 77.5 c 128,-1,51
 28 119 28 119 27 174.5 c 128,-1,52
 26 230 26 230 39 292 c 1,53,-1
 39 292 l 1,54,-1
 120 668 l 1,28,-1
EndSplineSet
EndChar

StartChar: dieresis
Encoding: 168 168 342
Width: 455
GlyphClass: 1
Flags: W
LayerCount: 2
Fore
SplineSet
128 648 m 1,0,1
 128 677 128 677 149 698 c 128,-1,2
 170 719 170 719 199 719 c 256,3,4
 228 719 228 719 248.5 698 c 128,-1,5
 269 677 269 677 269 648 c 256,6,7
 269 619 269 619 248.5 598.5 c 128,-1,8
 228 578 228 578 199 578 c 256,9,10
 170 578 170 578 149 598.5 c 128,-1,11
 128 619 128 619 128 648 c 1,12,-1
 128 648 l 1,0,1
322 648 m 1,13,14
 322 677 322 677 343 698 c 128,-1,15
 364 719 364 719 393 719 c 256,16,17
 422 719 422 719 442 698 c 128,-1,18
 462 677 462 677 462 648 c 256,19,20
 462 619 462 619 442 598.5 c 128,-1,21
 422 578 422 578 393 578 c 256,22,23
 364 578 364 578 343 598.5 c 128,-1,24
 322 619 322 619 322 648 c 1,25,-1
 322 648 l 1,13,14
EndSplineSet
Substitution2: "'case' Case-Sensitive Forms lookup 1 subtable" dieresis.case
EndChar

StartChar: u
Encoding: 117 117 343
Width: 578
GlyphClass: 1
Flags: W
LayerCount: 2
Fore
SplineSet
27 220 m 1,0,-1
 86 496 l 1,1,-1
 241 496 l 1,2,-1
 186 235 l 2,3,4
 183 222 183 222 180 200 c 128,-1,5
 177 178 177 178 180 157 c 128,-1,6
 183 136 183 136 194 121 c 128,-1,7
 205 106 205 106 231 106 c 0,8,9
 270 106 270 106 302.5 135.5 c 128,-1,10
 335 165 335 165 350 234 c 2,11,-1
 406 496 l 1,12,-1
 561 496 l 1,13,-1
 456 0 l 1,14,-1
 321 0 l 1,15,-1
 316 64 l 1,16,17
 295 30 295 30 255.5 9 c 128,-1,18
 216 -12 216 -12 159 -12 c 0,19,20
 103 -12 103 -12 72 9.5 c 128,-1,21
 41 31 41 31 28 64.5 c 128,-1,22
 15 98 15 98 16.5 139 c 128,-1,23
 18 180 18 180 27 220 c 1,24,-1
 27 220 l 1,0,-1
EndSplineSet
EndChar

StartChar: uogonek
Encoding: 371 371 350
Width: 578
GlyphClass: 1
Flags: W
LayerCount: 2
Fore
SplineSet
27 220 m 1,0,-1
 86 496 l 1,1,-1
 241 496 l 1,2,-1
 186 235 l 2,3,4
 183 222 183 222 180 200 c 128,-1,5
 177 178 177 178 180 157 c 128,-1,6
 183 136 183 136 194 121 c 128,-1,7
 205 106 205 106 231 106 c 0,8,9
 270 106 270 106 302.5 135.5 c 128,-1,10
 335 165 335 165 350 234 c 2,11,-1
 406 496 l 1,12,-1
 561 496 l 1,13,-1
 456 0 l 1,14,15
 437 -9 437 -9 419 -17.5 c 128,-1,16
 401 -26 401 -26 386.5 -34.5 c 128,-1,17
 372 -43 372 -43 362 -51.5 c 128,-1,18
 352 -60 352 -60 350 -69 c 256,19,20
 348 -78 348 -78 351.5 -83.5 c 128,-1,21
 355 -89 355 -89 361 -92 c 128,-1,22
 367 -95 367 -95 375.5 -96 c 128,-1,23
 384 -97 384 -97 392 -97 c 0,24,25
 406 -97 406 -97 421 -93.5 c 128,-1,26
 436 -90 436 -90 443 -88 c 1,27,-1
 427 -164 l 1,28,29
 414 -167 414 -167 389.5 -170 c 128,-1,30
 365 -173 365 -173 346 -173 c 0,31,32
 305 -173 305 -173 280 -164 c 128,-1,33
 255 -155 255 -155 241.5 -141.5 c 128,-1,34
 228 -128 228 -128 224.5 -112.5 c 128,-1,35
 221 -97 221 -97 223 -84 c 0,36,37
 228 -53 228 -53 256.5 -29.5 c 128,-1,38
 285 -6 285 -6 321 3 c 1,39,-1
 316 64 l 1,40,41
 295 30 295 30 255.5 9 c 128,-1,42
 216 -12 216 -12 159 -12 c 0,43,44
 103 -12 103 -12 72 9.5 c 128,-1,45
 41 31 41 31 28 64.5 c 128,-1,46
 15 98 15 98 16.5 139 c 128,-1,47
 18 180 18 180 27 220 c 1,48,-1
 27 220 l 1,0,-1
EndSplineSet
EndChar

